<svg width="200" height="50" viewBox="0 0 200 50" fill="none" xmlns="http://www.w3.org/2000/svg">
<path d="M43.8305 31.8491C43.4185 31.8491 43.1798 32.0963 43.1798 32.5435V36.076H37.7582V32.5435C37.7582 32.0986 37.5195 31.8491 37.1075 31.8491C36.7 31.8491 36.4568 32.0963 36.4568 32.5435V41.0603C36.4568 41.5052 36.7 41.7524 37.1075 41.7524C37.5195 41.7524 37.7582 41.5052 37.7582 41.0603V37.2895H43.1798V41.0603C43.1798 41.5052 43.4185 41.7524 43.8305 41.7524C44.238 41.7524 44.4767 41.5052 44.4767 41.0603V32.5435C44.4789 32.0963 44.238 31.8491 43.8305 31.8491ZM50.5242 36.685L54.2955 32.921C54.4734 32.7435 54.5499 32.5997 54.5499 32.3974C54.5499 32.1008 54.345 31.8491 53.9938 31.8491C53.8114 31.8491 53.6651 31.9121 53.5007 32.0739L49.815 35.7525C49.6079 35.9592 49.3985 36.0738 49.1058 36.0738H48.347V32.5413C48.347 32.0963 48.1084 31.8469 47.6963 31.8469C47.2888 31.8469 47.0457 32.0941 47.0457 32.5413V41.058C47.0457 41.5029 47.2888 41.7501 47.6963 41.7501C48.1084 41.7501 48.347 41.5029 48.347 41.058V37.2873H49.018C49.3084 37.2873 49.5178 37.4041 49.7249 37.6086L53.6381 41.5142C53.8114 41.685 53.9623 41.7501 54.1559 41.7501C54.5252 41.7501 54.739 41.4872 54.739 41.1771C54.739 40.9636 54.658 40.8131 54.4711 40.6266L50.5242 36.685ZM58.6679 20.1234C58.0825 20.4313 57.281 20.6515 56.5132 20.6515C55.2479 20.6515 54.4554 20.1055 54.4554 19.1527C54.4554 18.2943 55.1331 17.6291 56.5042 17.6291C57.227 17.6291 57.8664 17.7347 58.6679 17.9729V20.1234ZM56.6866 12.2157C55.5856 12.2157 54.5927 12.4966 53.9578 12.755C53.4219 12.973 53.1945 13.2831 53.1968 13.6966C53.2013 14.1842 53.5705 14.5415 54.0298 14.5415C54.2505 14.5415 54.4959 14.4561 54.7571 14.3527C55.1713 14.1864 55.8535 14.0067 56.5357 14.0067C58.051 14.0067 58.6679 14.5775 58.6679 15.7437V16.5302C57.7966 16.2965 57.0851 16.1932 56.2701 16.1932C53.7889 16.1932 52.5776 17.6044 52.5776 19.1527C52.5776 20.9437 53.9353 22.292 56.3399 22.292C58.2086 22.292 59.6316 21.6717 60.2012 21.2807C60.4736 21.092 60.5704 20.9122 60.5704 20.5459V15.7864C60.5682 13.337 59.1565 12.2157 56.6866 12.2157ZM80.422 18.5617C79.9762 18.5707 79.7262 18.8358 79.5574 19.1302C79.2151 19.865 78.4924 20.3841 77.504 20.3841C76.1081 20.3841 75.2863 19.5437 75.1714 18.301C75.1107 17.6358 75.1107 16.8673 75.1714 16.2022C75.2863 14.9572 76.1193 14.1168 77.504 14.1168C78.4924 14.1168 79.2084 14.6269 79.5574 15.3797C79.733 15.6651 79.9762 15.937 80.422 15.9415C80.9938 15.946 81.3788 15.5909 81.3788 15.0314C81.3788 14.7415 81.2685 14.4516 81.0929 14.1348C80.5188 13.0674 79.2714 12.2134 77.477 12.2134C75.0544 12.2134 73.4243 13.7393 73.2216 15.9213C73.1518 16.6471 73.1518 17.8493 73.2216 18.5774C73.4333 20.7594 75.0544 22.2897 77.477 22.2897C79.2714 22.2897 80.5188 21.4403 81.0996 20.3661C81.2753 20.047 81.3811 19.7594 81.3811 19.4695C81.3788 18.919 80.9916 18.5482 80.422 18.5617ZM36.2002 20.5167L32.8049 17.128L36.0268 13.9123C36.2767 13.6629 36.405 13.4157 36.405 13.1303C36.405 12.6561 36.0606 12.3033 35.5697 12.3033C35.2838 12.3033 35.0699 12.4067 34.793 12.6831L31.5193 15.9505C31.3414 16.1302 31.15 16.2314 30.8956 16.2314H30.2269V13.3415C30.2269 12.6853 29.8442 12.3033 29.2408 12.3033C28.6419 12.3033 28.2614 12.6853 28.2614 13.3415V21.1616C28.2614 21.8178 28.6441 22.2043 29.2408 22.2043C29.8442 22.2043 30.2269 21.8178 30.2269 21.1616V18.0403H30.7853C31.0397 18.0403 31.2311 18.1415 31.409 18.3212L34.9033 21.8066C35.1915 22.0942 35.4166 22.2066 35.7161 22.2066C36.2339 22.2066 36.5964 21.838 36.5964 21.3369C36.5964 21.038 36.4636 20.7774 36.2002 20.5167ZM69.3491 18.3032C69.2342 19.5504 68.4575 20.3931 67.0345 20.3931C66.2983 20.3931 65.3729 20.1684 64.9158 19.847V14.6606C65.3729 14.3348 66.296 14.11 67.0345 14.11C68.4575 14.11 69.2365 14.9572 69.3491 16.2044C69.4053 16.8314 69.4098 17.6246 69.3491 18.3032ZM67.0953 12.2157C65.3751 12.2157 63.9995 12.8224 63.4456 13.1483C62.9931 13.4157 62.9458 13.6269 62.9458 14.3797V24.402C62.9458 25.0537 63.3263 25.4402 63.9252 25.4402C64.5286 25.4402 64.9136 25.0537 64.9136 24.402V21.7863C65.5035 22.0717 66.4063 22.292 67.2664 22.292C69.5404 22.292 71.103 20.7796 71.3079 18.5976C71.3777 17.8628 71.3777 16.6516 71.3079 15.91C71.1075 13.7235 69.5427 12.2157 67.0953 12.2157ZM32.7959 39.9502C32.0754 40.3367 31.096 40.6198 30.1886 40.6198C28.5653 40.6198 27.6489 39.9322 27.6489 38.7434C27.6489 37.676 28.455 36.8783 30.1886 36.8783C31.0487 36.8783 31.776 37.0041 32.7959 37.3052V39.9502ZM30.4678 31.7637C29.3331 31.7637 28.2276 32.0716 27.6287 32.3435C27.2257 32.5188 27.0433 32.7053 27.0523 33.0266C27.0636 33.3592 27.3202 33.6221 27.6377 33.6221C27.793 33.6221 27.9799 33.5615 28.1623 33.4761C28.6216 33.2806 29.4884 33.0222 30.3372 33.0222C32.0169 33.0222 32.7959 33.7053 32.7959 35.2266V36.1322C31.7422 35.8266 30.9834 35.721 30.0738 35.721C27.6129 35.721 26.3633 37.1345 26.3633 38.7322C26.3633 40.6086 27.7773 41.8423 30.0175 41.8423C31.8683 41.8423 33.2845 41.1928 33.8068 40.8131C34.0185 40.6625 34.0792 40.5412 34.0792 40.2535V35.1929C34.0792 32.8514 32.7216 31.7637 30.4678 31.7637ZM20.98 40.3883H17.301V35.1817H20.98C22.905 35.1817 23.6976 36.1232 23.6976 37.7502C23.6976 39.4131 22.905 40.3883 20.98 40.3883ZM21.1466 33.9323H17.301V29.9143H23.7088C24.1366 29.9143 24.4315 29.6761 24.4315 29.2671C24.4315 28.8761 24.1366 28.6334 23.7088 28.6334H17.1367C16.4004 28.6334 15.9794 29.0424 15.9794 29.7862V40.5097C15.9794 41.2535 16.3982 41.6647 17.1367 41.6647H21.1444C23.6075 41.6647 25.035 40.2355 25.035 37.7389C25.035 35.3098 23.6098 33.9323 21.1466 33.9323ZM43.754 15.9437H46.9781C48.5024 15.9437 49.1823 16.719 49.1823 18.0561C49.1823 19.4156 48.5024 20.2268 46.9781 20.2268H43.754V15.9437ZM43.2676 22.1167H47.1898C49.7407 22.1167 51.2515 20.638 51.2515 18.0134C51.2515 15.537 49.7407 14.1527 47.1898 14.1527H43.754V10.9887H49.5268C50.1572 10.9887 50.567 10.618 50.567 10.0247C50.567 9.46067 50.1572 9.08764 49.5268 9.08764H43.2676C42.277 9.08764 41.7344 9.62471 41.7344 10.618V20.5886C41.7321 21.5819 42.2747 22.1167 43.2676 22.1167ZM18.805 16.2359L20.6062 11.1078C20.676 10.9281 20.7346 10.8651 20.8697 10.8651C21.0025 10.8651 21.061 10.9281 21.1263 11.1078L22.9366 16.2359H18.805ZM26.7529 21.2583C26.7529 21.0762 26.7213 20.8987 26.6178 20.6246L22.9838 10.7236C22.5448 9.5146 21.9054 9 20.8877 9C19.8745 9 19.2306 9.5146 18.7938 10.7236L15.1351 20.6291C15.0225 20.9369 15 21.1212 15 21.265C15 21.7796 15.4098 22.2066 15.9794 22.2066C16.4455 22.2066 16.7944 21.9729 16.9881 21.4021L18.1724 18.0358H23.576L24.7693 21.4111C24.9584 21.9729 25.3074 22.2066 25.7667 22.2066C26.3453 22.2066 26.7529 21.7774 26.7529 21.2583Z" fill="#170030"/>
<path d="M185.447 24.4826C184.104 21.0821 180.788 19.2302 177.199 19.8783L169.823 21.2065C168.599 21.4269 167.786 22.5987 168.004 23.8232C168.224 25.0478 169.394 25.8616 170.617 25.6431L177.992 24.3149C179.747 23.9984 180.831 25.0497 181.26 26.1367C181.69 27.2256 181.615 28.7346 180.12 29.7048L169.295 36.7299C168.288 37.3818 167.064 37.427 166.016 36.8562C164.967 36.2853 164.338 35.2285 164.338 34.0322V11.2688C164.338 10.0236 163.332 9.01378 162.089 9.01378C160.845 9.01378 159.839 10.0236 159.839 11.2688V34.0359C159.839 36.9108 161.344 39.4465 163.866 40.8199C165.038 41.4567 166.3 41.7751 167.557 41.7751C169.007 41.7751 170.452 41.3549 171.742 40.5166L182.567 33.4915C185.633 31.5021 186.79 27.8831 185.447 24.4826ZM147.37 19.8802L139.994 21.2084C138.772 21.4288 137.959 22.6006 138.177 23.8251C138.397 25.0497 139.567 25.8635 140.79 25.645L148.165 24.3168C149.922 24.0003 151.004 25.0515 151.435 26.1386C151.864 27.2275 151.79 28.7365 150.293 29.7067L139.468 36.7318C138.463 37.3836 137.239 37.4289 136.189 36.858C135.14 36.2872 134.513 35.2303 134.513 34.0341V16.7397C134.513 13.863 133.008 11.3272 130.486 9.95385C127.964 8.58236 125.02 8.6954 122.61 10.2572L95.3809 27.9264C92.3167 29.9139 91.1599 33.5329 92.503 36.9334C93.8441 40.332 97.1584 42.182 100.751 41.5358L124.525 37.2555C125.748 37.0351 126.562 35.8633 126.342 34.6388C126.122 33.4142 124.952 32.5985 123.729 32.8189L99.9555 37.0992C98.1986 37.4157 97.117 36.3645 96.6882 35.2774C96.2574 34.1885 96.3308 32.6795 97.8281 31.7074L125.052 14.0419C126.054 13.392 127.281 13.3449 128.33 13.9157C129.38 14.4884 130.006 15.5453 130.006 16.7416V34.0359C130.006 36.9108 131.511 39.4465 134.034 40.8199C135.205 41.4567 136.469 41.7751 137.726 41.7751C139.176 41.7751 140.619 41.3549 141.909 40.5166L152.736 33.4915C155.799 31.504 156.955 27.885 155.614 24.4845C154.277 21.0821 150.959 19.234 147.37 19.8802Z" fill="#009C32"/>
</svg>
