<svg width="201" height="51" viewBox="0 0 201 51" fill="none" xmlns="http://www.w3.org/2000/svg">
<path d="M121.5 24.7304C122.077 24.7608 122.643 24.5673 123.08 24.1904C123.286 23.987 123.446 23.7413 123.548 23.4702C123.649 23.1992 123.691 22.9092 123.67 22.6204C123.685 22.35 123.645 22.0794 123.552 21.825C123.459 21.5706 123.316 21.3377 123.13 21.1404C122.916 20.9283 122.661 20.7621 122.381 20.6521C122.101 20.542 121.801 20.4904 121.5 20.5004H119.25V24.6804L121.5 24.7304ZM117.05 18.5604H121.6C122.777 18.5004 123.934 18.886 124.84 19.6404C125.24 20.039 125.551 20.5177 125.753 21.0451C125.954 21.5725 126.042 22.1367 126.01 22.7004C126.03 23.239 125.942 23.7763 125.749 24.2798C125.557 24.7833 125.265 25.2427 124.89 25.6304C124.028 26.3583 122.915 26.7176 121.79 26.6304H119.32V31.2204H117.12V18.5604H117.05ZM131.05 21.6704C130.416 22.6285 130.101 23.7625 130.15 24.9104C130.067 26.0619 130.385 27.2067 131.05 28.1504C131.344 28.5341 131.723 28.8449 132.156 29.0588C132.59 29.2728 133.067 29.384 133.55 29.384C134.033 29.384 134.51 29.2728 134.944 29.0588C135.377 28.8449 135.756 28.5341 136.05 28.1504C136.684 27.1923 136.999 26.0583 136.95 24.9104C137.033 23.7589 136.715 22.6141 136.05 21.6704C135.765 21.2701 135.387 20.9459 134.947 20.7262C134.508 20.5065 134.021 20.398 133.53 20.4104C133.038 20.3889 132.548 20.4933 132.107 20.7138C131.666 20.9343 131.288 21.2635 131.01 21.6704H131.05ZM137.63 20.1404C138.723 21.4856 139.298 23.1779 139.25 24.9104C139.321 26.6463 138.743 28.3465 137.63 29.6804C137.113 30.251 136.479 30.7036 135.772 31.0073C135.064 31.311 134.3 31.4587 133.53 31.4404C132.759 31.469 131.991 31.3259 131.282 31.0215C130.573 30.7171 129.94 30.2591 129.43 29.6804C128.337 28.3351 127.763 26.6429 127.81 24.9104C127.759 23.1653 128.362 21.464 129.5 20.1404C130.018 19.5716 130.652 19.1209 131.359 18.8189C132.067 18.517 132.831 18.3708 133.6 18.3904C134.368 18.3747 135.131 18.5226 135.838 18.8244C136.545 19.1261 137.18 19.5747 137.7 20.1404H137.63ZM169.25 18.6604V27.3904L175.15 18.6604H177.31V31.2104H175.15V22.4304L169.25 31.2004H167.05V18.6504L169.25 18.6604Z" fill="#CD1F45"/>
<path d="M185.19 20.5004C184.34 20.5004 182.26 20.1404 182.26 22.5004C182.26 23.4404 182.62 24.7104 185.26 24.7104H188.32V20.5004H185.19ZM182.4 31.2104H179.79L183.17 26.3904C182.266 26.2798 181.44 25.8254 180.863 25.1214C180.285 24.4175 180.002 23.5182 180.07 22.6104C180.07 21.0404 180.75 18.6104 184.3 18.6104H190.5V31.2104H188.34V26.6204H185.5L182.4 31.2104ZM149.68 27.5004C149.566 27.7507 149.432 27.9915 149.28 28.2204C148.998 28.6244 148.62 28.9525 148.18 29.1758C147.741 29.399 147.253 29.5105 146.76 29.5004C146.268 29.5219 145.778 29.4175 145.337 29.197C144.896 28.9765 144.518 28.6473 144.24 28.2404C143.606 27.2823 143.291 26.1483 143.34 25.0004C143.257 23.8489 143.575 22.7041 144.24 21.7604C144.525 21.3601 144.904 21.0359 145.343 20.8162C145.782 20.5965 146.269 20.488 146.76 20.5004C147.253 20.4789 147.742 20.5833 148.183 20.8038C148.624 21.0243 149.002 21.3535 149.28 21.7604C149.52 22.1115 149.714 22.4911 149.86 22.8904H152.2C151.971 21.9109 151.508 21.0016 150.85 20.2404C150.332 19.6716 149.698 19.2209 148.991 18.9189C148.283 18.617 147.519 18.4708 146.75 18.4904C145.98 18.4606 145.212 18.6021 144.503 18.9047C143.794 19.2074 143.161 19.6636 142.65 20.2404C141.563 21.5891 140.99 23.2789 141.03 25.0104C140.959 26.7463 141.537 28.4465 142.65 29.7804C143.167 30.351 143.801 30.8036 144.508 31.1073C145.216 31.411 145.98 31.5587 146.75 31.5404C147.521 31.569 148.289 31.4259 148.998 31.1215C149.707 30.8171 150.34 30.3591 150.85 29.7804C151.422 29.1213 151.839 28.3421 152.07 27.5004H149.68ZM162.5 27.5004C162.386 27.7507 162.252 27.9915 162.1 28.2204C161.81 28.636 161.42 28.9713 160.965 29.1952C160.51 29.419 160.006 29.524 159.5 29.5004C159.008 29.5219 158.518 29.4175 158.077 29.197C157.636 28.9765 157.258 28.6473 156.98 28.2404C156.346 27.2823 156.031 26.1483 156.08 25.0004C155.997 23.8489 156.315 22.7041 156.98 21.7604C157.265 21.3601 157.644 21.0359 158.083 20.8162C158.522 20.5965 159.009 20.488 159.5 20.5004C159.993 20.4789 160.482 20.5833 160.923 20.8038C161.364 21.0243 161.742 21.3535 162.02 21.7604C162.26 22.1115 162.454 22.4911 162.6 22.8904H164.94C164.711 21.9109 164.248 21.0016 163.59 20.2404C163.072 19.6716 162.438 19.2209 161.731 18.9189C161.023 18.617 160.259 18.4708 159.49 18.4904C158.72 18.4606 157.952 18.6021 157.243 18.9047C156.534 19.2074 155.901 19.6636 155.39 20.2404C154.303 21.5891 153.73 23.2789 153.77 25.0104C153.699 26.7463 154.277 28.4465 155.39 29.7804C155.912 30.3451 156.549 30.7909 157.258 31.0877C157.967 31.3844 158.732 31.5252 159.5 31.5004C160.271 31.529 161.039 31.3859 161.748 31.0815C162.457 30.7771 163.09 30.3191 163.6 29.7404C164.178 29.0958 164.605 28.3306 164.85 27.5004H162.5ZM52.3498 23.7404V23.1104C51.8098 19.1104 48.1199 15.1104 44.8799 13.6104C42.8612 12.5944 40.6887 11.9186 38.4499 11.6104C36.7946 11.4352 35.1814 10.9787 33.6798 10.2604C33.5498 10.1704 33.4099 10.1204 33.2699 10.0404C33.1439 9.97733 33.0235 9.90374 32.9098 9.82043C32.18 9.26084 31.5098 8.62749 30.9098 7.93043C30.5353 7.49897 30.2224 7.01773 29.9798 6.50043L29.7998 6.19043V23.9204H31.6899V11.3604C32.0159 11.6729 32.3786 11.9449 32.7699 12.1704C34.3 12.8548 35.9252 13.3033 37.5898 13.5004C39.5885 13.8018 41.5495 14.3147 43.4398 15.0304C47.5798 16.9204 50.1498 21.3304 50.4398 23.8104V26.9604H33.2699V35.7804C33.8498 35.7804 34.2698 35.7804 34.8498 35.6904H34.9798V28.6904H52.3498V23.7804" fill="#CD1F45"/>
<path d="M65.3599 29.3204H68.4999C69.0759 29.3467 69.6405 29.1537 70.0799 28.7804C70.2519 28.6275 70.3891 28.4394 70.4822 28.229C70.5754 28.0185 70.6223 27.7905 70.6199 27.5604C70.6206 27.3009 70.5687 27.0439 70.4673 26.805C70.3659 26.5661 70.2171 26.3502 70.0299 26.1704C69.5283 25.7942 68.904 25.6194 68.2799 25.6804H65.3099L65.3599 29.3204ZM63.1499 31.2504V18.6104H71.8399V20.6804H65.3999V23.7404H68.2399C69.441 23.5763 70.6601 23.865 71.6599 24.5504C72.0823 24.9145 72.4182 25.3683 72.6431 25.8786C72.868 26.3889 72.9762 26.943 72.9599 27.5004C72.9751 28.022 72.8785 28.5408 72.6767 29.0219C72.4749 29.5031 72.1726 29.9356 71.7899 30.2904C70.8729 31.017 69.717 31.3738 68.5499 31.2904L63.1499 31.2504ZM80.3399 21.4404C80.2323 21.0576 80.1587 20.6661 80.1199 20.2704C80.0852 20.6474 80.0251 21.0215 79.9399 21.3904L78.1899 27.2804H82.0599L80.3499 21.4304L80.3399 21.4404ZM83.3399 31.2104L82.7099 29.2104H77.5999L77.0099 31.2104H74.8099L78.8099 18.6104H81.4999L85.6399 31.2104H83.3399ZM87.8399 18.6104H90.0399V23.7404H95.6699V18.6104H97.7999V31.2504H95.6399V25.6704H90.0099V31.2504H87.8099L87.8399 18.6104Z" fill="#073D59"/>
<path d="M107.56 18.6504H110.26L104.69 24.5004L110.69 31.2504H107.94L102.5 25.4504V31.2604H100.3V18.6504H102.5V23.8304L107.5 18.6504H107.56Z" fill="#073D59"/>
<path d="M29.85 27.5004C28.1734 27.572 26.5032 27.7523 24.85 28.0404C23.8958 28.2194 22.9513 28.4464 22.02 28.7204C21.5778 28.8434 21.1436 28.9937 20.72 29.1704C20.54 28.7204 20.45 28.3104 20.32 27.8604V27.6804C20.1672 27.0219 20.0603 26.3537 20 25.6804H29.85V27.5004ZM29.85 36.6304H29.76C29.4 36.5404 29.04 36.4904 28.68 36.4004C27.8686 36.1893 27.0837 35.8874 26.34 35.5004C25.8492 35.2607 25.3835 34.9726 24.95 34.6404C23.8461 33.8726 22.8878 32.9143 22.12 31.8104C21.94 31.5404 21.8 31.3204 21.67 31.0904C21.76 31.0904 21.85 31.0904 21.94 31.0004C22.03 30.9104 22.07 31.0004 22.12 31.0004C23.0493 30.6947 23.9939 30.4376 24.95 30.2304C26.5835 29.9158 28.238 29.722 29.9 29.6504L29.85 36.6304ZM22.07 35.1004C21.4373 34.8686 20.8195 34.5981 20.22 34.2904L19.95 34.2004L18.42 33.3904C18.42 33.3904 18.29 33.3904 18.24 33.3004C18.2933 33.2298 18.337 33.1525 18.37 33.0704L18.5 32.8904C18.7999 32.593 19.1358 32.3343 19.5 32.1204H19.63C19.6594 32.129 19.6906 32.129 19.72 32.1204C19.81 32.2104 19.85 32.3504 19.94 32.4404L20.17 32.8004C20.7231 33.6005 21.3419 34.3531 22.02 35.0504C22.11 35.1404 22.2 35.2804 22.29 35.3704C22.2 35.2304 22.11 35.1904 22.07 35.1904V35.1004ZM16.98 31.5004L16.58 32.0404C16.2885 31.8074 16.0175 31.5498 15.77 31.2704C14.1109 29.816 13.0111 27.8286 12.66 25.6504H17.84C17.932 26.7004 18.1127 27.7408 18.38 28.7604C18.4821 29.2121 18.633 29.6513 18.83 30.0704C18.83 30.0704 18.7 30.1604 18.65 30.2004L18.43 30.3304C17.908 30.6699 17.4222 31.062 16.98 31.5004ZM12.98 22.2304C13.2687 21.3943 13.6798 20.6058 14.2 19.8904C14.6563 19.2622 15.1683 18.6765 15.73 18.1404C15.8382 18.0212 15.9589 17.9139 16.09 17.8204C16.1838 17.72 16.2877 17.6295 16.4 17.5504C16.9549 18.2287 17.6336 18.7954 18.4 19.2204H18.49C18.5909 19.2901 18.698 19.3503 18.81 19.4004C18.68 19.7604 18.54 20.1704 18.41 20.5704V20.7104C18.32 21.0304 18.23 21.3404 18.14 21.7104C18.008 22.3707 17.9178 23.0387 17.87 23.7104H12.66C12.7166 23.2038 12.8376 22.7064 13.02 22.2304H12.98ZM18.2 16.2304C18.2998 16.1865 18.3911 16.1256 18.47 16.0504C19.01 15.7304 19.55 15.4704 20.14 15.1504H20.27L21.71 14.5004C21.851 14.4591 21.9856 14.3985 22.11 14.3204H22.24L22.06 14.5004C21.3668 15.184 20.7468 15.9381 20.21 16.7504L19.94 17.1504C19.8769 17.2764 19.8033 17.3968 19.72 17.5104C19.2745 17.2549 18.8644 16.9423 18.5 16.5804C18.3664 16.46 18.2457 16.3259 18.14 16.1804C18.14 16.2704 18.14 16.2704 18.14 16.1804L18.2 16.2304ZM51.58 30.1304H36.38V31.9304H46.77C46.3626 32.3005 45.9244 32.635 45.46 32.9304C41.3361 35.4613 36.5781 36.7688 31.74 36.7004V25.7004H49.2V23.7404H19.9C19.9 23.2004 20.03 22.7404 20.12 22.1704C20.1718 21.9947 20.202 21.8134 20.21 21.6304C20.326 21.1535 20.4764 20.6856 20.66 20.2304L20.93 20.3204C21.29 20.4504 21.65 20.5404 22.01 20.6804C22.9369 20.9712 23.8871 21.1819 24.85 21.3104H25.12C25.84 21.4404 26.65 21.5804 27.6 21.6704L29.85 21.8004V19.7804C29.1581 19.7776 28.4669 19.7342 27.78 19.6504C26.9943 19.591 26.2128 19.4842 25.44 19.3304C25.2566 19.3262 25.0748 19.2959 24.9 19.2404C23.9386 19.0688 22.9923 18.8213 22.07 18.5004C21.94 18.5004 21.84 18.5004 21.71 18.4104C21.58 18.3204 21.62 18.4104 21.58 18.4104C21.6837 18.2074 21.8041 18.0134 21.94 17.8304C21.94 17.7404 22.03 17.7004 22.07 17.6004C22.8245 16.4826 23.7849 15.5188 24.9 14.7604C26.3125 13.7313 27.9459 13.0465 29.67 12.7604H29.85V10.6004H29.72C29.6618 10.5798 29.5982 10.5798 29.54 10.6004C27.9965 10.6967 26.4623 10.9072 24.95 11.2304C23.9876 11.4288 23.0416 11.6995 22.12 12.0404C21.54 12.2204 20.95 12.4404 20.27 12.7204C19.77 12.9404 19.19 13.2204 18.52 13.5704C17.5714 14.075 16.668 14.6605 15.82 15.3204C14.6036 16.2382 13.5287 17.3298 12.63 18.5604C11.9851 19.4657 11.467 20.4548 11.09 21.5004C10.706 22.5239 10.5062 23.6073 10.5 24.7004C10.5 28.0804 12.34 31.3604 15.68 33.9704C15.86 34.1004 16.08 34.2404 16.27 34.3804C16.46 34.5204 16.67 34.6504 16.86 34.7904L17.99 35.4604C18.12 35.5504 18.26 35.6004 18.39 35.6904C18.89 35.9604 19.39 36.1804 19.92 36.4104L20.14 36.5004C20.68 36.7304 21.27 36.9504 21.99 37.2204C22.9367 37.5337 23.88 37.8037 24.82 38.0304C27.0529 38.5219 29.3336 38.7634 31.62 38.7504C36.9162 38.8583 42.1289 37.4196 46.62 34.6104C47.3938 34.127 48.1174 33.5676 48.78 32.9404C49.32 32.4504 50.94 30.8204 51.48 30.1504H51.62L51.58 30.1304Z" fill="#073D59"/>
</svg>
