<svg width="200" height="50" viewBox="0 0 200 50" fill="none" xmlns="http://www.w3.org/2000/svg">
<path d="M45.5677 15.0864H25V35.6541H45.5677V15.0864Z" fill="#335497"/>
<path d="M44.4263 16.3149H26.2754V34.7127H44.4263V16.3149Z" fill="white"/>
<path d="M26.625 16.7627H44.0715V34.2452H26.625V16.7627Z" fill="#335497"/>
<path d="M27.1649 20.4491H28.62V17.6313H43.2539V33.5198H28.5943V32.6766H27.1392L27.1649 20.4491Z" fill="white"/>
<path d="M27.8643 21.1025H33.5513C31.7053 22.9227 29.8851 24.7378 28.07 26.5529C29.8851 28.4194 31.7053 30.2859 33.5513 32.1473H27.8643V21.1025Z" fill="#335497"/>
<path d="M34.7387 21.0664H35.9059C33.9931 22.8815 32.07 24.7171 30.1675 26.5476C32.07 28.4296 33.9931 30.3115 35.9059 32.2037H34.7387C32.8122 30.3218 30.8976 28.4364 28.9951 26.5476C30.9131 24.7171 32.8104 22.8815 34.7387 21.0664ZM36.5023 23.3547H42.4567V32.1731H36.5023V32.0754C36.6325 32.0835 36.763 32.0835 36.8931 32.0754C39.6543 32.0908 41.9168 30.4454 41.9168 28.3886C41.9168 26.3319 39.6543 24.6607 36.8931 24.6607H36.5023V23.3547Z" fill="#335497"/>
<path d="M64.6135 33.7309L64.85 35.6642L65.0351 35.8596H65.1688C65.4593 35.8391 65.7304 35.7063 65.9247 35.4894C66.179 35.1888 66.3681 34.8386 66.48 34.461L63.1018 27.1389L62.4231 26.9744V26.0334H66.2743V26.9744L65.7242 27.0412L65.5905 27.2829L67.6164 31.7358L69.0098 27.4115L68.9019 27.1235L68.2746 26.9744V26.0334H71.0203V26.9744L70.429 27.1235L68.0843 34.0085C67.8524 34.9005 67.4218 35.7285 66.8245 36.4304C66.5968 36.6686 66.3219 36.8566 66.0173 36.9823C65.7127 37.1081 65.3851 37.1687 65.0557 37.1605C64.4792 37.1457 63.9134 37.0016 63.4 36.7389V33.7309H64.6135ZM79.7206 26.0334V29.2985H78.4762L78.2654 27.3292L78.0546 27.1389H75.5916V30.6303C76.0315 30.5714 76.4745 30.5388 76.9182 30.5326C77.7901 30.478 78.6527 30.737 79.3504 31.2627C79.7036 31.5723 79.9804 31.9595 80.1588 32.394C80.3372 32.8285 80.4125 33.2984 80.3787 33.7669C80.4235 34.6046 80.1372 35.4263 79.5817 36.055C79.2451 36.3612 78.8505 36.5967 78.4213 36.7477C77.9921 36.8987 77.5369 36.9622 77.0828 36.9343H72.4088V35.9933L73.0258 35.9265L73.2366 35.6179V27.2829L73.0258 27.0412L72.4088 26.9744V26.0334H79.7206ZM75.607 35.8031C75.8084 35.827 76.0111 35.8373 76.2138 35.8339C76.4577 35.8615 76.7047 35.8291 76.9332 35.7395C77.1617 35.6498 77.3648 35.5058 77.525 35.3197C77.8345 34.8797 77.9768 34.3436 77.926 33.808C77.9743 33.1947 77.7909 32.5855 77.4119 32.1009C77.2732 31.9522 77.1025 31.837 76.9128 31.764C76.723 31.691 76.5192 31.662 76.3166 31.6792C76.0699 31.6776 75.8241 31.7104 75.5865 31.7769L75.607 35.8031ZM87.022 26.0334L90.1072 35.8596L90.6985 35.9933V36.9343H86.842V35.9933L87.5259 35.911L87.6288 35.7002L86.9295 33.2784H84.1117L83.4484 35.6848L83.5821 35.875L84.2042 35.9933V36.9343H81.4585V35.9933L82.096 35.9265L85.1298 26.0334H87.022ZM84.4099 32.2037H86.5335L85.4589 28.6044L84.4099 32.2037ZM96.2518 26.0334V26.9744L95.6811 27.0412L95.4651 27.2829V30.6149H98.7714V27.2829L98.5605 27.0412L97.9846 26.9744V26.0334H101.944V26.9744L101.337 27.0412L101.131 27.2829V35.6179L101.337 35.9265L101.944 35.9933V36.9343H97.9846V35.9933L98.5605 35.9265L98.7714 35.6179V31.8181H95.4651V35.6179L95.6811 35.9265L96.2518 35.9933V36.9343H92.2977V35.9933L92.8839 35.9265L93.1101 35.6179V27.2829L92.8839 27.0412L92.2977 26.9744V26.0334H96.2518ZM107.816 26.0334V26.9744L107.142 27.0412L106.916 27.2829V30.3681C107.383 30.3069 107.853 30.2743 108.325 30.2704C108.783 30.2266 109.245 30.2859 109.677 30.4438C110.109 30.6018 110.501 30.8544 110.823 31.1833C111.145 31.5121 111.389 31.9088 111.538 32.3442C111.686 32.7797 111.736 33.243 111.682 33.7C111.735 34.559 111.449 35.4044 110.885 36.055C110.549 36.3616 110.155 36.5975 109.725 36.7486C109.296 36.8996 108.841 36.9628 108.386 36.9343H103.759V35.9933L104.371 35.9265L104.587 35.6179V27.2829L104.371 27.0412L103.759 26.9744V26.0334H107.816ZM106.916 35.8031C107.08 35.8031 107.291 35.8339 107.528 35.8339C107.771 35.8584 108.017 35.8246 108.245 35.7352C108.473 35.6458 108.677 35.5034 108.839 35.3197C109.137 34.8629 109.276 34.3209 109.235 33.7771C109.277 33.1416 109.114 32.5094 108.772 31.9723C108.632 31.815 108.458 31.6923 108.262 31.6138C108.067 31.5353 107.856 31.5031 107.646 31.5198C107.399 31.5159 107.153 31.5489 106.916 31.6175V35.8031ZM127.119 35.9933L127.746 35.9265L128.003 35.6179V27.2829L127.828 27.0412L127.119 26.9744V26.0334H131.181C132.677 26.0334 133.376 26.4036 133.68 26.6196C134.569 27.2161 134.883 28.1622 134.883 29.3294C134.917 29.8207 134.852 30.3138 134.693 30.78C134.534 31.2461 134.284 31.6759 133.957 32.0443C133.576 32.3906 133.13 32.6568 132.644 32.8273C132.158 32.9978 131.643 33.069 131.129 33.0367C130.868 33.036 130.607 33.0188 130.348 32.9853V35.6179L130.543 35.9265L131.304 35.9933V36.9343H127.119V35.9933ZM130.358 31.8798H130.466C130.715 31.8994 130.965 31.8691 131.201 31.7905C131.438 31.7119 131.656 31.5866 131.844 31.4221C132.259 30.8668 132.46 30.1803 132.41 29.4888C132.424 28.9353 132.315 28.3855 132.091 27.8794C131.986 27.6526 131.817 27.4613 131.605 27.3289C131.393 27.1965 131.148 27.1287 130.898 27.1338H130.358V31.8798ZM136.322 35.9933L136.996 35.9265L137.207 35.6179V27.2829L136.996 27.0412L136.322 26.9744V26.0334H143.166V28.7432H142.246L142.035 27.3138L141.85 27.1389H139.505V30.7228H140.899L141.094 30.5017L141.228 29.3294H142.169V33.3247H141.228L141.094 32.1574L140.899 31.9312H139.505V35.8288H142.256L142.446 35.5665L142.657 33.7823H143.578V36.9343H136.322V35.9933ZM154.067 26.0334V26.9744L153.465 27.0412L153.25 27.2829V35.6334L153.414 35.8288H154.17V38.6722H153.064L152.72 37.2171L152.535 36.9549H146.688L146.503 37.2171L146.159 38.6722H145.064V35.8288H145.506C146.294 34.4927 146.909 33.0621 147.336 31.5713C147.729 30.1937 148 28.7846 148.149 27.36L147.938 27.1184L147.038 26.9898V26.0334H154.067ZM150.895 35.8031V27.1389H149.414C149.252 28.8601 148.923 30.5615 148.432 32.2191C148.042 33.4686 147.525 34.6747 146.889 35.8185L150.895 35.8031ZM159.816 26.0334V26.9744L159.24 27.0412L159.029 27.2829V33.2784L162.551 27.7405V27.2829L162.336 27.0412L161.76 26.9744V26.0334H165.719V26.9744L165.112 27.0412L164.901 27.2829V35.6179L165.112 35.9265L165.719 35.9933V36.9343H161.76V35.9933L162.336 35.9265L162.551 35.6179V29.4939L159.029 35.0369V35.6179L159.24 35.9265L159.816 35.9933V36.9343H155.857V35.9933L156.448 35.9265L156.669 35.6179V27.2829L156.448 27.0412L155.857 26.9744V26.0334H159.816ZM175 26.0334V28.8049H174.11L173.828 27.3292L173.591 27.1389H172.331V35.6179L172.588 35.9265L173.257 35.9933V36.9343H169.056V35.9933L169.724 35.9265L169.982 35.6179V27.1389H168.696L168.465 27.3292L168.202 28.8049H167.308V26.0334H175ZM60.6903 35.9265L60.4795 35.5048L58.2787 29.8539L60.4435 27.0412L60.9937 26.9744V26.0334H58.0371V26.9744L58.3044 27.1235L58.4124 27.4166L55.4764 31.1342V27.2829L55.6872 27.0412L56.2374 26.9744V26.0334H52.2524V26.9744L52.9054 27.0412L53.1214 27.2829V35.6179L52.9054 35.9265L52.2524 35.9933V36.9343H56.2374V35.9933L55.6872 35.9265L55.4764 35.6179V33.4892L56.5253 32.1317L58.433 36.9343H61.2405V35.9933L60.6903 35.9265ZM125.149 35.9265L124.933 35.5048L122.738 29.8539L124.902 27.0412L125.668 26.9744V26.0334H122.496V26.9744L122.763 27.1235L122.871 27.4166L119.93 31.1342V27.2829L120.146 27.0412L120.696 26.9744V26.0334H116.711V26.9744L117.364 27.0412L117.58 27.2829V35.6179L117.364 35.9265L116.711 35.9933V36.9343H120.696V35.9933L120.146 35.9265L119.93 35.6179V33.4892L120.979 32.1317L122.892 36.9343H125.915V35.9933L125.149 35.9265ZM52.2524 20.2694L52.9054 20.2334L53.0597 20.0483V14.9835L52.9054 14.8344L52.2524 14.7984V14.2225H55.5484V14.7984L54.9776 14.8344L54.8182 14.9835V17.0763H55.2604C55.4662 17.0882 55.6698 17.0282 55.8363 16.9066C56.0102 16.7431 56.1424 16.5403 56.222 16.3153L56.6179 15.364C56.7391 14.9687 56.9647 14.6135 57.2709 14.3357C57.4977 14.1406 57.7895 14.0378 58.0885 14.0477C58.2374 14.0375 58.3867 14.0598 58.5261 14.113C58.6655 14.1663 58.7916 14.2493 58.8958 14.3562C59.0465 14.5156 59.1279 14.7282 59.122 14.9475C59.1325 15.1736 59.0564 15.3952 58.9093 15.5671C58.7622 15.7391 58.5551 15.8485 58.3301 15.8731L57.5229 15.1841C57.4384 15.3163 57.3694 15.4578 57.3172 15.6057L57.0035 16.4078C56.9523 16.6016 56.8608 16.7823 56.735 16.9382C56.6092 17.0942 56.4519 17.2218 56.2734 17.3128C56.5938 17.3723 56.8912 17.5201 57.1321 17.7396C57.4147 17.999 57.6406 18.3141 57.7954 18.6651L58.4021 20.002L58.5872 20.1563L59.2865 20.2129V20.7888H56.7156V20.4031L55.9237 18.6189C55.8487 18.4042 55.7316 18.2066 55.5792 18.0378C55.5108 17.9733 55.4299 17.9235 55.3414 17.8917C55.2529 17.8598 55.1589 17.8466 55.065 17.8527H54.7976V20.074L54.957 20.2591L55.5278 20.2951V20.871H52.2524V20.2694ZM65.4104 14.7829C65.8108 15.1029 66.1364 15.5064 66.3645 15.9654C66.5926 16.4243 66.7176 16.9275 66.7309 17.4399C66.7441 17.9522 66.6452 18.4612 66.4411 18.9313C66.237 19.4014 65.9326 19.8212 65.5492 20.1614C64.8345 20.7217 63.948 21.0178 63.04 20.9995C62.1932 21.019 61.3648 20.7507 60.6901 20.2385C60.2901 19.9046 59.9719 19.4835 59.7598 19.0076C59.5477 18.5316 59.4473 18.0134 59.4664 17.4927C59.4478 16.981 59.5488 16.472 59.7612 16.0061C59.9736 15.5402 60.2917 15.1302 60.6901 14.8086C61.4042 14.2993 62.2661 14.0391 63.1428 14.0682C63.9544 14.0503 64.7499 14.2957 65.4104 14.7675V14.7829ZM62.0065 15.4051C61.6011 16.05 61.4037 16.8039 61.4408 17.5647C61.3962 18.3195 61.6023 19.0679 62.027 19.6935C62.1508 19.869 62.3149 20.0125 62.5054 20.1117C62.6959 20.211 62.9074 20.2633 63.1223 20.2642C63.3257 20.2658 63.5268 20.2202 63.7097 20.131C63.8926 20.0418 64.0524 19.9114 64.1764 19.75C64.6006 19.0819 64.8072 18.2986 64.7677 17.5082C64.8181 16.7854 64.6381 16.0653 64.2535 15.4514C64.1258 15.2621 63.9534 15.1073 63.7516 15.0006C63.5498 14.8938 63.3248 14.8385 63.0965 14.8395C62.8827 14.8389 62.6719 14.8901 62.4821 14.9886C62.2923 15.0871 62.1291 15.23 62.0065 15.4051ZM67.3491 20.2746L68.0432 20.2335L68.1615 20.0484V14.9836L68.0432 14.8345L67.3491 14.7985V14.2226H70.5371V14.5105L71.9048 18.6446L73.252 14.5002V14.2226H76.4503V14.7985L75.715 14.8345L75.5916 14.9836V20.0484L75.715 20.2335L76.4503 20.2746V20.8454H73.252V20.2746L73.869 20.2335L73.9564 20.0484V14.9527H73.9359L72.0025 20.8454H71.005L69.0665 14.9527H69.0511V20.0484L69.1693 20.2335L69.8172 20.2746V20.8454H67.3491V20.2746ZM76.9541 20.2746L77.6482 20.2335L77.7613 20.0484V14.9836L77.6482 14.8345L76.9541 14.7985V14.2226H80.142V14.5105L81.5047 18.6446L82.857 14.5002V14.2226H86.0552V14.7985L85.3148 14.8345L85.1965 14.9836V20.0484L85.3148 20.2335L86.0552 20.2746V20.8454H82.857V20.2746L83.4689 20.2335L83.5563 20.0484V14.9527H83.5409L81.6024 20.8454H80.61L78.6715 14.9527H78.6509V20.0484L78.7743 20.2335L79.4222 20.2746V20.8454H76.9541V20.2746ZM86.6054 20.2746L87.2636 20.2335L87.423 20.0484V14.9836L87.2636 14.8345L86.6054 14.7985V14.2226H92.0353V15.868H91.1869L91.0275 15.0041L90.8886 14.8962H89.1455V17.0763H90.1791L90.3282 16.9375L90.4259 16.2228H91.1303V18.6549H90.4259L90.3282 17.9402L90.1791 17.8065H89.1455V20.1769H91.1972L91.336 20.0175L91.4902 18.9326H92.3387V20.8454H86.6054V20.2746ZM92.9556 20.2694L93.583 20.2334L93.7732 20.0483V14.9835L93.6447 14.8344L92.9556 14.7984V14.2225H96.1488C96.7912 14.1764 97.4346 14.2987 98.0153 14.5773C98.3091 14.7343 98.5507 14.9736 98.7105 15.2659C98.8703 15.5582 98.9414 15.8907 98.9151 16.2228C98.9313 16.5324 98.8773 16.8417 98.7571 17.1275C98.6369 17.4134 98.4536 17.6683 98.221 17.8733C97.6063 18.31 96.8602 18.5224 96.1076 18.4749C95.9135 18.475 95.7196 18.4647 95.5266 18.4441V20.0483L95.6757 20.2334L96.4059 20.2694V20.8453H92.9556V20.2694ZM95.5266 17.7756H95.6089C95.9735 17.8054 96.3372 17.7072 96.6373 17.4979C96.7877 17.3442 96.9036 17.16 96.9772 16.9578C97.0508 16.7557 97.0804 16.5401 97.064 16.3256C97.0745 15.9846 96.9927 15.6471 96.8275 15.3486C96.7328 15.201 96.6005 15.0812 96.4441 15.0017C96.2878 14.9222 96.1131 14.8857 95.938 14.8961H95.5317L95.5266 17.7756ZM102.278 14.2226V14.7985L101.764 14.8345L101.604 14.9836V16.305C101.57 16.6131 101.642 16.9236 101.81 17.1843C101.911 17.2925 102.035 17.376 102.173 17.4286C102.311 17.4812 102.46 17.5014 102.607 17.4877C102.993 17.4784 103.374 17.4019 103.733 17.2614V14.9836L103.569 14.8345L103.054 14.7985V14.2226H106.289V14.7985L105.677 14.8345L105.517 14.9836V20.0484L105.677 20.2335L106.289 20.2695V20.8454H102.88V20.2695L103.615 20.2335L103.759 20.0484V17.9916C103.216 18.1314 102.659 18.2073 102.098 18.2178C101.777 18.248 101.453 18.2114 101.147 18.1106C100.841 18.0097 100.559 17.8467 100.319 17.6317C100.025 17.2461 99.8939 16.7605 99.954 16.2793V14.9836L99.7844 14.8345L99.2445 14.7985V14.2226H102.278ZM106.803 20.2746L107.461 20.2335L107.615 20.0484V14.9836L107.461 14.8345L106.803 14.7985V14.2226H112.228V15.868H111.374L111.22 15.0041L111.081 14.8962H109.333V17.0763H110.371L110.52 16.9375L110.618 16.2228H111.317V18.6549H110.618L110.52 17.9402L110.371 17.8065H109.333V20.1769H111.389L111.523 20.0175L111.683 18.9326H112.536V20.8454H106.803V20.2746ZM119.169 20.6087C118.487 20.8512 117.769 20.9781 117.045 20.9841C116.552 21.0176 116.056 20.952 115.588 20.7913C115.12 20.6306 114.689 20.378 114.32 20.0482C113.938 19.6865 113.645 19.2416 113.462 18.7481C113.28 18.2546 113.214 17.7258 113.269 17.2026C113.325 16.6795 113.5 16.1761 113.781 15.7315C114.062 15.2869 114.442 14.913 114.891 14.6389C115.558 14.2468 116.324 14.0574 117.097 14.0939C117.801 14.0997 118.498 14.2339 119.153 14.4898V16.2792H118.243L118.007 15.0606L117.837 14.9063C117.669 14.8619 117.496 14.8411 117.323 14.8446C117.061 14.8374 116.801 14.8828 116.557 14.9782C116.313 15.0736 116.091 15.217 115.904 15.3999C115.646 15.6863 115.448 16.0211 115.321 16.3848C115.194 16.7485 115.14 17.1338 115.163 17.5184C115.133 18.2133 115.329 18.8993 115.724 19.4723C115.915 19.7128 116.158 19.9065 116.435 20.0384C116.712 20.1703 117.016 20.237 117.323 20.2333C117.503 20.2333 117.729 20.2025 117.837 20.1922L117.991 20.0482L118.243 18.7628H119.153L119.169 20.6087ZM119.868 20.2694L120.516 20.2334L120.676 20.0483V14.9835L120.516 14.8344L119.868 14.7984V14.2225H123.164V14.7984L122.588 14.8344L122.429 14.9835V17.0763H122.876C123.081 17.0878 123.282 17.0278 123.447 16.9066C123.623 16.7444 123.755 16.5413 123.833 16.3153L124.229 15.364C124.352 14.9697 124.577 14.6149 124.882 14.3357C125.109 14.1414 125.4 14.0388 125.699 14.0477C125.848 14.0375 125.997 14.0598 126.137 14.113C126.276 14.1663 126.402 14.2493 126.507 14.3562C126.583 14.434 126.643 14.5265 126.683 14.6282C126.723 14.7298 126.741 14.8385 126.738 14.9475C126.747 15.1733 126.671 15.3942 126.524 15.5659C126.377 15.7376 126.171 15.8473 125.946 15.8731L125.139 15.1841C125.048 15.3128 124.979 15.4552 124.933 15.6057L124.614 16.4078C124.393 16.9529 124.182 17.1894 123.884 17.3128C124.205 17.3712 124.503 17.5192 124.743 17.7396C125.026 17.9975 125.25 18.3131 125.401 18.6651L126.018 20.002L126.203 20.1563L126.897 20.2129V20.7888H124.326V20.4031L123.519 18.6189C123.442 18.4051 123.325 18.208 123.175 18.0378C123.106 17.974 123.025 17.9248 122.936 17.893C122.848 17.8612 122.754 17.8475 122.66 17.8527H122.393V20.074L122.552 20.2591L123.128 20.2951V20.871H119.868V20.2694ZM130.425 14.2226V14.7985L129.833 14.8345L129.674 14.9836V18.624L132.302 15.2561V14.9836L132.142 14.8345L131.551 14.7985V14.2226H134.826V14.7985L134.214 14.8345L134.06 14.9836V20.0484L134.214 20.2335L134.826 20.2746V20.8454H131.551V20.2746L132.142 20.2335L132.302 20.0484V16.3256L129.674 19.6936V20.0484L129.833 20.2335L130.425 20.2746V20.8454H127.149V20.2746L127.751 20.2335L127.916 20.0484V14.9836L127.751 14.8345L127.149 14.7985V14.2226H130.425ZM138.657 14.2225V14.7984L138.066 14.8344L137.906 14.9835V18.6188L140.534 15.2509V14.9784L140.374 14.8292L139.783 14.7933V14.2225H143.058V14.7984L142.447 14.8344L142.287 14.9835V20.0483L142.447 20.2334L143.058 20.2694V20.8453H139.783V20.2694L140.374 20.2334L140.534 20.0483V16.3255L137.906 19.6935V20.0483L138.066 20.2334L138.657 20.2694V20.8453H135.382V20.2694L135.983 20.2334L136.148 20.0483V14.9835L135.983 14.8344L135.382 14.7984V14.2225H138.657ZM138.41 13.0861C138.945 13.189 139.495 13.189 140.03 13.0861V12.2377C140.221 12.0735 140.467 11.9888 140.719 12.0012C141.31 12.0012 141.547 12.3457 141.547 12.6748C141.543 12.8476 141.49 13.0157 141.392 13.1583C141.294 13.3008 141.157 13.4116 140.997 13.4769C139.843 13.8608 138.597 13.8608 137.443 13.4769C137.284 13.4122 137.146 13.3024 137.047 13.1609C136.949 13.0194 136.894 12.8523 136.888 12.6799C136.888 12.3508 137.13 12.0063 137.721 12.0063C137.973 11.995 138.219 12.0795 138.41 12.2429V13.0861ZM151.527 14.2226V16.2073H150.597L150.442 15.0093L150.283 14.8962H148.447V17.0146C148.73 16.9889 149.136 16.9581 149.434 16.9581C150.07 16.9209 150.702 17.0749 151.25 17.4003C151.5 17.5679 151.702 17.799 151.833 18.0701C151.965 18.3411 152.023 18.6423 152 18.9428C152.012 19.205 151.964 19.4664 151.861 19.7076C151.758 19.9488 151.601 20.1637 151.404 20.3363C150.861 20.7161 150.203 20.8976 149.542 20.8505H145.907V20.2695L146.529 20.2335L146.689 20.0484V14.9836L146.529 14.8345L145.907 14.7985V14.2226H151.527ZM148.442 20.1666C148.593 20.1759 148.744 20.1759 148.895 20.1666C149.071 20.1834 149.25 20.1628 149.418 20.1061C149.586 20.0494 149.741 19.9579 149.872 19.8375C149.982 19.7132 150.065 19.567 150.116 19.4085C150.166 19.2499 150.183 19.0825 150.165 18.9171C150.183 18.7295 150.159 18.5401 150.096 18.3625C150.033 18.1848 149.932 18.0231 149.8 17.8888C149.573 17.6989 149.281 17.6065 148.987 17.6317C148.804 17.6302 148.621 17.6492 148.442 17.6882V20.1666ZM156.51 14.1711L158.803 20.1922L159.4 20.2694V20.8453H156.201V20.2694L156.875 20.2231L156.957 20.0945L156.443 18.624H154.319L153.805 20.0843L153.903 20.2025L154.535 20.2694V20.8453H152.155V20.2694L152.797 20.2334L155.055 14.1711H156.51ZM154.566 17.9658H156.145L155.348 15.7805L154.566 17.9658ZM162.814 14.2226V14.7985L162.222 14.8345L162.063 14.9836V17.0043H164.531V14.9836L164.377 14.8345L163.78 14.7985V14.2226H167.056V14.7985L166.449 14.8345L166.29 14.9836V20.0484L166.449 20.2335L167.056 20.2746V20.8454H163.78V20.2746L164.377 20.2335L164.531 20.0484V17.7396H162.063V20.0484L162.222 20.2335L162.814 20.2746V20.8454H159.538V20.2746L160.14 20.2335L160.304 20.0484V14.9836L160.14 14.8345L159.538 14.7985V14.2226H162.814ZM167.611 20.2694L168.259 20.2334L168.424 20.0483V14.9835L168.259 14.8344L167.611 14.7984V14.2225H170.907V14.7984L170.336 14.8344L170.177 14.9835V17.0763H170.619C170.825 17.0882 171.029 17.0282 171.195 16.9066C171.369 16.7441 171.5 16.5409 171.576 16.3153L171.971 15.364C172.095 14.9697 172.32 14.6149 172.624 14.3357C172.852 14.1423 173.143 14.0398 173.442 14.0477C173.592 14.0367 173.742 14.0586 173.882 14.1119C174.023 14.1652 174.15 14.2486 174.254 14.3562C174.405 14.5156 174.487 14.7283 174.481 14.9475C174.491 15.1736 174.415 15.3952 174.268 15.5671C174.121 15.7391 173.914 15.8485 173.689 15.8731L172.882 15.1841C172.795 15.3152 172.726 15.4569 172.676 15.6057L172.357 16.4079C172.141 16.9529 171.925 17.1894 171.627 17.3128C171.948 17.3704 172.246 17.5185 172.486 17.7396C172.77 17.9976 172.996 18.3131 173.149 18.6652L173.761 20.0021L173.951 20.1563L174.64 20.2129V20.7888H172.069V20.4031L171.288 18.6189C171.215 18.4033 171.097 18.2053 170.943 18.0378C170.875 17.9733 170.794 17.9235 170.705 17.8917C170.617 17.8598 170.523 17.8466 170.429 17.8527H170.162V20.074L170.321 20.2591L170.892 20.2951V20.871H167.596L167.611 20.2694Z" fill="#335497"/>
<path d="M36.8674 25.874C37.6644 25.874 38.2968 27.0721 38.2968 28.5633C38.2968 30.0544 37.6644 31.2422 36.8674 31.2422C36.0704 31.2422 35.4277 30.0236 35.4277 28.5478C35.4277 27.0721 36.055 25.8689 36.8674 25.874Z" fill="#B4966A"/>
<path d="M36.5692 25.8482C37.361 25.8482 37.9986 27.0462 37.9986 28.5374C37.9986 30.0285 37.361 31.2163 36.5692 31.2163C35.7773 31.2163 35.1294 29.9977 35.1294 28.522C35.1294 27.0462 35.7722 25.8173 36.5692 25.8482Z" fill="url(#paint0_linear_63_1770)"/>
<defs>
<linearGradient id="paint0_linear_63_1770" x1="34.1885" y1="25.1283" x2="38.955" y2="31.9362" gradientUnits="userSpaceOnUse">
<stop stop-color="#B4966A"/>
<stop offset="0.5" stop-color="#FEF0C7"/>
<stop offset="1" stop-color="#B4966A"/>
</linearGradient>
</defs>
</svg>
