<svg width="200" height="50" viewBox="0 0 200 50" fill="none" xmlns="http://www.w3.org/2000/svg">
<path d="M108.956 6.49707L90.5957 8.89558V14.3288L108.956 12.6903V6.49707Z" fill="#E4003A"/>
<path fill-rule="evenodd" clip-rule="evenodd" d="M105.481 18.9483L90.5964 8.90137V14.3217L95.2375 17.4654L96.1506 17.9981C94.4832 18.0181 93.6847 18.3568 92.8826 18.8411C90.5908 20.2228 89.4012 22.6526 89.4012 26.2383C89.4012 32.2801 92.7361 35.1407 99.0889 35.1407C105.442 35.1407 108.794 32.2801 108.794 26.2383C108.794 22.7414 107.66 20.3504 105.481 18.9483ZM99.0889 30.7228C95.9395 30.7228 94.9483 29.5763 94.9483 26.2846C94.9483 22.993 95.9321 21.8464 99.0889 21.8464C102.246 21.8464 103.213 22.9706 103.213 26.2846C103.213 29.5983 102.263 30.7228 99.0889 30.7228ZM52.859 26.2846C52.859 29.5819 53.8428 30.7228 56.9996 30.7228C60.1565 30.7228 61.1238 29.5763 61.1238 26.2846C61.1238 22.993 60.1713 21.8464 56.9996 21.8464C53.8276 21.8464 52.859 22.9706 52.859 26.2846ZM47.3119 26.2366C47.3119 20.1948 50.6691 17.4302 56.9996 17.4302C63.3303 17.4302 66.7021 20.1948 66.7021 26.2366C66.7021 32.2781 63.3672 35.139 56.9996 35.139C50.632 35.139 47.3119 32.2781 47.3119 26.2366ZM31.7214 20.0229C32.3254 19.2571 34.7619 17.4079 37.7594 17.4079C42.7485 17.4079 45.4998 20.0968 45.4998 26.2051C45.4998 32.3129 42.7449 35.0279 37.7427 35.0279C34.7282 35.0279 32.3087 33.2119 31.6882 32.4297V40.5035H26.4023V17.8038H31.7214V20.0229ZM31.7252 26.1919C31.7252 29.4855 32.7164 30.6301 35.8658 30.6301V30.6229C39.0375 30.6229 39.9881 29.502 39.9881 26.1919C39.9881 22.8818 39.0227 21.7537 35.8658 21.7537C32.709 21.7537 31.7252 22.8983 31.7252 26.1919ZM145.166 17.811V23.9748H138.148V17.811H132.829V34.4916H138.148V28.2427H145.166V34.4916H150.487V17.811H145.166ZM118.381 35.0279C113.375 35.0279 110.624 32.3073 110.624 26.2051C110.624 20.1133 113.373 17.4079 118.363 17.4079C121.358 17.4079 123.795 19.2571 124.402 20.0117V17.7926H129.722V34.4932H124.434V32.4297C123.813 33.2119 121.394 35.0279 118.381 35.0279ZM120.258 21.7425C117.084 21.7425 116.134 22.867 116.134 26.1807C116.132 29.478 117.103 30.6193 120.258 30.6193C123.413 30.6193 124.397 29.4911 124.397 26.1807C124.397 22.8706 123.432 21.7425 120.258 21.7425ZM82.1369 28.3278C81.7218 30.0718 80.6103 30.7225 78.2016 30.7225C75.0521 30.7225 74.0626 29.576 74.0626 26.2843C74.0626 22.9926 75.0521 21.8461 78.2016 21.8461C80.6103 21.8461 81.7218 22.4951 82.1385 24.2503L87.6856 23.8304C86.8574 19.4662 83.6096 17.4375 78.2016 17.4375C71.871 17.4375 68.5158 20.2021 68.5158 26.2439C68.5158 32.2853 71.8504 35.1462 78.2016 35.1462C83.6058 35.1462 86.8204 33.0751 87.6689 28.7533L82.1369 28.3278ZM164.582 25.7316L173 34.4896H166.162L158.829 26.8097V27.2128V28.6569V34.4896H153.605V17.811H158.829V25.0565L165.968 17.811H172.548L164.582 25.7316Z" fill="#00274F"/>
</svg>
