<svg width="200" height="51" viewBox="0 0 200 51" fill="none" xmlns="http://www.w3.org/2000/svg">
<path d="M55.5076 21.5254C56.6544 21.5254 57.931 21.5652 59.038 22.3132C59.776 22.8019 60.6436 23.7693 60.6436 25.4946C60.6436 27.3895 59.4469 29.6234 56.1259 29.6234H53.3334V34.8194H50.8901V21.5254H55.5076ZM55.6073 27.6787C56.1458 27.6787 56.9237 27.6986 57.542 27.1202C57.9709 26.7313 58.2003 26.073 58.2003 25.5146C58.2003 24.996 57.9908 24.3677 57.562 23.9987C57.1331 23.6297 56.455 23.4501 55.697 23.4501H53.3334V27.6787H55.6073ZM62.8976 25.9434C63.5758 25.3051 64.5831 24.7466 66.089 24.7466C67.6049 24.7466 68.6122 25.3051 69.2903 25.9434C70.2976 26.8908 70.8162 28.3668 70.8162 29.8728C70.8162 31.3787 70.2976 32.8547 69.2903 33.8021C68.6122 34.4404 67.6049 35.0088 66.089 35.0088C64.5831 35.0088 63.5758 34.4404 62.8976 33.8021C61.8904 32.8547 61.3718 31.3787 61.3718 29.8728C61.3618 28.3569 61.8904 26.8908 62.8976 25.9434ZM64.5432 32.6652C64.7526 32.9145 65.2413 33.3832 66.089 33.3832C66.9467 33.3832 67.4254 32.9245 67.6348 32.6652C67.7944 32.4957 68.3728 31.7178 68.3728 29.8728C68.3728 28.0278 67.7944 27.2598 67.6348 27.0803C67.4254 26.831 66.9367 26.3623 66.089 26.3623C65.2413 26.3623 64.7526 26.821 64.5432 27.0803C64.3936 27.2598 63.8052 28.0278 63.8052 29.8728C63.8052 31.7078 64.3936 32.4857 64.5432 32.6652ZM78.5452 28.5563C78.5053 28.0577 78.3158 27.4693 78.0565 27.1003C77.8171 26.7512 77.3584 26.3623 76.5805 26.3623C75.8225 26.3623 75.3239 26.7512 75.0147 27.2698C74.526 28.0676 74.4961 29.3043 74.4961 29.8728C74.4961 30.7803 74.6258 31.8674 75.0147 32.4857C75.264 32.8746 75.7727 33.3733 76.5805 33.3733C77.1589 33.3733 77.6476 33.1439 78.0166 32.6353C78.3058 32.2264 78.5053 31.6479 78.5352 31.1393L80.5896 31.3887C80.4699 32.2962 80.071 33.3134 79.353 33.9617C78.7546 34.5002 77.8171 34.9889 76.5007 34.9889C75.0347 34.9889 74.0773 34.4105 73.5188 33.8819C72.7608 33.1638 72.0428 31.8873 72.0428 29.8728C72.0428 27.9978 72.681 26.8709 73.1897 26.2725C73.9077 25.4148 75.1244 24.7267 76.5605 24.7267C77.7872 24.7267 78.7945 25.1555 79.4228 25.8138C80.061 26.452 80.45 27.4194 80.5896 28.2871L78.5452 28.5563ZM88.1592 28.5563C88.1193 28.0577 87.9298 27.4693 87.6705 27.1003C87.4412 26.7512 86.9724 26.3623 86.1945 26.3623C85.4366 26.3623 84.9379 26.7512 84.6288 27.2698C84.1501 28.0676 84.1102 29.3043 84.1102 29.8728C84.1102 30.7803 84.2498 31.8674 84.6288 32.4857C84.8781 32.8746 85.3867 33.3733 86.1945 33.3733C86.773 33.3733 87.2616 33.1439 87.6306 32.6353C87.9199 32.2264 88.1193 31.6479 88.1492 31.1393L90.2037 31.3887C90.094 32.2962 89.6851 33.3134 88.967 33.9617C88.3686 34.5002 87.4412 34.9889 86.1247 34.9889C84.6487 34.9889 83.7013 34.4105 83.1428 33.8819C82.3849 33.1638 81.6668 31.8873 81.6668 29.8728C81.6668 27.9978 82.3051 26.8709 82.8137 26.2725C83.5317 25.4148 84.7485 24.7267 86.1846 24.7267C87.4013 24.7267 88.4085 25.1555 89.0468 25.8138C89.6851 26.452 90.074 27.4194 90.2136 28.2871L88.1592 28.5563ZM100.576 31.9471C100.227 33.104 99.5284 33.7822 98.95 34.1911C98.1721 34.7096 97.1648 35.0088 96.0977 35.0088C94.7613 35.0088 93.405 34.4404 92.5872 33.6126C91.8293 32.8447 91.2708 31.4983 91.2708 29.9126C91.2708 27.8981 92.1085 26.5617 93.0161 25.8038C93.5446 25.355 94.532 24.7367 96.0179 24.7367C97.9028 24.7367 99.0996 25.6043 99.7379 26.5019C100.416 27.4294 100.735 28.7259 100.735 29.8528V30.3016H93.7242C93.7242 30.4113 93.7042 31.3089 94.0533 32.0269C94.5719 33.114 95.5293 33.3832 96.1875 33.3832C96.7061 33.3832 97.3643 33.2237 97.9128 32.6652C98.2419 32.3161 98.3815 31.987 98.4314 31.6779L100.576 31.9471ZM98.2918 28.8256C98.2918 28.2671 98.1522 27.6288 97.8629 27.2C97.4939 26.6614 96.8357 26.2924 96.1177 26.2924C95.3797 26.2924 94.7414 26.6614 94.3524 27.1202C94.0433 27.5092 93.774 28.1075 93.774 28.8256H98.2918ZM110.299 24.9361V34.8194H108.046V26.6116H105.492C105.433 27.948 105.393 28.4865 105.353 29.404C105.293 30.4312 105.223 32.5954 104.346 33.7822C103.857 34.4204 103.258 34.6698 102.83 34.7894C102.58 34.8692 102.311 34.8991 102.032 34.8991C101.842 34.8991 101.643 34.8792 101.453 34.8194V33.114H101.643C101.932 33.094 102.321 32.9444 102.57 32.745C103.348 32.1266 103.418 30.7304 103.498 29.6234C103.598 28.1674 103.618 27.2997 103.627 25.9833L103.647 24.9361H110.299ZM114.917 28.4566H117.4C118.038 28.4566 119.275 28.5364 120.093 29.3442C120.831 30.0622 120.901 31.0695 120.901 31.6081C120.901 33.0242 120.322 33.7423 119.873 34.1113C119.714 34.231 118.986 34.8094 117.59 34.8094H112.673V24.9361H114.917V28.4566ZM114.917 33.1838H116.682C117.111 33.1838 117.57 33.1638 117.959 32.8347C118.188 32.6153 118.467 32.2563 118.467 31.628C118.467 31.0895 118.308 30.6606 117.869 30.3714C117.48 30.1221 116.991 30.0822 116.692 30.0822H114.927V33.1838H114.917ZM124.172 24.9361L125.997 28.0078L127.892 24.9361H129.946L127.054 29.404L130.485 34.8094H127.852L125.608 31.0895L123.244 34.8094H121.19L124.561 29.6833L121.539 24.9361H124.172ZM132.22 25.9434C132.898 25.3051 133.906 24.7466 135.411 24.7466C136.927 24.7466 137.935 25.3051 138.613 25.9434C139.62 26.8908 140.139 28.3668 140.139 29.8728C140.139 31.3787 139.61 32.8547 138.613 33.8021C137.935 34.4404 136.927 35.0088 135.411 35.0088C133.906 35.0088 132.898 34.4404 132.22 33.8021C131.213 32.8547 130.694 31.3787 130.694 29.8728C130.694 28.3569 131.213 26.8908 132.22 25.9434ZM133.866 32.6652C134.075 32.9145 134.564 33.3832 135.411 33.3832C136.269 33.3832 136.748 32.9245 136.967 32.6652C137.117 32.4957 137.705 31.7178 137.705 29.8728C137.705 28.0278 137.127 27.2598 136.967 27.0803C136.758 26.831 136.269 26.3623 135.411 26.3623C134.564 26.3623 134.075 26.821 133.866 27.0803C133.706 27.2598 133.128 28.0278 133.128 29.8728C133.128 31.7078 133.716 32.4857 133.866 32.6652ZM141.345 27.6089C141.635 26.4121 142.392 25.7539 142.931 25.4248C143.26 25.2154 144.168 24.7466 145.723 24.7466C146.691 24.7466 147.678 24.9162 148.416 25.3251C149.503 25.9235 149.772 26.7911 149.772 27.4194C149.772 28.0976 149.443 29.3941 147.758 29.5835V29.6234C148.336 29.7032 148.975 29.9525 149.364 30.3614C149.713 30.7304 149.982 31.3488 149.982 32.007C149.982 32.9943 149.403 33.862 148.665 34.3506C147.778 34.9291 146.551 35.0088 145.644 35.0088C144.726 35.0088 143.34 34.9091 142.363 34.1412C141.824 33.7124 141.315 32.9744 141.166 32.0469L143.2 31.6978C143.28 32.007 143.45 32.4757 143.679 32.745C144.188 33.3334 144.975 33.3832 145.484 33.3832C145.993 33.3832 146.531 33.3234 146.96 33.0342C147.349 32.7649 147.539 32.3959 147.539 31.9072C147.539 31.4984 147.459 31.1692 147.11 30.88C146.661 30.511 146.063 30.4512 145.504 30.4512H144.477V28.9353H145.504C145.893 28.9353 146.451 28.8555 146.761 28.7059C147.17 28.4965 147.399 28.1474 147.399 27.579C147.399 27.2698 147.279 26.9706 146.99 26.7412C146.541 26.3722 145.903 26.3523 145.574 26.3523C145.125 26.3523 144.467 26.4121 143.928 26.8709C143.699 27.0604 143.39 27.4294 143.29 28.0078L141.345 27.6089ZM161.481 23.8491H155.068V26.7911H157.92C158.948 26.7911 159.935 26.8709 160.942 27.569C161.93 28.2472 162.548 29.2544 162.548 30.7105C162.548 32.0668 162.039 33.0741 161.401 33.7123C160.434 34.6797 159.327 34.8194 158.17 34.8194H151.967V21.5254H161.481V23.8491ZM155.068 32.4857H157.571C158.04 32.4857 158.469 32.4657 158.908 32.0169C159.337 31.5881 159.396 31.1094 159.396 30.7404C159.396 30.3215 159.277 29.8927 158.908 29.5237C158.469 29.0849 157.9 29.035 157.492 29.035H155.068V32.4857ZM164.144 27.6787C164.453 26.3423 165.32 25.6641 165.849 25.355C166.617 24.9062 167.644 24.7367 168.931 24.7367C170.556 24.7367 172.202 24.9461 172.94 26.4819C173.329 27.2798 173.289 28.1275 173.289 28.8655V32.6851C173.289 33.483 173.398 34.221 173.578 34.8194H170.766C170.686 34.4304 170.626 33.9118 170.616 33.2536C170.247 33.9118 169.349 35.0188 167.305 35.0188C166.397 35.0188 165.46 34.7894 164.822 34.2609C164.203 33.7522 163.814 32.9444 163.814 32.0568C163.814 31.0695 164.243 29.8827 165.929 29.1846C167.016 28.7358 168.781 28.5862 169.569 28.5463L170.496 28.5065V28.297C170.496 28.0277 170.476 27.4493 170.207 27.1302C169.838 26.7013 169.1 26.6814 168.811 26.6814C168.412 26.6814 167.923 26.7213 167.514 26.9706C167.265 27.1202 166.936 27.4393 166.816 27.9779L164.144 27.6787ZM169.629 30.142C168.661 30.2218 167.694 30.3215 167.145 30.9897C166.996 31.1792 166.836 31.4784 166.836 31.8773C166.836 32.3062 167.046 32.5954 167.265 32.745C167.534 32.9544 167.943 33.0541 168.332 33.0541C168.911 33.0541 169.589 32.8048 169.978 32.3361C170.038 32.2762 170.496 31.6978 170.496 30.5709V30.0523L169.629 30.142ZM178.415 24.9361V28.6361H181.536V24.9361H184.419V34.8094H181.536V30.6606H178.415V34.8094H175.533V24.9361H178.415ZM189.555 24.9361V28.7358H190.333C191.17 28.7358 191.519 28.3269 191.729 27.8782C192.138 27.0105 192.118 26.3323 192.487 25.6542C192.776 25.1156 193.165 24.976 193.414 24.9361H195.798C195.489 25.2652 195.219 25.6542 195.04 26.0032C194.731 26.6415 194.442 27.6887 194.262 28.1375C194.033 28.7558 193.644 29.3741 192.656 29.4539V29.4938C193.185 29.5736 193.724 29.8428 194.132 30.4412C194.382 30.8102 194.551 31.2889 194.831 32.0469C195.1 32.8248 195.219 33.094 195.469 33.6924C195.668 34.1412 195.778 34.4105 196.107 34.8194H193.394C192.966 34.6797 192.676 34.3905 192.327 33.3832C192.058 32.6153 192.018 32.3361 191.839 31.9072L191.699 31.5582C191.41 30.8202 191.021 30.6706 190.422 30.6706H189.555V34.8194H186.673V24.9361H189.555Z" fill="#19502E"/>
<path d="M24.3223 49.5C12.5641 49.5 3 39.9459 3 28.1877C3 21.436 6.1016 15.2228 11.507 11.1539L11.7264 10.9743V1.5H23.9632V6.87544H24.3223C36.0704 6.87544 45.6345 16.4395 45.6345 28.1977C45.6345 39.9459 36.0704 49.5 24.3223 49.5Z" fill="#19502E"/>
<path d="M18.1487 28.5265L22.5867 24.1683V21.2063L18.1487 25.5446V28.5265ZM18.1487 17.4864L22.5867 13.1182V10.3258L18.1487 14.664V17.4864ZM18.1487 21.1365L22.5867 16.7783V13.9859L18.1487 18.3241V21.1365ZM16.8822 10.3557L16.2938 9.78726V2.87598H15.6157V9.12905L15.0372 8.55061V2.87598H14.3591V7.90237L13.7707 7.32393V2.87598H13.1025V9.46813L17.5504 13.8263V2.87598H16.8822V10.3557ZM18.1487 24.7866L22.5867 20.4284V17.636L18.1487 21.9742V24.7866ZM13.1025 24.1683L17.5504 28.5265V25.5446L13.1025 21.2063V24.1683ZM21.9185 7.32393L21.3301 7.90237V2.87598H20.6619V8.56059L20.0735 9.12905V2.87598H19.4053V9.77729L18.8169 10.3557V2.87598H18.1487V13.8263L22.5867 9.46813V2.87598H21.9185V7.32393ZM13.1025 13.1182L17.5504 17.4864V14.664L13.1025 10.3258V13.1182ZM13.1025 16.7783L17.5504 21.1365V18.3241L13.1025 13.9859V16.7783ZM13.1025 20.4284L17.5504 24.7866V21.9742L13.1025 17.636V20.4284ZM39.5608 22.7322H28.7601C28.9895 22.3732 29.1191 21.9543 29.1191 21.5055C29.1191 20.219 28.0719 19.1818 26.7854 19.1818C25.4989 19.1818 24.4617 20.229 24.4617 21.5055C24.4617 22.0142 24.6213 22.4729 24.9005 22.8519C24.7011 22.9815 24.5614 23.2109 24.5614 23.4802C24.5614 23.7395 24.7011 23.9689 24.9005 24.0985C24.6313 24.4775 24.4617 24.9462 24.4617 25.4449C24.4617 26.7314 25.4989 27.7686 26.7854 27.7686C28.0719 27.7686 29.1191 26.7314 29.1191 25.4449C29.1191 24.9961 28.9895 24.5672 28.7601 24.2182H36.7983V24.7069H36.0005V25.395H36.7983V26.1031H36.0005V27.4095H36.7983V26.8211H37.9751V27.4095H38.763V26.1031H37.9751V25.395H38.763V24.7069H37.9751V24.2182H39.5608C39.87 24.2182 40.1193 23.9589 40.1193 23.6497V23.3007C40.1193 22.9915 39.86 22.7322 39.5608 22.7322ZM27.9922 25.4449C27.9922 26.1031 27.4536 26.6416 26.7854 26.6416C26.1272 26.6416 25.5887 26.1031 25.5887 25.4449C25.5887 25.2055 25.6585 24.9761 25.7881 24.7866L26.1172 24.2182C25.9078 24.0387 25.7781 23.7694 25.7781 23.4702C25.7781 23.171 25.9078 22.9018 26.1172 22.7222L25.7881 22.1538C25.6585 21.9643 25.5887 21.7449 25.5887 21.4956C25.5887 20.8373 26.1272 20.2988 26.7854 20.2988C27.4436 20.2988 27.9922 20.8373 27.9922 21.4956C27.9922 21.9842 27.4237 23.1511 27.4237 23.1511V23.7794C27.4237 23.7894 27.9922 24.9562 27.9922 25.4449Z" fill="#FFCB05"/>
<path d="M9.06348 21.3164V24.2186C9.06348 26.9911 10.2702 28.7762 10.9683 29.4644C11.3772 29.8633 15.506 33.9323 15.5659 33.9821C16.8524 35.2387 17.0718 35.6476 17.361 36.3657V33.1544C17.361 30.2921 15.9149 29.1851 15.1669 28.4571C13.4217 26.7617 12.2648 25.6447 11.3174 24.7072C9.54218 22.9221 9.06348 21.3164 9.06348 21.3164ZM15.167 35.6277C13.4317 33.9223 12.2648 32.8153 11.3274 31.8778C9.54222 30.0927 9.07349 28.8859 9.07349 28.8859V31.3891C9.07349 34.1616 10.3301 35.9269 10.9684 36.6549C11.3772 37.0538 15.516 41.1028 15.5659 41.1527C16.8524 42.4093 17.0718 43.0077 17.361 43.7158V40.3249C17.361 37.4627 15.905 36.3557 15.167 35.6277Z" fill="white"/>
<path d="M24.322 8.24219C24.0029 8.24219 23.6837 8.25216 23.3646 8.26214V9.61846C23.6837 9.59852 23.9929 9.59852 24.322 9.59852C34.5842 9.59852 42.9017 17.916 42.9017 28.1882C42.9017 38.4504 34.5842 46.7679 24.322 46.7679C14.0598 46.7679 5.73231 38.4504 5.73231 28.1882C5.73231 22.4936 8.29537 17.3974 12.3345 13.9867V12.2514C7.49753 15.8915 4.37598 21.6758 4.37598 28.1882C4.37598 39.1984 13.3018 48.1242 24.322 48.1242C35.3322 48.1242 44.258 39.1984 44.258 28.1882C44.258 17.178 35.3322 8.24219 24.322 8.24219Z" fill="white"/>
<path d="M38.4243 38.6C38.7334 38.1811 39.0227 37.7423 39.3019 37.2935V34.6208H38.4243V38.6ZM40.9774 33.6434C41.107 33.2545 41.2167 32.8656 41.3164 32.4766H38.4243V33.1847H38.8631C39.631 33.1647 40.4987 33.1548 40.9774 33.6434Z" fill="white"/>
<path d="M21.7195 32.376H20.9316V40.3244H21.7195V32.376Z" fill="white"/>
<path d="M19.1263 30.8503H21.7192C22.3874 30.8503 22.8562 30.9899 23.1254 31.2492C23.3947 31.5085 23.5244 31.9773 23.5244 32.6455V40.0753C23.5244 40.7435 23.3947 41.2123 23.1254 41.4716C22.7165 41.8804 21.9586 41.8804 21.3303 41.8804C21.1907 41.8705 21.0511 41.8705 20.9314 41.8705V45.3909C21.1907 45.4408 21.45 45.4907 21.7192 45.5306V42.6384C22.916 42.6384 23.6939 42.2295 24.0629 41.4117V45.72H24.3222C24.4818 45.72 24.6513 45.72 24.8109 45.7101V32.7751C24.8109 32.087 24.9505 31.6083 25.2098 31.339C25.4691 31.0697 25.9378 30.9301 26.596 30.9301C27.2642 30.9301 28.2516 30.8304 28.7602 31.339C29.0195 31.6083 29.1391 32.0969 29.1391 32.7751V36.5848H27.364V32.5158H26.596V45.5705C26.8553 45.5405 27.1047 45.5006 27.364 45.4508V37.3527H29.1391V45.0419C29.5081 44.9422 29.8672 44.8225 30.2262 44.6928V37.6519C30.2262 36.8541 30.4157 36.2557 31.2235 35.9864L30.3259 31.0897H32.1211L32.4203 36.4352H32.6397L32.9389 31.0897H34.8337L33.8165 35.9864C34.6642 36.2856 34.8337 36.8042 34.8337 37.6519V42.1996C35.3623 41.8007 35.8609 41.3818 36.3396 40.923V31.0398H41.6054C41.6453 30.8005 41.6752 30.5711 41.7051 30.3218H29.3984L29.568 31.2093C29.179 30.4913 28.441 30.1323 27.354 30.1323H26.5861C25.2796 30.1323 24.4917 30.6509 24.1826 31.6881C23.9033 30.601 23.0756 30.0625 21.7093 30.0625H18.3384V44.6529C18.5977 44.7427 18.857 44.8324 19.1163 44.9122V30.8503H19.1263ZM35.472 36.4651L34.6243 35.6573L35.472 31.2692V36.4651Z" fill="white"/>
<path d="M32.1309 43.8849C32.4002 43.7453 32.6694 43.6057 32.9387 43.4561V37.4424H32.1309V43.8849Z" fill="white"/>
</svg>
