<svg width="200" height="51" viewBox="0 0 200 51" fill="none" xmlns="http://www.w3.org/2000/svg">
<path d="M37.0229 16.9292C37.0229 13.3612 39.9007 10.505 43.4676 10.505C47.0324 10.505 49.9429 13.3602 49.9429 16.8974C49.9429 20.4346 47.0642 23.2898 43.4676 23.2898C39.8996 23.3226 37.0229 20.4674 37.0229 16.9292ZM49.1595 39.832C50.9578 39.8392 52.6393 38.941 53.6327 37.4418L65.9884 18.7295C67.6147 16.2789 66.9275 12.9885 64.4564 11.3745C61.9842 9.76155 58.6682 10.4436 57.0419 12.8953L44.6862 31.6392C43.06 34.0909 43.7471 37.3803 46.2183 38.9953C47.1031 39.5391 48.121 39.8289 49.1595 39.832ZM61.0154 33.4396C61.0154 29.9014 63.8931 27.0472 67.4907 27.0472C71.0566 27.0472 73.9661 29.9014 73.9661 33.4396C73.9661 36.9768 71.0874 39.8637 67.4907 39.8637C63.8931 39.832 61.0154 36.9768 61.0154 33.4396Z" fill="#21DBBC"/>
<path fill-rule="evenodd" clip-rule="evenodd" d="M34.425 10.5049C37.9919 10.5049 40.8696 13.3611 40.8696 16.929C40.8696 20.4673 38.0237 23.3224 34.425 23.3214C30.8284 23.3214 27.9497 20.4673 27.9497 16.929C27.9497 13.3601 30.8601 10.5049 34.425 10.5049ZM15 34.524C15 37.4733 17.4087 39.8308 20.3499 39.8308C23.29 39.8308 25.6987 37.4733 25.6987 34.525V15.8107C25.6987 12.8941 23.29 10.5049 20.3499 10.5049C17.4087 10.5049 15 12.8951 15 15.8117V34.524ZM86.7918 35.3639C89.1698 35.3639 90.9527 33.5635 90.9527 31.2665C90.9527 28.9387 89.138 27.1691 86.7908 27.1701H82.4742C82.2858 27.1701 82.1609 27.3247 82.1609 27.4804V39.3374C82.1629 39.5094 82.3032 39.6466 82.4742 39.6466H83.9131C84.1015 39.6466 84.2265 39.492 84.2265 39.3374V35.6742C84.2285 35.5021 84.3678 35.3639 84.5398 35.3639H86.7918ZM86.7918 29.0954C88.0115 29.0954 88.8881 29.9946 88.8881 31.2665C88.8881 32.5087 88.0125 33.4396 86.7918 33.4396H84.5398C84.3514 33.4396 84.2265 33.2839 84.2265 33.1293V29.4047C84.2285 29.2326 84.3688 29.0954 84.5398 29.0954H86.7918ZM96.2073 30.4912C93.6112 30.4912 91.4842 32.5394 91.4842 35.1775C91.4842 37.8156 93.5795 39.832 96.2073 39.8637C98.8362 39.8637 100.931 37.8156 100.931 35.1775C100.931 32.5077 98.8351 30.4912 96.2073 30.4912ZM96.2063 32.3838C97.7711 32.3838 98.9908 33.5645 98.9908 35.1775C98.9908 36.7904 97.7711 37.9702 96.2063 37.9702C94.6415 37.9702 93.4218 36.7904 93.4218 35.1775C93.4218 33.5625 94.6425 32.3838 96.2063 32.3838ZM106.907 30.4912C104.217 30.4912 102.183 32.5394 102.183 35.1775C102.183 37.8156 104.217 39.832 106.908 39.8637C108.504 39.8637 109.911 39.1182 110.725 37.9395C110.882 37.7224 110.819 37.4735 110.6 37.3496L109.286 36.6051C108.848 37.4121 107.971 37.9702 106.908 37.9702C105.312 37.9702 104.124 36.7904 104.124 35.1775C104.124 33.5625 105.344 32.3838 106.908 32.3838C107.846 32.3838 108.629 32.7565 109.066 33.4089C109.193 33.5697 109.414 33.6209 109.598 33.5328L110.568 32.9747C110.755 32.8805 110.817 32.6009 110.692 32.4155C109.91 31.2358 108.503 30.4912 106.907 30.4912ZM116.478 32.5702H118.762C118.949 32.5702 119.106 32.4452 119.104 32.2906V31.0801C119.104 30.9244 118.978 30.7698 118.791 30.7698H111.659C111.502 30.7698 111.346 30.8947 111.346 31.0801V32.2906C111.348 32.4626 111.487 32.6009 111.659 32.6009H113.943C114.115 32.6009 114.254 32.7391 114.255 32.9112V39.2728C114.256 39.4449 114.396 39.5831 114.568 39.5831H115.851C116.024 39.5831 116.164 39.4449 116.165 39.2728V32.8805C116.165 32.7258 116.291 32.5702 116.478 32.5702ZM127.582 39.4603V38.3737C131.055 38.0941 133.401 36.2948 133.401 33.4089C133.401 30.4912 131.055 28.7216 127.582 28.4431V27.3565C127.582 27.1701 127.426 27.0145 127.238 27.0145H125.924C125.736 27.0145 125.579 27.1711 125.579 27.3565V28.4431C122.108 28.7226 119.73 30.4923 119.73 33.4089C119.73 36.3255 122.108 38.0951 125.579 38.3737V39.4603C125.582 39.6497 125.736 39.8013 125.924 39.8023H127.238C127.427 39.8013 127.58 39.6487 127.582 39.4603ZM125.55 30.6776V36.1084C125.55 36.3255 125.362 36.4812 125.144 36.4801C123.017 36.1698 121.766 35.1765 121.766 33.4079C121.766 31.6075 123.017 30.6141 125.144 30.3356C125.164 30.3325 125.184 30.3305 125.205 30.3305C125.395 30.3315 125.55 30.4861 125.55 30.6776ZM127.99 30.3366C130.085 30.6459 131.337 31.6085 131.337 33.4089C131.337 35.1775 130.116 36.1391 127.991 36.4504C127.771 36.4812 127.583 36.3245 127.583 36.1084V30.6776C127.583 30.6571 127.585 30.6367 127.589 30.6162C127.622 30.4277 127.802 30.3028 127.99 30.3366ZM142.942 39.3046V31.0187C142.942 30.862 142.817 30.7391 142.66 30.7073H141.628C141.534 30.7073 141.44 30.7698 141.378 30.8312L137.436 35.6721C137.249 35.8892 136.873 35.7653 136.873 35.4857V31.0166C136.873 30.8302 136.716 30.7063 136.561 30.7063H135.278C135.089 30.7063 134.964 30.862 134.964 31.0166V39.3353C134.966 39.5074 135.106 39.6446 135.278 39.6446H136.31C136.403 39.6446 136.497 39.5821 136.56 39.5207L140.5 34.6491C140.688 34.432 141.064 34.5559 141.064 34.8354V39.3046C141.066 39.4766 141.205 39.6149 141.377 39.6149H142.628C142.817 39.6149 142.942 39.4592 142.942 39.3046ZM153.171 39.3978V30.9255C153.171 30.8323 153.077 30.7391 152.952 30.7104H151.451C151.325 30.7104 151.232 30.8026 151.232 30.9265V34.0305C151.232 34.1534 151.138 34.2466 151.013 34.2466H147.322C147.197 34.2466 147.103 34.1544 147.103 34.0305V30.9265C147.103 30.8026 147.008 30.7094 146.884 30.7094H145.382C145.257 30.7094 145.163 30.8036 145.163 30.9275V39.4101C145.166 39.5278 145.264 39.62 145.382 39.6169H146.884C147.01 39.6169 147.103 39.5227 147.103 39.3988V36.2866C147.106 36.1688 147.204 36.0767 147.322 36.0797H151.022C151.14 36.0807 151.234 36.178 151.232 36.2958V39.4101C151.236 39.5268 151.333 39.619 151.451 39.6159H152.952C153.077 39.6159 153.171 39.5217 153.171 39.3978ZM162.87 39.6159H164.433V30.7391V30.6776H162.87C162.664 30.6797 162.497 30.8446 162.494 31.0504V31.9506C161.807 31.0197 160.774 30.4605 159.366 30.4605C156.926 30.4605 154.893 32.5097 154.893 35.1468C154.893 37.7848 156.926 39.833 159.366 39.833C160.742 39.833 161.806 39.2431 162.494 38.3122V39.2431C162.498 39.449 162.664 39.6139 162.87 39.6159ZM159.679 32.3223C161.274 32.3223 162.494 33.5328 162.494 35.1775C162.494 36.8212 161.274 38.0009 159.679 38.0316C158.082 38.0316 156.862 36.8222 156.862 35.1775C156.862 33.5011 158.052 32.3223 159.679 32.3223ZM174.412 39.6139C174.537 39.6139 174.662 39.5217 174.662 39.3671V30.9879C174.662 30.8323 174.536 30.7391 174.38 30.7401H172.972C172.847 30.7401 172.722 30.8333 172.722 30.9879V33.9988C172.722 34.1227 172.628 34.2466 172.473 34.2466H168.875C168.75 34.2466 168.625 34.1534 168.625 33.9988V30.9879C168.625 30.864 168.532 30.7401 168.375 30.7401H166.968C166.843 30.7401 166.718 30.8333 166.718 30.9879V39.3732C166.72 39.5084 166.833 39.6169 166.968 39.6139H168.375C168.5 39.6139 168.625 39.5217 168.625 39.3671V36.3491C168.627 36.2139 168.74 36.1053 168.875 36.1084H172.473C172.599 36.1084 172.722 36.2016 172.722 36.3562V39.3732C172.724 39.5084 172.837 39.6169 172.972 39.6139H174.412ZM181.107 30.4912C178.416 30.4912 176.384 32.5394 176.384 35.1775C176.384 37.8156 178.416 39.832 181.076 39.8637C182.703 39.8637 184.173 39.0578 184.955 37.7848C185.048 37.6609 184.986 37.4735 184.861 37.4121L183.454 36.6051C183.016 37.4121 182.139 37.9702 181.076 37.9702C179.479 37.9702 178.291 36.7904 178.291 35.1775C178.291 33.5625 179.512 32.3838 181.076 32.3838C182.046 32.3838 182.859 32.819 183.297 33.5328C183.383 33.6516 183.542 33.6905 183.673 33.626L184.861 32.9429C184.986 32.8497 185.048 32.6633 184.955 32.5394C184.204 31.2982 182.765 30.4912 181.107 30.4912ZM86.0729 20.6528C87.5107 20.6528 88.6997 19.5048 88.6997 18.0465C88.6997 16.5882 87.5107 15.4084 86.0412 15.4084H83.6632V12.7396H87.949V11.9019H82.7876V20.6528H86.0729ZM86.0719 16.2461C87.0417 16.2461 87.8241 17.0531 87.8241 18.0465C87.8241 19.0398 87.0417 19.8468 86.0719 19.8468H83.695V16.2461H86.0719ZM96.2708 20.6538V14.4468H95.4259V15.6562C94.8944 14.8185 94.0178 14.2911 92.8923 14.2911C91.1094 14.2911 89.6388 15.688 89.6388 17.5498V17.5723C89.6439 19.3645 91.1002 20.8136 92.8923 20.8084C94.0178 20.8084 94.8944 20.281 95.4259 19.4433V20.6538H96.2708ZM92.9548 15.0674C94.3312 15.0674 95.4259 16.1539 95.4259 17.5498C95.4259 18.9149 94.3629 20.0015 92.9548 20.0322C91.5784 20.0322 90.4837 18.9456 90.4837 17.5498C90.4837 16.1539 91.5467 15.0674 92.9548 15.0674ZM103.308 20.6538V14.4161H102.464V17.1473H98.8351V14.4161H97.9903V20.6538H98.8351V17.9225H102.464V20.6538H103.308ZM105.905 17.643L109.065 20.6528C109.065 20.6528 109.065 20.6845 109.066 20.6845H110.191L106.813 17.4259L110.066 14.4161H108.94L105.937 17.178V14.4161H105.092V20.6528H105.905V17.643Z" fill="#1E1F1A"/>
</svg>
