<svg width="201" height="50" viewBox="0 0 201 50" fill="none" xmlns="http://www.w3.org/2000/svg">
<path d="M91 19.5004L94.8 16.7004H82.2V33.3004H94.8V30.5004H85.8V26.3004H93.4V23.5004H85.8V19.5004H91ZM75.3 19.5004L79.1 16.7004H64.7V33.3004H72.2C76.4 33.3004 78.8 31.4004 78.8 28.1004C78.8 24.9004 76.6 23.2004 72.6 23.2004H68.2V19.5004H75.3ZM72.1 25.9004C74.4 25.9004 75.4 26.7004 75.4 28.2004C75.4 29.7004 74.3 30.5004 72.1 30.5004H68.3V25.9004H72.1ZM104.9 16.7004H98.1V33.3004H101.7V28.6004H105C109.4 28.6004 112.1 26.3004 112.1 22.6004C112.1 18.9004 109.3 16.7004 104.9 16.7004ZM104.9 25.8004H101.7V19.4004H104.9C107.2 19.4004 108.5 20.5004 108.5 22.6004C108.4 24.7004 107.2 25.8004 104.9 25.8004ZM58.6 29.7004C57.6 30.2004 56.6 30.5004 55.5 30.5004C52.3 30.5004 49.9 28.2004 49.9 25.0004C49.9 21.8004 52.2 19.5004 55.5 19.5004C56.7 19.5004 57.8 19.9004 58.8 20.5004L61.4 18.6004L61.2 18.4004C59.7 17.1004 57.7 16.4004 55.4 16.4004C52.9 16.4004 50.7 17.2004 49 18.8004C47.4 20.4004 46.4 22.6004 46.5 24.9004C46.5 27.2004 47.4 29.4004 49 31.1004C50.7 32.7004 53 33.6004 55.3 33.5004C57.9 33.5004 60.1 32.6004 61.7 31.0004L59.4 29.3004L58.6 29.7004ZM166.5 23.5004H158.8V16.7004H155.2V33.3004H158.8V26.5004H166.5V33.3004H170.1V16.7004H166.5V23.5004ZM142.2 16.7004L135 33.3004H138.6L140 30.0004H147.6L149 33.3004H152.8L145.8 16.7004H142.2ZM141.2 27.2004L144 20.5004L146.6 27.2004H141.2ZM183.1 24.7004L189.6 16.7004H185.5L180.1 23.8004H178.1V16.7004H174.5V33.3004H178.1V26.6004H180.4L185.9 33.3004H190.5L183.1 24.7004ZM127.5 23.2004H123.1V19.5004H132.5V16.7004H119.5V33.3004H127C131.2 33.3004 133.6 31.4004 133.6 28.1004C133.7 24.9004 131.5 23.2004 127.5 23.2004ZM126.9 30.6004H123.1V26.0004H126.9C129.2 26.0004 130.2 26.8004 130.2 28.3004C130.3 29.8004 129.1 30.6004 126.9 30.6004Z" fill="#21A038"/>
<path d="M34.9808 16.3809C35.63 17.2315 36.1796 18.1556 36.6184 19.1347L24.1695 28.435L18.9668 25.1297V21.1533L24.1695 24.4586L34.9808 16.3809Z" fill="#21A038"/>
<path d="M13.6573 24.8496C13.6573 24.6712 13.6616 24.4939 13.6702 24.3177L10.5172 24.1611C10.5064 24.3895 10.5 24.6201 10.5 24.8528C10.4987 26.6712 10.8516 28.4719 11.5385 30.1516C12.2254 31.8314 13.2328 33.3572 14.503 34.6414L16.7395 32.3759C15.7618 31.3891 14.9862 30.2161 14.4572 28.9245C13.9283 27.6329 13.6564 26.248 13.6573 24.8496Z" fill="url(#paint0_linear_63_1844)"/>
<path d="M24.1669 14.1996C24.3429 14.1996 24.5178 14.2061 24.6917 14.2148L24.8494 11.0183C24.6234 11.0074 24.3958 11.002 24.1669 11.002C22.3719 10.9997 20.5942 11.3569 18.9357 12.0529C17.2773 12.7489 15.7709 13.77 14.5029 15.0577L16.7394 17.3243C17.7132 16.3331 18.8707 15.5468 20.1454 15.0106C21.4201 14.4743 22.7867 14.1987 24.1669 14.1996Z" fill="url(#paint1_linear_63_1844)"/>
<path d="M24.167 35.5006C23.991 35.5006 23.816 35.5006 23.6412 35.4864L23.4834 38.6819C23.7102 38.6935 23.9381 38.6993 24.167 38.6993C25.9613 38.7012 27.7382 38.3438 29.3957 37.6476C31.0532 36.9514 32.5587 35.9301 33.8257 34.6425L31.5934 32.377C30.6195 33.3676 29.4621 34.1535 28.1877 34.6895C26.9132 35.2256 25.5468 35.5012 24.167 35.5006Z" fill="url(#paint2_linear_63_1844)"/>
<path d="M30.0914 16.0575L32.7486 14.0725C30.3199 12.0794 27.2882 10.9945 24.1631 11V14.1987C26.2793 14.1961 28.3464 14.8442 30.0914 16.0575Z" fill="url(#paint3_linear_63_1844)"/>
<path d="M37.8332 24.8501C37.8349 24.018 37.763 23.1873 37.6185 22.3682L34.6769 24.5652C34.6769 24.6598 34.6769 24.7544 34.6769 24.8501C34.6777 26.3383 34.3699 27.81 33.7735 29.1699C33.1771 30.5298 32.3053 31.7475 31.2148 32.7441L33.3365 35.1206C34.7543 33.8234 35.8872 32.2389 36.6618 30.4697C37.4365 28.7003 37.8355 26.7858 37.8332 24.8501Z" fill="#21A038"/>
<path d="M24.1672 35.5009C22.6987 35.5014 21.2465 35.1893 19.9044 34.5849C18.5625 33.9805 17.3607 33.0972 16.377 31.9922L14.0332 34.1413C15.3129 35.5784 16.8764 36.7267 18.6222 37.512C20.368 38.2972 22.2572 38.7018 24.1672 38.6995V35.5009Z" fill="url(#paint4_linear_63_1844)"/>
<path d="M17.1194 16.9556L14.9988 14.5791C13.5806 15.876 12.4473 17.4604 11.6723 19.2297C10.8973 20.999 10.4979 22.9137 10.5 24.8495H13.6573C13.6566 23.3614 13.9645 21.8897 14.5609 20.5298C15.1573 19.1699 16.029 17.9522 17.1194 16.9556Z" fill="url(#paint5_linear_63_1844)"/>
<defs>
<linearGradient id="paint0_linear_63_1844" x1="15.1415" y1="34.2423" x2="11.6091" y2="24.1664" gradientUnits="userSpaceOnUse">
<stop offset="0.14" stop-color="#F1E813"/>
<stop offset="0.3" stop-color="#E6E418"/>
<stop offset="0.58" stop-color="#C9DA26"/>
<stop offset="0.89" stop-color="#A2CC39"/>
</linearGradient>
<linearGradient id="paint1_linear_63_1844" x1="15.4044" y1="15.6233" x2="24.319" y2="12.2711" gradientUnits="userSpaceOnUse">
<stop offset="0.06" stop-color="#0FA7DF"/>
<stop offset="0.54" stop-color="#0098F8"/>
<stop offset="0.92" stop-color="#0290EA"/>
</linearGradient>
<linearGradient id="paint2_linear_63_1844" x1="23.2752" y1="36.7687" x2="33.3352" y2="34.5263" gradientUnits="userSpaceOnUse">
<stop offset="0.12" stop-color="#A2CC39"/>
<stop offset="0.28" stop-color="#86C239"/>
<stop offset="0.87" stop-color="#219F38"/>
</linearGradient>
<linearGradient id="paint3_linear_63_1844" x1="23.5064" y1="12.0713" x2="32.1158" y2="14.6929" gradientUnits="userSpaceOnUse">
<stop offset="0.06" stop-color="#0290EA"/>
<stop offset="0.79" stop-color="#0C89CA"/>
</linearGradient>
<linearGradient id="paint4_linear_63_1844" x1="14.8252" y1="33.7519" x2="24.2051" y2="37.211" gradientUnits="userSpaceOnUse">
<stop offset="0.13" stop-color="#F1E813"/>
<stop offset="0.3" stop-color="#EAE616"/>
<stop offset="0.53" stop-color="#D8DF1F"/>
<stop offset="0.8" stop-color="#BAD52D"/>
<stop offset="0.98" stop-color="#A2CC39"/>
</linearGradient>
<linearGradient id="paint5_linear_63_1844" x1="11.6762" y1="25.2367" x2="15.5174" y2="15.377" gradientUnits="userSpaceOnUse">
<stop offset="0.07" stop-color="#A2CC39"/>
<stop offset="0.26" stop-color="#81C45E"/>
<stop offset="0.92" stop-color="#0FA7DF"/>
</linearGradient>
</defs>
</svg>
