<svg width="201" height="51" viewBox="0 0 201 51" fill="none" xmlns="http://www.w3.org/2000/svg">
<path d="M57.4047 7.5L55.6768 12.2398H79.6136L81.3416 7.5H57.4047ZM54.8138 14.6076L53.0859 19.3464H77.0227L78.7507 14.6076H54.8138ZM52.2279 21.7152L50.5 26.453H74.4369L76.1628 21.7142C76.1638 21.7152 52.2279 21.7152 52.2279 21.7152Z" fill="#009FDF"/>
<path d="M100.822 27.9405V28.0389C101.897 28.4337 102.925 29.1249 103.462 29.5689C105.124 30.9513 105.858 32.7766 105.858 35.1455C105.858 39.0464 103.805 41.8583 100.43 42.7474C99.4025 43.0438 98.3275 43.1422 96.3233 43.1422H86.1064V14.6133H95.152C97.0105 14.6133 98.2803 14.7117 99.4045 15.0071C102.681 15.8962 104.832 18.1666 104.832 21.7691C104.832 23.695 104.148 25.3244 103.024 26.4094C102.535 26.9027 101.851 27.4954 100.824 27.9394L100.822 27.9405ZM91.7775 30.9513V38.4537H95.6894C96.8618 38.4537 97.9388 38.3553 98.7203 37.6149C99.5029 36.8745 99.8445 35.9362 99.8445 34.7025C99.8445 33.7662 99.5994 32.8771 99.1111 32.2352C98.2803 31.1984 97.2526 30.9513 95.4935 30.9513H91.7765H91.7775ZM91.7272 26.0146H94.9058C95.8833 26.0146 96.3726 26.0146 96.8608 25.8669C98.1819 25.4711 99.0127 24.2887 99.0127 22.6592C99.0127 20.7344 98.1326 19.8945 96.8608 19.5007C96.3223 19.352 95.7859 19.3038 94.7099 19.3038H91.7272V26.0156V26.0146ZM114.365 43.1432V19.4013H106.201V14.6143H128.888L127.274 19.4013H120.037V43.1432H114.365ZM130.648 43.1432V14.6143H149.032L147.419 19.4013H136.272V25.7203H140.82C144.486 25.7203 146.393 26.6093 147.714 27.7435C148.742 28.6326 150.501 30.6057 150.501 34.5066C150.501 38.3563 148.693 40.478 147.176 41.565C145.416 42.7976 143.558 43.1442 139.792 43.1442H130.649H130.648V43.1432ZM136.271 38.3543H140.524C142.138 38.3543 143.115 37.9594 143.799 37.0704C144.141 36.6273 144.63 35.8357 144.63 34.3559C144.63 32.8761 144.141 31.8383 143.163 31.0979C142.578 30.6549 141.794 30.4088 140.474 30.4088H136.269V38.3543H136.271Z" fill="#0A2973"/>
</svg>
