<svg width="200" height="50" viewBox="0 0 200 50" fill="none" xmlns="http://www.w3.org/2000/svg">
<path d="M35 43.628L53.8012 43.6025L53.7884 24.9927C49.8699 32.4213 42.5307 37.2461 35 39.0968C35.0255 40.5009 35 43.628 35 43.628Z" fill="#008FB4"/>
<path d="M41.0117 34.2592C48.1084 30.6726 51.5291 24.1247 51.5291 24.1247C51.5291 24.1247 51.5036 21.9676 51.5036 21.9293C47.5979 20.5508 44.0495 18.5342 41.0245 15.5219C41.0372 20.6274 41.0117 34.2592 41.0117 34.2592ZM42.0201 6.08936C42.0201 6.08936 42.0201 11.782 42.0073 13.1988C43.8836 14.9347 44.8154 15.7388 46.7555 16.9769L46.7682 9.34414C44.5601 8.13157 43.7049 7.49338 42.0201 6.08936Z" fill="#008FB4"/>
<path d="M69.9219 12.0884C69.756 11.0673 69.1816 10.3908 68.2243 10.0717C67.7521 9.91852 67.2287 9.82917 66.5905 9.79088C66.2076 9.76535 65.812 9.79088 65.4418 9.82917H65.2886V7.60826L67.1011 7.62102L69.105 7.90183L69.1816 6.08936H62.9911L63.2336 8.34856L63.2592 13.4031L62.9784 15.8027H63.3358C63.3358 15.8027 64.1782 15.7899 64.5866 15.8027C64.8036 15.8027 65.0206 15.8154 65.2376 15.8282C65.5439 15.841 65.8502 15.8665 66.1566 15.8665H66.3736C67.5351 15.841 68.4285 15.5474 69.0923 14.9858C70.1006 14.1051 70.0496 12.918 69.9219 12.0884ZM67.9052 12.5862C67.9052 12.8032 67.8925 12.9818 67.8669 13.1478C67.7904 13.6073 67.5478 13.9264 67.1522 14.0923C66.6288 14.3221 66.0545 14.3731 65.2759 14.2838V11.3991C65.9779 11.3098 66.6671 11.2843 67.3053 11.6033C67.7138 11.8203 67.9052 12.1394 67.9052 12.5862ZM76.0613 7.1998L75.7677 6L73.7255 6.02553L73.4958 7.08493L71.0323 13.4669L69.9602 15.7516L72.0917 15.7899L72.4619 14.0412L72.9725 12.7138H76.0358L76.7378 14.4114L77.108 15.7771H79.865L78.9204 14.1561L76.0613 7.1998ZM75.4614 11.2332C75.1423 11.2332 74.8105 11.246 74.4786 11.2587C74.1595 11.2715 73.8276 11.2715 73.5213 11.2842C73.7128 10.8247 73.9042 10.3525 74.0957 9.89298C74.2488 9.54836 74.3892 9.20373 74.5296 8.85911L75.4614 11.2332ZM95.8328 15.7771L98.6409 15.7516L94.1735 10.6843L98.3729 6.0638L95.9094 6.07657L95.1691 7.11044C95.1691 7.11044 93.2801 9.19095 92.259 10.3269V7.81246L92.5525 6.08933H89.9742L90.1274 7.78693L90.1657 13.7732L89.9742 15.7643H92.5525L92.2717 13.7859V11.4119L95.8328 15.7771ZM88.1998 12.867C88.1998 12.216 88.2254 7.85079 88.2254 7.85079L88.4551 6.1149H85.9023L86.1066 7.79973C86.1066 7.79973 86.1065 9.07612 86.1193 9.84195H82.5071C82.4816 8.74426 82.4944 7.62104 82.7752 6.52334L82.8773 6.12766H80.2224L80.2607 6.48505C80.2735 6.61269 80.4266 7.9529 80.4522 8.57833C80.4904 9.88024 80.4777 11.2204 80.4649 12.4968V12.7904C80.4649 13.3393 80.3373 15.0241 80.2735 15.3304L80.1969 15.7006H82.7624L82.7241 15.3432C82.6986 15.1134 82.6731 14.8964 82.6475 14.6667C82.5837 14.1689 82.5199 13.6839 82.4944 13.2116C82.4688 12.7266 82.4688 12.2288 82.4816 11.7438V11.3991H86.1576C86.1576 11.6417 86.1576 11.8842 86.1704 12.1267C86.1831 13.2244 86.1959 14.271 85.9151 15.3049L85.813 15.7006H88.4934L88.404 15.3177C88.2254 14.4242 88.1998 13.5307 88.1998 12.867ZM120.365 20.5508L120.441 20.1679H114.966L115.004 20.5253C115.195 22.1718 115.336 23.7035 115.438 25.2351C115.502 26.3328 115.489 27.456 115.476 28.5537C115.476 28.9367 115.463 29.3323 115.463 29.7153H105.227C105.176 26.7157 105.138 23.6141 105.916 20.5763L106.018 20.1806H100.377L100.428 20.538C100.428 20.5763 100.849 24.2268 100.913 25.9627C101.015 29.3068 100.989 32.7148 100.951 36.0078V36.7864C100.938 38.2288 100.619 42.6068 100.466 43.3854L100.389 43.7683H105.827L105.788 43.4109C105.725 42.8365 105.648 42.2749 105.584 41.7133C105.418 40.4624 105.265 39.1733 105.189 37.9224C105.112 36.6588 105.138 35.3569 105.15 34.106C105.15 33.6465 105.163 33.187 105.163 32.7275H115.566C115.566 33.5061 115.566 34.2975 115.578 35.0633C115.617 37.9352 115.655 40.6411 114.915 43.3726L114.8 43.781H120.454L120.378 43.3981C119.931 41.0751 119.854 38.7648 119.841 37.0162C119.829 35.2675 119.841 27.5454 119.918 25.4011C119.982 23.3588 120.122 21.7761 120.365 20.5508ZM86.9745 40.8964V32.5233C89.5911 32.5999 94.5817 32.9956 94.6328 32.9956L94.9774 33.0211L94.9902 29.192L86.9745 29.6515V23.0525C89.3613 23.027 93.8414 23.0015 96.1644 23.7162L96.5218 23.8311L96.5729 23.461C96.7388 22.2484 96.624 20.5508 96.6112 20.487L96.5857 20.1934H82.1242L82.188 20.5636C82.673 23.6652 82.6475 26.8051 82.6092 29.8429C82.5965 30.5449 82.5965 31.2469 82.5965 31.9617C82.6347 36.4546 82.1497 43.3598 82.137 43.4237L82.1114 43.7683L96.4963 43.8321L96.5091 43.513C96.5346 42.7472 96.5984 40.6922 96.6367 40.3986L96.6878 39.9647L96.2538 40.054C93.3947 40.6284 90.6888 40.8837 86.9745 40.8964ZM74.6829 30.5577C74.7467 30.5194 74.8105 30.4684 74.8743 30.4301C76.1763 29.5494 77.6696 28.2475 77.759 26.0265C77.8866 22.9632 76.2145 20.7934 73.164 20.0913C70.5346 19.4787 67.8287 19.5808 64.893 20.3849L64.8547 20.3977C63.4379 20.7934 63.1954 20.921 63.2337 21.2529C63.3103 21.8783 63.4379 22.5675 63.5528 23.244C63.6421 23.7418 63.7315 24.2396 63.7953 24.7246C63.8208 24.9033 63.9485 25.0437 64.1144 25.1075C64.2803 25.1586 64.4718 25.1075 64.5867 24.9799L64.7654 24.7884C66.1438 23.3334 67.9436 22.6569 70.2283 22.6952C71.6834 22.7207 72.8959 23.6397 73.1767 24.9288C73.5597 26.703 72.9087 28.2475 71.543 28.8601C70.8792 29.1537 70.1134 29.3707 69.1944 29.5366C68.3009 29.6898 66.5395 29.8174 66.514 29.8174L66.1949 29.8429L66.3225 32.8552L66.6416 32.8424C66.6544 32.8424 68.2244 32.7914 69.539 32.7914C70.1262 32.7914 72.028 32.919 72.9981 33.5062C73.8532 34.0167 74.4659 34.8591 74.6446 35.7526C74.8999 37.0928 75.1296 40.2838 71.6451 41.0496C68.6328 41.7133 66.1694 41.0496 64.3441 39.084C64.191 38.918 64.025 38.7521 63.8464 38.5479L63.6549 38.3437C63.54 38.216 63.3741 38.1777 63.2082 38.2288C63.055 38.2799 62.9401 38.4203 62.9146 38.5862L62.8252 39.3265C62.7359 40.054 62.6593 40.7305 62.5444 41.3942C62.4551 41.9686 62.6465 42.3515 63.1954 42.6451C65.2249 43.7556 67.4713 44.3172 69.8709 44.3172C70.3304 44.3172 70.7899 44.2916 71.2622 44.2533C73.1895 44.0874 74.9637 43.3854 76.3805 42.2111C78.4482 40.5135 79.3927 38.4585 79.163 36.0972C78.9843 33.3785 77.4526 31.515 74.6829 30.5577ZM143.621 33.4934V32V30.6087C143.608 27.2646 143.595 23.8056 144.195 20.5635L144.259 20.1806H138.617L138.694 20.5635C138.885 21.5719 139.051 22.6441 139.179 23.7418C139.217 24.0864 139.179 24.2523 139 24.4438C137.213 26.3583 135.452 28.3112 133.767 30.2003C132.222 31.9234 130.627 33.6976 128.993 35.459C129.031 33.9784 129.006 32.5105 128.968 31.0682C128.891 27.456 128.827 24.0353 129.721 20.6018L129.823 20.1934H124.041L124.168 20.6018C124.704 22.3633 124.704 24.0864 124.717 25.9116V27.673C124.73 30.7491 124.743 33.9273 124.704 37.0417C124.704 37.514 124.717 37.9862 124.73 38.4457C124.756 39.3137 124.781 40.1944 124.692 41.0623C124.641 41.5856 124.513 42.0962 124.385 42.6323C124.322 42.8748 124.271 43.1301 124.219 43.3854L124.143 43.7683H129.708L129.644 43.3981C129.529 42.6323 129.44 41.8665 129.363 41.1261C129.312 40.6922 129.274 40.271 129.223 39.837C129.197 39.6583 129.287 39.3903 129.389 39.2754C130.972 37.5523 132.542 35.8164 134.048 34.1315C135.758 32.217 137.532 30.2513 139.345 28.2985V31.5405C139.332 32.5871 139.345 33.6465 139.357 34.6676C139.37 36.2503 139.396 37.8841 139.319 39.4796C139.281 40.3603 139.128 41.2283 138.974 42.1473C138.898 42.5557 138.834 42.9769 138.77 43.3854L138.719 43.7555H144.259L144.182 43.3726C143.608 40.2837 143.621 36.8375 143.621 33.4934ZM157.865 23.3206C157.865 23.2695 157.865 23.2057 157.878 23.1291L165 24.0481L164.541 20.1424H146.735L146.339 24.0481L153.959 23.1291V38.0246L153.219 43.7939H158.618L157.942 38.1267C157.942 38.0118 157.878 28.1964 157.865 23.3206Z" fill="#191646"/>
</svg>
