<svg width="201" height="50" viewBox="0 0 201 50" fill="none" xmlns="http://www.w3.org/2000/svg">
<path d="M185.41 24.1096C187.669 24.1096 189.5 22.2942 189.5 20.0548C189.5 17.8154 187.669 16 185.41 16C183.15 16 181.319 17.8154 181.319 20.0548C181.319 22.2942 183.15 24.1096 185.41 24.1096Z" fill="#00F500"/>
<path d="M141.141 29.6111C139.062 29.6111 137.426 27.9891 137.426 25.885C137.426 23.7809 139.062 22.159 141.141 22.159C143.219 22.159 144.9 23.7809 144.9 25.885C144.9 27.9891 143.219 29.6111 141.141 29.6111ZM144.9 22.0494H144.458C143.64 20.5809 142.114 19.748 140.367 19.748C137.492 19.748 134.817 22.422 134.817 25.885C134.817 29.348 137.426 31.9782 140.367 31.9782C142.114 31.9782 143.64 31.1453 144.458 29.6768H144.9V31.6713H147.465V20.033H144.9V22.0494ZM21.8241 29.6111C19.7455 29.6111 18.1092 27.9891 18.1092 25.885C18.1092 23.7809 19.7455 22.159 21.8241 22.159C23.9026 22.159 25.5831 23.7809 25.5831 25.885C25.5831 27.9891 23.9026 29.6111 21.8241 29.6111ZM25.5831 22.0494H25.1409C24.3227 20.5809 22.797 19.748 21.0501 19.748C18.1756 19.748 15.5 22.422 15.5 25.885C15.5 29.348 18.1092 31.9782 21.0501 31.9782C22.797 31.9782 24.3227 31.1453 25.1409 29.6768H25.5831V31.6713H28.1481V20.033H25.5831V22.0494ZM159.693 24.6357H153.678V20.033H151.113V31.6933H153.678V27.0686H159.693V31.6933H162.258V20.033H159.693V24.6357ZM171.324 25.7316L177.405 20.033H173.889L168.427 25.3809V20.033H165.862V31.6933H168.427V26.3234L173.933 31.6933H177.714L171.324 25.7316ZM128.714 29.4138H124.579V26.4768H128.714C129.886 26.4768 130.439 27.0905 130.439 27.9453C130.439 28.8001 129.908 29.4138 128.714 29.4138ZM129.001 24.1974H124.557V22.2905H132.097V20.033H121.992V31.6933H129.023C131.434 31.6933 133.07 30.1152 133.07 27.9672C133.07 25.8193 131.389 24.1974 129.001 24.1974ZM97.8233 29.5891C95.7005 29.5891 94.1306 27.9672 94.1306 25.885C94.1306 23.7809 95.7005 22.159 97.8233 22.159C99.8797 22.159 101.516 23.7809 101.516 25.885C101.516 27.9672 99.9239 29.5891 97.8233 29.5891ZM97.8233 19.748C94.7276 19.748 92.2289 21.8522 91.6761 24.6576H89.5091V20.033H86.922V31.6933H89.487V27.0467H91.654C92.1847 29.8741 94.7276 32.0001 97.8012 32.0001C101.273 32.0001 104.081 29.2823 104.081 25.907C104.103 22.4659 101.273 19.748 97.8233 19.748ZM105.032 22.4439H109.344V31.6713H111.909V22.4439H116.221V20.033H105.032V22.4439ZM76.6841 20.033L71.6426 31.6933H74.3624L78.2762 22.3782L82.19 31.6933H85.0204L79.9788 20.033H76.6841ZM50.8572 22.1371C53.378 22.1371 54.0856 24.0659 54.0856 24.0659H56.8054C56.8054 24.0659 55.7219 19.748 50.8572 19.748C47.3635 19.748 44.6216 22.4659 44.6216 25.885C44.6216 29.3261 47.3635 32.022 50.8572 32.022C55.7219 32.022 56.8054 27.7042 56.8054 27.7042H54.0856C54.0856 27.7042 53.378 29.633 50.8572 29.633C48.8008 29.633 47.253 28.0111 47.253 25.907C47.253 23.8028 48.8008 22.1371 50.8572 22.1371ZM38.5408 29.37H34.3616V26.4768H38.5187C39.6906 26.4768 40.2434 27.0905 40.2434 27.9453C40.2434 28.8001 39.7348 29.37 38.5408 29.37ZM38.8504 24.1974H34.3616V22.3124H41.9239V20.033H31.7966V31.6933H38.8504C41.2385 31.6933 42.8969 30.1152 42.8969 27.9672C42.8969 25.8193 41.2164 24.1974 38.8504 24.1974ZM64.6331 29.5891C62.4661 29.5891 60.874 27.9672 60.874 25.885C60.874 23.7809 62.4661 22.159 64.6331 22.159C66.7337 22.159 68.3921 23.7809 68.3921 25.885C68.3921 27.9672 66.7779 29.5891 64.6331 29.5891ZM64.6331 19.748C61.073 19.748 58.2648 22.4659 58.2648 25.885C58.2648 29.2823 61.073 31.9782 64.6331 31.9782C68.171 31.9782 71.0234 29.2604 71.0234 25.885C71.0234 22.4659 68.1046 19.748 64.6331 19.748Z" fill="#FF5000"/>
</svg>
