<svg width="201" height="51" viewBox="0 0 201 51" fill="none" xmlns="http://www.w3.org/2000/svg">
<path fill-rule="evenodd" clip-rule="evenodd" d="M33.5122 7.5C23.5762 7.5 15.5 15.5732 15.5 25.5098C15.5 35.4258 23.5762 43.5 33.5122 43.5C43.4258 43.5 51.5 35.4258 51.5 25.5098C51.5 15.5732 43.4258 7.5 33.5122 7.5ZM33.5122 42.5996C24.0762 42.5996 16.3999 34.9297 16.3999 25.5098C16.3999 16.0703 24.0732 8.40039 33.5122 8.40039C42.9321 8.40039 50.6001 16.0742 50.6001 25.5098C50.6001 34.9277 42.9292 42.5996 33.5122 42.5996ZM86.3911 22.3281C86.3911 23.4727 85.3281 23.8486 84.7461 23.8486H83.207V27.1777H84.6641C85.8921 27.1777 86.4521 27.7607 86.4521 28.6357C86.4521 29.2578 85.9961 30.1143 84.8301 30.1143C84.1431 30.1143 83.457 30.0742 82.437 29.6338L82.374 32.8643C82.7075 33.0459 83.0239 33.1904 83.3413 33.3037C84.0742 33.5645 84.8145 33.6602 85.7871 33.6738C88.4102 33.6738 90.4492 32.0508 90.4492 29.1143C90.4492 26.7393 89.0332 25.7227 87.9731 25.3857V25.2412C89.0742 24.7812 90.2002 23.5977 90.2002 21.6396C90.2002 19.6211 88.8892 17.5596 85.9312 17.5596C85.3184 17.5527 84.707 17.5947 84.1025 17.6836C83.6611 17.749 83.2231 17.8389 82.791 17.9541L82.832 21.3291C83.603 20.9541 84.3931 20.8906 84.8081 20.8906C85.1641 20.8906 86.3911 20.9756 86.3911 22.3281ZM120.145 33.5498C124.411 33.5498 125.845 29.5498 125.845 25.5742C125.845 21.5996 124.411 17.6006 120.145 17.6006C115.879 17.6006 114.445 21.5996 114.445 25.5742C114.445 29.5498 115.879 33.5488 120.145 33.5498ZM120.145 29.7793C118.873 29.7793 118.231 28.3027 118.231 25.5742C118.231 22.8457 118.873 21.3682 120.145 21.3682C121.416 21.3682 122.058 22.8457 122.058 25.5742C122.058 28.3027 121.416 29.7793 120.145 29.7793ZM130.634 17.8301H127.575V33.3613H131.174V23.8877L133.336 26.5938L135.5 23.8877V33.3613H139.103V17.8291H136.065L133.336 21.4941L130.634 17.8301ZM141.537 33.3613H145.823C146.759 33.3613 150.652 32.9648 150.672 28.2578C150.672 24.3076 147.656 23.6182 145.699 23.6182H145.054V21.5576H149.819V17.8301H141.537V33.3613ZM145.054 30.2383V26.7197H145.574C145.795 26.7197 146.193 26.7256 146.532 26.9385C146.862 27.1465 147.136 27.5518 147.136 28.3428C147.136 29.9697 146.01 30.2383 145.574 30.2383H145.054ZM163.617 17.8301H167.134V23.4307H169.652V17.8301H173.167V33.3623H169.652V27.1367H167.134V33.3623H163.617V17.8301ZM175.539 17.8301H179.078L179.057 23.4102H179.826L181.845 17.8301H185.674L182.926 25.2021L186.07 33.3623H181.927L179.89 27.1152H179.057L179.078 33.3613H175.539V17.8301ZM155.023 33.3818H151.36L154.46 17.8516H158.997L162.077 33.3818H158.415L157.977 30.6963H155.461L155.023 33.3818ZM157.394 27.2812L156.728 22.5547L156.041 27.2812H157.394ZM107.616 33.3613H104.016V17.8291H108.825C112.215 17.8291 113.485 20.9932 113.485 22.9912C113.485 25.0342 112.381 28.2412 108.825 28.2412H107.616V33.3613ZM108.47 21.2441H107.616L107.617 24.8242H108.47C108.928 24.8242 109.803 24.7002 109.803 23.0342C109.803 21.7441 109.282 21.2441 108.47 21.2441ZM92.1338 17.8301H101.956V33.3604H98.355V21.5771H95.7349V33.3613H92.1338V17.8301ZM70.5981 33.3613H74.2383L74.6973 30.6738H77.2153L77.6514 33.3613H81.291L78.2109 17.8291H73.6763L70.5981 33.3613ZM75.9443 22.5137L76.6323 27.2607H75.2573L75.9443 22.5137ZM71.0107 17.8301H63.627V33.3604H67.2871V21.7002H71.0107V17.8301ZM38.6196 14.1934C35.771 12.9229 30.4629 12.7969 26.1147 14.7334C26.6748 14.333 27.2744 13.9932 27.9048 13.7168C29.2739 13.0791 31.4819 12.4609 34.2339 12.4609C34.3638 12.4609 34.4937 12.4619 34.624 12.4648C36.9771 12.5068 39.7666 13.3193 41.4717 15.0059C41.6426 15.2139 41.771 15.4219 41.8604 15.6133C41.9229 15.7471 41.9663 15.8721 41.9917 15.9844C43.3447 16.6719 44.1348 17.3164 44.5708 18.0664C44.7598 18.4609 44.8218 18.876 44.7368 19.3555C45.1807 19.6045 45.5654 19.9463 45.8647 20.3584C45.9604 20.5205 46.0454 20.6924 46.1113 20.8652C46.1729 21.0254 46.2173 21.1855 46.2378 21.3379C46.2988 21.751 46.3398 22.2295 45.9028 22.793C46.3608 23.0225 46.7339 23.665 46.7788 23.9385C47.0078 24.9551 46.3398 25.9551 45.4878 26.7275C44.4878 27.6006 42.2817 28.6416 40.4917 29.1006C36.958 29.9951 33.813 30.3711 31.3179 30.8301C32.4409 31.0996 33.959 31.4551 36.437 31.4551C41.7407 31.4551 46.4238 28.9541 46.4238 28.9541C46.4238 28.9541 46.3208 29.2686 46.2148 29.5605C42.8447 31.5996 37.498 32.4521 35.207 32.3477C32.897 32.2422 30.9419 31.8896 29.0269 31.3057C28.4419 31.4707 27.8657 31.665 27.3008 31.8896C30.2158 33.2217 32.4199 33.5146 34.897 33.7002C37.4336 33.8896 41.6396 33.2832 45.1738 31.9961C45.0078 32.1641 44.9248 32.4121 44.7598 32.5576C43.5537 33.1953 41.4541 33.833 39.6143 34.2119C38.6909 34.4023 37.833 34.5283 37.186 34.5557C35.27 34.6396 32.9399 34.5557 30.8999 34.1797C29.1519 33.8281 27.7139 33.2832 26.2168 32.6201C25.9487 32.8252 25.8237 33.0781 25.7588 33.3701C31.6099 36.4297 37.0586 36.4902 43.2837 34.5557L42.7197 35.0977C35.873 37.8877 30.5249 36.8037 26.3818 34.8047L26.207 34.7295C26.1147 34.6895 26.0234 34.6465 25.9487 34.5967C26.3447 35.2637 29.5049 37.5742 33.043 37.8662C35.48 38.0742 38.4546 37.6572 40.2227 36.9512L39.1826 37.4912C38.3286 37.9082 36.061 38.8682 32.896 38.6582C28.6729 38.3652 26.2998 36.4912 25.2378 35.5146C24.7388 35.0537 24.5117 34.5352 24.3647 33.8896C23.6724 33.5283 23.165 33.1553 22.7495 32.6777C22.5903 32.4941 22.4443 32.2959 22.3066 32.0771C22.0146 31.6406 22.0747 31.1211 22.1367 30.6807L22.2666 30.3105C21.8057 29.9736 21.3276 29.6201 21.1406 29.2686C20.7217 28.5186 20.9756 27.8721 21.2656 27.3721C21.0146 27.0811 20.7847 26.79 20.6851 26.499C20.5586 26.166 20.5391 25.8291 20.5767 25.4561C20.6616 24.833 20.9946 24.252 21.4316 23.75C22.3457 22.6875 23.8057 21.8555 26.2788 21.0439C28.7158 20.2295 29.6948 20.1045 31.5259 19.6865C32.3398 19.498 33.2144 19.3574 34.103 19.2139C35.5537 18.9805 37.0425 18.7402 38.3706 18.2754C32.3979 17.2354 26.1978 18.1914 21.1406 21.665L21.4727 20.6875C26.0088 17.7324 31.0249 15.9844 39.5146 17.4629C39.9727 17.1914 40.2427 16.9199 40.3696 16.3799C38.2456 15.6104 35.937 15.3398 32.9619 15.3799C30.2969 15.4648 25.4878 16.46 22.9116 17.9854L23.6987 17.0049C25.4878 15.9395 30.1699 14.5469 33.6899 14.4844C36.1641 14.4229 37.4336 14.5674 40.3896 15.3594C40.1353 14.8965 39.5952 14.6465 38.7993 14.2764L38.6196 14.1934ZM43.1558 18.5254C43.0747 17.9424 42.4087 17.3799 41.8247 17.0049C41.7417 17.2969 41.4326 17.6504 41.2227 17.8799C41.8677 18.0479 42.5337 18.2939 43.1558 18.5254ZM40.3076 18.7109C39.8887 19.0449 39.4126 19.335 38.7026 19.6084C39.3325 19.7188 39.8774 19.8662 40.4014 20.0225C40.8491 20.1553 41.2817 20.2939 41.7407 20.4189C41.751 20.4238 41.7627 20.4258 41.7739 20.4248C41.9907 20.4248 42.7036 19.7656 42.8267 19.585C42.1147 19.2725 41.2407 18.959 40.3076 18.7109ZM44.7598 21.7715C45.0288 21.251 44.8628 20.918 44.3027 20.4385C44.0728 20.7119 43.8228 20.9385 43.5527 21.1465C43.9888 21.3545 44.3867 21.502 44.7598 21.7715ZM35.397 20.6699C32.6499 21.0029 29.6099 21.583 27.0098 22.3545L26.8711 22.3965C25.5806 22.7891 20.7007 24.2695 22.1826 26.3105C22.1978 26.3105 23.123 25.0342 26.6128 24.0195C28.8936 23.3496 31.2319 22.9238 33.6069 22.4912C35.7402 22.1025 37.9033 21.708 40.0796 21.127C38.2891 20.6504 37.2866 20.4385 35.397 20.6699ZM38.3721 23.1885C36.895 23.5625 33.314 24.083 29.4658 24.915C28.2578 25.1855 24.9478 25.9551 23.3247 27.3301C23.5356 27.5039 23.7114 27.6152 23.8882 27.7129C24.0947 27.8271 24.3032 27.9229 24.5718 28.0801C25.2378 27.6416 26.1548 27.2256 27.5098 26.8701C29.8569 26.2471 31.6299 25.9785 33.752 25.627C35.854 25.3086 39.8276 24.4766 42.0117 23.6855C42.5254 23.5117 43.0063 23.2949 43.4121 23.043C43.584 22.9365 43.7427 22.8242 43.8848 22.7061C43.7388 22.542 42.3237 21.8555 42.2817 21.9189C41.4106 22.334 40.1616 22.749 38.3721 23.1885ZM33.25 27.375C31.6582 27.6387 30.1245 27.8926 28.5059 28.29C27.7778 28.4746 27.0288 28.7051 26.3447 28.9951C27.0288 29.3496 27.7788 29.6631 28.5269 29.9551C30.0249 29.5176 30.7358 29.3301 32.896 28.9766C33.729 28.8281 36.2681 28.3711 38.0986 28C41.4106 27.2891 46.2588 25.748 44.9688 23.75C44.9043 23.8047 44.8398 23.8545 44.7754 23.9043C44.6938 23.9688 44.6128 24.0332 44.5317 24.1045C43.5527 24.8496 41.9917 25.4561 39.8496 26.0195C37.3643 26.6924 35.2607 27.041 33.25 27.375ZM23.251 29.0967C23.3135 29.0488 23.3745 29.001 23.4297 28.9541C23.1616 28.8154 22.9604 28.6943 22.7559 28.5654L22.4507 28.3701C22.3774 28.5371 22.4014 28.71 22.479 28.8672C22.5781 29.0674 22.7651 29.2432 22.9507 29.3496C23.0405 29.2598 23.1475 29.1768 23.251 29.0967ZM26.8198 30.5576C26.2168 30.2871 25.5728 30.0186 24.9478 29.7266C24.6567 29.9141 24.3877 30.0996 24.1787 30.2871C24.6777 30.5791 25.1577 30.8477 25.6577 31.1221C26.0254 30.8955 26.4146 30.7061 26.8198 30.5576ZM24.3877 32.4951C24.4478 32.2852 24.5537 32.1201 24.6997 31.9121C24.3438 31.7217 23.9907 31.5361 23.6377 31.3057C23.6147 31.7031 23.8667 32.0566 24.3877 32.4951Z" fill="#476BF0"/>
</svg>
