<svg width="201" height="50" viewBox="0 0 201 50" fill="none" xmlns="http://www.w3.org/2000/svg">
<path d="M34.7192 13V20.5769L40.8851 13H34.7192ZM21.4426 16.6049C21.8727 15.9136 22.3347 15.3682 22.9744 14.8557L23.4601 14.5259C23.9192 14.2762 24.3347 14.1101 24.8481 13.9824C25.159 13.9268 25.4456 13.8964 25.7659 13.8859C26.1941 13.9002 26.5607 13.9539 26.9768 14.0566C27.2687 14.1498 27.5329 14.2544 27.81 14.3858C28.4395 14.7331 28.9182 15.1239 29.4001 15.6529L29.7622 16.1101C30.2933 16.8876 30.6368 17.658 30.8903 18.5578L31.0273 19.1696C31.0453 19.2672 31.0604 19.3642 31.0725 19.4575V13H20.5V19.4749C20.6312 18.7608 20.8414 17.823 21.1636 17.1282L21.4426 16.6049ZM45.2925 14.0473L34.7192 27.0415V29.9897C34.7316 29.8946 34.7477 29.7989 34.7639 29.7024L34.9004 29.0917C35.1547 28.1913 35.4987 27.4202 36.029 26.6423L36.3911 26.1832C36.8036 25.7349 37.2047 25.3877 37.7229 25.0622C37.9895 24.9133 38.2486 24.7918 38.5276 24.6786C39.1504 24.4827 39.6828 24.4069 40.34 24.4265L40.9485 24.5152C41.4576 24.6426 41.8734 24.8087 42.3303 25.0619C42.584 25.2183 42.8128 25.3842 43.045 25.5696C43.7325 26.1867 44.2112 26.8431 44.6303 27.6607L44.8697 28.2117C45.063 28.7318 45.2014 29.4965 45.2928 30.0112C45.2925 30.0112 45.2925 14.0473 45.2925 14.0473Z" fill="#50B848"/>
<path d="M40.0266 35.5536C38.5349 35.5536 37.3195 33.6493 37.3195 31.3117C37.3195 28.9754 38.5349 27.0711 40.0266 27.0711C41.5203 27.0711 42.737 28.9754 42.737 31.3117C42.737 33.6493 41.5203 35.5536 40.0266 35.5536ZM40.0266 25.9648C37.9135 25.9648 36.1914 28.3658 36.1914 31.3117C36.1914 34.2575 37.9138 36.6604 40.0266 36.6604C42.1387 36.6604 43.8635 34.2575 43.8635 31.3117C43.8651 28.3672 42.1387 25.9648 40.0266 25.9648Z" fill="#50B848"/>
<path d="M34.9004 33.5356L34.7639 32.9222C34.7477 32.8252 34.7316 32.73 34.7192 32.6365V39.0953H45.2925V32.6685C45.1592 33.3845 44.9504 34.2701 44.63 34.9666L44.3475 35.4907C43.9174 36.1796 43.4568 36.7228 42.8179 37.2378L42.33 37.5657C41.8728 37.8186 41.4573 37.9828 40.9482 38.1105C40.6327 38.1661 40.3454 38.197 40.0266 38.2075C39.5998 38.1933 39.231 38.1414 38.8152 38.0368C38.5236 37.943 38.2588 37.8382 37.982 37.7089C37.3525 37.3595 36.8732 36.9698 36.3908 36.4416L36.0287 35.9812C35.4987 35.2063 35.1565 34.4338 34.9004 33.5356ZM31.073 22.1045C31.0612 22.1996 31.0459 22.2948 31.0279 22.3923L30.8908 23.0035C30.6373 23.904 30.2938 24.6756 29.7627 25.4513L29.4004 25.9107C28.9902 26.3585 28.5855 26.7055 28.0667 27.0331C27.8028 27.1788 27.5447 27.3011 27.2625 27.4148C26.6376 27.6126 26.1105 27.6884 25.4539 27.6645L24.8478 27.5803C24.3347 27.4524 23.9189 27.2866 23.4598 27.0331C23.2074 26.8748 22.9792 26.709 22.747 26.524C22.0576 25.905 21.5808 25.253 21.1631 24.4329C20.8293 23.6658 20.6489 22.9425 20.5 22.1147V38.0461L31.073 25.0557V22.1045Z" fill="#50B848"/>
<path d="M25.7661 25.0215C24.2739 25.0215 23.0552 23.118 23.0552 20.7821C23.0552 18.4458 24.2739 16.538 25.7661 16.538C27.2563 16.538 28.4706 18.4461 28.4706 20.7821C28.4706 23.118 27.2563 25.0215 25.7661 25.0215ZM25.7661 15.435C23.653 15.435 21.929 17.8354 21.929 20.7818C21.929 23.726 23.653 26.1268 25.7661 26.1268C27.8769 26.1268 29.5992 23.7258 29.5992 20.7818C29.5992 17.8357 27.8769 15.435 25.7661 15.435ZM31.0732 31.5209L24.9071 39.0959H31.0732V31.5209ZM44.9867 13H42.0153L20.8184 39.0959H23.746L44.9867 13ZM33.8084 37.2996H31.9946V39.0959H33.8084V37.2996Z" fill="#50B848"/>
<path d="M46.2071 37.2998V39.0961C47.4465 39.0961 48.4536 40.0895 48.4536 41.3146C48.4536 42.5405 47.4465 43.5339 46.2071 43.5339C45.2946 43.5339 44.4609 43.3294 42.7286 42.9039C39.372 42.0817 35.2395 41.0668 31.9298 40.2551C25.9817 38.7972 20.5249 40.451 20.502 44.3153H22.3152C22.3152 42.8786 25.0979 41.9253 31.057 43.385C36.2112 44.6496 38.1496 45.1251 42.0314 46.0771C44.5942 46.7053 46.695 46.5539 48.2047 45.8344L48.2104 45.8401C49.7201 45.1071 50.7581 43.5721 50.7581 41.8C50.7584 39.3135 48.7194 37.2998 46.2071 37.2998ZM114.01 32.6195H108.694V35.1052H114.01V32.6195ZM137.042 30.9693H132.019V26.0597H129.201V39.0961H132.019V33.4447H137.042V39.0961H139.859V26.0597H137.042V30.9693ZM118.269 34.2651V26.0595H115.452V39.0959H117.616L124.168 30.8526V39.0959H126.985V26.0595H124.791L118.269 34.2651ZM167.871 25.774C166.034 25.7732 164.402 26.2619 163.092 27.4958C161.975 28.5314 161.001 30.2363 161.001 32.5879C160.998 34.4863 161.591 36.1285 163.091 37.5638C164.176 38.5957 165.587 39.3848 167.852 39.3816C169.251 39.3816 170.292 39.0303 171.072 38.6201L171.163 38.5715V35.1077L170.862 35.4641C170.149 36.3038 169.152 36.7921 168.024 36.7932C166.998 36.7932 165.963 36.4258 165.189 35.7246C164.415 35.022 163.895 33.9896 163.894 32.626C163.894 31.4961 164.294 30.428 164.998 29.6461C165.7 28.8642 166.701 28.3645 167.928 28.3635C168.364 28.3643 169.749 28.4527 170.863 29.7321L171.164 30.078V26.6244L171.075 26.5758C169.885 25.9313 168.784 25.774 167.871 25.774ZM104.505 31.5568C104.027 31.9159 103.47 31.9216 102.993 31.921H102.155V28.5341H102.84C103.423 28.5333 104.03 28.5769 104.489 28.901C104.815 29.1429 105.122 29.5633 105.122 30.2084C105.124 30.7139 104.913 31.234 104.505 31.5568ZM106.664 27.0728C106.18 26.6473 105.67 26.3895 105.105 26.2441C104.539 26.0974 103.921 26.0597 103.201 26.0597H99.3377V39.0961H102.155V34.3957H103.582C105.078 34.3965 106.178 33.9648 106.919 33.2225C107.943 32.1928 108.015 30.7768 108.016 30.2659C108.016 29.3217 107.741 28.031 106.665 27.0736L106.664 27.0728ZM171.974 26.0597V28.5344H174.829V39.0964H177.647V28.5344H180.5V26.0597H171.974ZM68.7373 39.0961H76.122V36.6215H71.5541V33.5012H75.9317V31.0265H71.5541V28.5341H76.122V26.0595H68.7373V39.0961ZM147.942 35.8103C147.835 36.042 147.665 36.254 147.392 36.4177C146.894 36.712 146.238 36.7368 145.786 36.7354H144.892V33.5775H145.634C146.166 33.5762 146.771 33.5821 147.255 33.809L147.262 33.8122L147.257 33.8098C147.622 33.9759 147.821 34.2038 147.94 34.439C148.057 34.6736 148.088 34.919 148.088 35.0999C148.088 35.3276 148.049 35.5789 147.942 35.8103ZM144.892 28.4202H145.443C145.924 28.4202 146.365 28.5261 146.672 28.7518C146.978 28.9782 147.172 29.3106 147.175 29.8477C147.175 30.2248 147.087 30.4938 146.956 30.6943C146.761 30.9945 146.457 31.1547 146.153 31.2408C145.852 31.3254 145.562 31.3313 145.424 31.3313H144.892V28.4202ZM148.678 32.071C148.846 31.9463 149.037 31.7799 149.218 31.5523C149.553 31.1324 149.841 30.5134 149.84 29.6566C149.839 28.5446 149.386 27.5058 148.593 26.8946C147.504 26.0517 146.093 26.0622 145.386 26.0595H142.074V39.0959H146.509C147.63 39.0967 148.842 38.9023 149.838 38.0258C150.764 37.1999 150.981 36.0984 150.981 35.3278C150.98 34.6381 150.826 33.5977 150.013 32.8244C149.733 32.5591 149.313 32.2481 148.678 32.071ZM152.509 39.0961H159.894V36.6215H155.326V33.5012H159.703V31.0265H155.326V28.5341H159.894V26.0595H152.509V39.0961ZM66.0363 26.0597H63.2187V36.6217H58.5381V26.0597H55.721V39.0961H64.9319V41.9506H67.5581V36.6215H66.0363V26.0597ZM85.7976 30.9693H80.7741V26.0597H77.957V39.0961H80.7741V33.4447H85.7976V39.0961H88.6147V26.0597H85.7976V30.9693ZM89.7129 28.5341H92.5682V39.0961H95.385V28.5341H98.2393V26.0595H89.7134V28.5341H89.7129ZM80.4487 16.9207H76.5353V13.0244H74.2276V23.4424H76.5353V18.9567H80.4487V23.4418H82.7573V13.0244H80.4487V16.9207ZM67.0503 19.3822L68.2442 16.3984L69.4123 19.3822H67.0503ZM67.3167 13.0244L62.8955 23.4424H65.4005L66.2913 21.3279H70.1249L71.0156 23.4424H73.5021L69.2038 13.0244H67.3167ZM88.7654 17.8536L93.1876 13.0244H90.2402L86.7916 16.9941V13.0244H84.484V23.4424H86.7916V19.0518L86.8304 19.0137L90.3415 23.4426H93.3892L88.7654 17.8536ZM60.1991 21.0112C59.972 21.2268 59.5529 21.4058 58.7923 21.4058L58.0284 21.4064V19.0629H58.8227C59.5433 19.0634 59.9534 19.2403 60.1848 19.4633C60.4157 19.6872 60.4915 19.977 60.4926 20.2648C60.4913 20.5231 60.4262 20.796 60.1991 21.0112ZM61.8524 17.8859C61.0167 17.1486 59.987 17.0268 59.2153 17.0268H58.029V15.061H61.8946V13.0247H55.7207V23.4426H59.2299C59.6768 23.4421 60.2268 23.4085 60.7727 23.2298C61.318 23.0524 61.8612 22.7245 62.27 22.1458L62.2727 22.142L62.2708 22.1447C62.6375 21.6182 62.8603 20.9648 62.8603 20.2487C62.8614 19.2521 62.4628 18.431 61.8524 17.8859Z" fill="#50B848"/>
</svg>
