<svg width="200" height="51" viewBox="0 0 200 51" fill="none" xmlns="http://www.w3.org/2000/svg">
<path d="M144.341 6.5H145.642C145.946 6.68627 146.24 6.90196 146.571 7.04657C146.931 6.94363 147.218 6.68382 147.539 6.5H148.806C148.402 7.29902 147.801 8.15686 146.797 8.1348C145.647 8.32108 144.784 7.45833 144.341 6.5ZM25 8.52206H29.2279V39.4632C31.9877 39.4681 34.7475 39.4657 37.5074 39.4657C40.3211 31.0294 43.1324 22.5956 45.9412 14.1618C48.826 14.1569 51.7108 14.1593 54.5956 14.1593C54.598 22.1446 54.5956 30.1299 54.598 38.1177C51.0539 38.1177 47.5098 38.1201 43.9681 38.1152C44.4338 36.7059 44.9044 35.2966 45.375 33.8873C47.0196 33.8922 48.6618 33.8897 50.3064 33.8897V18.4485C49.8995 18.4485 49.4926 18.451 49.0882 18.451C46.2794 26.8873 43.4632 35.3186 40.6569 43.7549H25V8.52206Z" fill="#93130A"/>
<path d="M30.5832 8.51724C32.0097 8.52459 33.4362 8.52214 34.8627 8.52214C34.8676 15.5001 34.8627 22.4805 34.8651 29.4609C37.2156 22.4927 39.5293 15.5123 41.8479 8.5344C47.9754 8.50499 54.1053 8.5295 60.2327 8.52214V43.755H42.0857C42.5612 42.3261 43.0391 40.8972 43.5146 39.4682C47.6568 39.4609 51.7989 39.4682 55.9435 39.4658V12.8114C52.3063 12.8089 48.669 12.8163 45.0318 12.8089C42.218 21.2476 39.3725 29.6766 36.5685 38.1177C34.571 38.1153 32.5734 38.1177 30.5759 38.1177C30.5808 28.2501 30.5685 18.3849 30.5832 8.51724ZM67.218 8.52214C67.946 8.52214 68.6715 8.52214 69.4019 8.51724C70.1617 10.6324 70.8578 12.7746 71.6347 14.8849C72.3651 12.7623 73.1029 10.6423 73.8308 8.51969C74.5685 8.52214 75.3038 8.52214 76.0416 8.52214V17.0393H74.3872C74.3798 15.0295 74.3994 13.0222 74.3774 11.0123C73.6372 13.005 73.0367 15.0442 72.3063 17.0418C71.843 17.0393 71.3798 17.0369 70.9166 17.0344C70.2671 15.0099 69.5318 13.0148 68.8994 10.9854C68.843 13.0025 68.8847 15.0222 68.8725 17.0393C68.321 17.0393 67.7671 17.0393 67.2156 17.0369C67.218 14.1986 67.218 11.3604 67.218 8.52214ZM80.446 8.50499C82.0784 8.12509 83.946 8.61038 85.0171 9.94372C86.6298 11.7697 86.3357 14.929 84.3382 16.3604C82.1985 18.032 78.62 17.2918 77.5024 14.7599C76.2695 12.3457 77.7597 9.04911 80.446 8.50499ZM80.7475 10.0834C79.6396 10.3849 78.7744 11.4364 78.7352 12.5908C78.5514 14.1325 79.8602 15.6104 81.4019 15.6766C83.2328 15.8285 84.8602 13.9315 84.3504 12.1472C84.0416 10.5761 82.2548 9.59568 80.7475 10.0834ZM86.6935 12.6226C86.7376 10.6717 88.2229 8.7893 90.1788 8.46822C92.1984 8.00008 94.3749 9.10057 95.1592 11.0295C94.5489 11.0344 93.9411 11.0344 93.3332 11.0295C92.3822 9.87998 90.5465 9.57606 89.3896 10.5908C88.0563 11.5859 87.9533 13.7427 89.1911 14.8555C90.2695 15.9952 92.1984 15.9021 93.2131 14.7207C93.843 14.7084 94.4754 14.7109 95.1077 14.7231C94.6371 15.4976 94.1077 16.2942 93.2744 16.7182C91.6249 17.6324 89.37 17.3849 88.022 16.0418C87.1421 15.1447 86.6273 13.8849 86.6935 12.6226ZM99.8602 9.04175C100.304 8.15204 101.419 8.62998 102.206 8.53439C101.15 9.94616 100.047 11.3236 99.0048 12.7452C100.083 14.1619 101.145 15.5932 102.189 17.0344C101.537 17.0393 100.882 17.0393 100.23 17.0418C99.3749 15.8457 98.5318 14.6398 97.6715 13.4486V17.0393H96.0171V8.52214H97.6715C97.6715 9.70351 97.6641 10.8849 97.6813 12.0663C98.4313 11.0761 99.1249 10.0442 99.8602 9.04175Z" fill="#93130A"/>
<path d="M104.998 8.5981C106.618 8.09075 108.556 8.4682 109.723 9.75006C111.265 11.304 111.351 14.032 109.926 15.6864C108.476 17.4682 105.623 17.7624 103.779 16.4315C102.15 15.304 101.512 13.0148 102.262 11.1937C102.718 9.97065 103.752 8.98781 104.998 8.5981ZM105.743 10.054C104.576 10.3162 103.647 11.4143 103.608 12.6153C103.463 14.0075 104.522 15.3776 105.892 15.6177C107.561 16.0099 109.316 14.5981 109.316 12.8849C109.434 11.0565 107.498 9.53683 105.743 10.054ZM112.01 8.5221C113.38 8.58092 114.877 8.2868 116.127 8.99269C117.309 9.70592 117.314 11.5172 116.301 12.3849C117.907 13.1422 117.983 15.7231 116.429 16.5663C115.074 17.2917 113.48 16.9731 112.01 17.0368C112.01 14.1986 112.007 11.3604 112.01 8.5221ZM113.605 10.0858C113.603 10.6569 113.603 11.228 113.605 11.8016C114.044 11.7648 114.495 11.7966 114.922 11.6667C115.4 11.527 115.463 10.9216 115.328 10.5172C114.917 9.99024 114.181 10.1569 113.605 10.0858ZM113.603 13.3457C113.603 14.0491 113.603 14.755 113.605 15.4609C114.292 15.3922 115.147 15.63 115.684 15.0663C116.147 14.6055 115.919 13.7329 115.328 13.5025C114.777 13.2966 114.176 13.38 113.603 13.3457ZM118.422 11.4241C118.863 9.99025 120.076 8.79172 121.566 8.49025C122.755 8.25741 124.081 8.37995 125.093 9.09319C125.809 9.55643 126.27 10.2893 126.679 11.0172C126.059 11.032 125.439 11.0369 124.821 11.0295C124.221 10.4167 123.453 9.8677 122.544 9.97799C120.86 9.97309 119.51 11.7256 119.885 13.3604C120.154 14.7722 121.586 15.8751 123.029 15.6545C123.706 15.5859 124.203 15.0932 124.755 14.7574C125.37 14.6594 125.998 14.7158 126.618 14.728C126.147 15.5197 125.586 16.3089 124.748 16.7427C123.527 17.3996 122 17.4266 120.738 16.8726C118.752 15.9805 117.694 13.4731 118.422 11.4241ZM127.576 8.51965C128.105 8.5221 128.635 8.5221 129.167 8.5221C129.167 9.72063 129.164 10.9168 129.169 12.1153C130.032 10.9266 130.885 9.73044 131.733 8.52701C132.397 8.5221 133.064 8.5221 133.73 8.5221C132.664 9.92161 131.601 11.3212 130.52 12.7084C131.571 14.1618 132.662 15.5883 133.716 17.0393C133.047 17.0393 132.382 17.0368 131.716 17.027C130.882 15.8163 130.02 14.63 129.172 13.4315C129.162 14.6324 129.167 15.8359 129.167 17.0393H127.574C127.574 14.1986 127.571 11.3604 127.576 8.51965ZM134.62 8.52211C135.169 8.52211 135.721 8.52211 136.275 8.51966C136.277 10.4657 136.27 12.4119 136.277 14.3579C137.517 12.4119 138.74 10.4559 139.993 8.51721C140.529 8.51966 141.066 8.52211 141.605 8.52456C141.605 11.3628 141.605 14.2011 141.608 17.0393H139.951C139.949 15.1104 139.956 13.179 139.946 11.2501C138.718 13.1766 137.5 15.1128 136.272 17.0393C135.718 17.0393 135.169 17.0393 134.618 17.0369C134.62 14.1986 134.62 11.3604 134.62 8.52211ZM143.076 8.52211C143.625 8.52211 144.174 8.51966 144.726 8.51721C144.735 10.4706 144.73 12.4217 144.728 14.3726C145.961 12.4266 147.206 10.4878 148.424 8.53437C148.968 8.52456 149.512 8.52211 150.059 8.51721C150.061 11.3579 150.061 14.1986 150.061 17.0393H148.468C148.461 15.0957 148.48 13.1496 148.458 11.206C147.196 13.1251 145.975 15.0736 144.762 17.0246C144.199 17.0344 143.637 17.0393 143.076 17.0442V8.52211ZM169.324 19.8212C169.765 19.8089 170.211 19.7991 170.657 19.7991C170.985 20.4952 171.971 20.5491 172.287 19.8065C172.75 19.804 173.218 19.8089 173.686 19.8212C173.375 20.9584 172.23 21.7011 171.064 21.4364C170.167 21.3775 169.581 20.6128 169.324 19.8212ZM99.233 23.38C100.625 21.4854 103.625 21.157 105.439 22.6226C106.015 23.0638 106.38 23.7035 106.738 24.3236C106.135 24.3236 105.525 24.3849 104.929 24.282C104.36 23.9388 103.863 23.4217 103.174 23.331C101.549 23.0295 99.8751 24.4584 99.929 26.1153C99.8457 27.7182 101.36 29.1668 102.961 28.9952C103.728 29.005 104.333 28.4903 104.873 28.0099C105.483 28.005 106.096 28.0075 106.708 28.0197C106.336 28.6472 105.961 29.304 105.358 29.7403C103.613 31.0761 100.831 30.8481 99.4021 29.1472C98.0124 27.5736 97.8947 25.0222 99.233 23.38ZM67.2182 21.88H68.8726C68.8776 23.8089 68.8628 25.7379 68.88 27.6643C70.1128 25.7403 71.3334 23.8089 72.5589 21.88C73.1055 21.88 73.6545 21.88 74.2035 21.8825C74.1937 24.7232 74.2231 27.5663 74.1888 30.4094C73.6423 30.3996 73.0957 30.3972 72.5491 30.3923C72.5467 28.4584 72.5516 26.5246 72.5491 24.5908C71.2942 26.5124 70.0859 28.4633 68.8457 30.3947C68.3065 30.3972 67.7673 30.3996 67.228 30.4045C67.2035 27.5638 67.2256 24.7232 67.2182 21.88ZM75.6741 21.8824C76.2231 21.88 76.7746 21.88 77.3236 21.8775C77.331 23.0025 77.3285 24.1251 77.3285 25.2501C78.3261 25.2501 79.3261 25.2476 80.3236 25.255C80.3334 24.13 80.331 23.005 80.331 21.88H81.9854V30.3971H80.331C80.331 29.2133 80.331 28.0295 80.3334 26.8457C79.331 26.8432 78.3285 26.8408 77.3261 26.8457C77.331 28.0295 77.3285 29.2133 77.3285 30.3971H75.6741V21.8824ZM83.5565 28.8065C84.6177 26.5026 85.6398 24.179 86.7035 21.8751C87.1839 21.88 87.6668 21.8825 88.1521 21.8849C89.1594 24.1962 90.2354 26.478 91.2452 28.7893C91.5074 28.7991 91.7722 28.8089 92.0393 28.8163C92.032 29.6913 92.0344 30.5638 92.0344 31.4364C91.505 31.4388 90.9731 31.4388 90.4437 31.4413C90.4413 31.0932 90.4413 30.7452 90.4388 30.3972C88.4168 30.3972 86.3947 30.3947 84.3726 30.3996C84.3726 30.6594 84.3751 31.179 84.3775 31.4388H82.782V28.804C82.9756 28.804 83.3628 28.804 83.5565 28.8065ZM87.4021 24.1766C86.7403 25.7256 86.054 27.2624 85.38 28.804H89.4511C88.755 27.2673 88.1079 25.7109 87.4021 24.1766ZM90.7403 21.88C91.4045 21.88 92.0687 21.88 92.7354 21.8776C93.5001 23.3334 94.1618 24.8432 94.9388 26.2942C95.5712 24.8187 96.206 23.3432 96.8604 21.8751C97.4535 21.8776 98.0466 21.88 98.6422 21.8825C97.3751 24.7231 96.0736 27.5491 94.804 30.3923C94.2011 30.3947 93.5957 30.3972 92.9927 30.3996C93.3015 29.6447 93.7746 28.9364 93.9462 28.1398C92.9192 26.0344 91.8089 23.9682 90.7403 21.88ZM106.924 21.88C108.517 21.88 110.11 21.88 111.703 21.8825V23.4707C111.172 23.4731 110.64 23.4732 110.11 23.4732V30.3972H108.456V23.4756C107.946 23.4732 107.434 23.4732 106.924 23.4732V21.88ZM112.439 21.8825C113.775 21.9486 115.179 21.6717 116.463 22.1521C118.174 22.8653 118.397 25.5344 116.946 26.6153C116.125 27.2109 115.061 27.1986 114.093 27.2354C114.093 28.2893 114.093 29.3432 114.091 30.3972H112.439V21.8825ZM114.096 23.4609C114.093 24.1815 114.091 24.9021 114.088 25.6251C114.74 25.5834 115.507 25.728 116.037 25.2477C116.407 24.755 116.333 23.8849 115.725 23.6079C115.213 23.3947 114.637 23.4927 114.096 23.4609ZM118.811 21.88H120.466C120.466 23.8236 120.463 25.7673 120.466 27.7084C121.716 25.7722 122.931 23.8114 124.184 21.8751C124.721 21.8776 125.257 21.88 125.797 21.8825V30.3972H124.203C124.199 28.4388 124.211 26.4829 124.199 24.5271C122.951 26.4731 121.711 28.4217 120.485 30.3825C119.926 30.3923 119.368 30.3972 118.811 30.4021V21.88ZM130.127 21.8824C130.561 21.88 130.998 21.8775 131.434 21.8726C132.647 24.7011 133.799 27.5565 134.993 30.3947C134.387 30.3971 133.784 30.3971 133.181 30.3971C132.892 29.6618 132.598 28.929 132.304 28.1937C131.284 28.1888 130.265 28.1864 129.245 28.2011C128.968 28.9364 128.676 29.6667 128.385 30.3947C127.782 30.3971 127.179 30.3971 126.578 30.3996C127.748 27.554 128.946 24.7207 130.127 21.8824ZM130.782 24.3015C130.485 25.0687 130.186 25.8334 129.887 26.5981H131.679C131.385 25.831 131.088 25.0638 130.782 24.3015ZM135.039 30.3996C136.169 27.5614 137.277 24.7109 138.422 21.8751C138.899 21.88 139.38 21.88 139.86 21.8825C140.971 24.7256 142.11 27.554 143.225 30.3947C142.62 30.3972 142.017 30.3972 141.414 30.3972C140.647 28.3334 139.907 26.2575 139.123 24.1986C138.368 26.2673 137.608 28.331 136.848 30.3996C136.245 30.3972 135.64 30.3972 135.039 30.3996ZM143.995 21.88H145.65C145.65 22.9609 145.65 24.0418 145.647 25.1227C146.689 25.1349 147.848 25.0026 148.743 25.6545C150.167 26.7207 149.98 29.331 148.314 30.0712C146.953 30.6545 145.429 30.3065 143.995 30.3947V21.88ZM145.652 26.7133C145.65 27.4119 145.647 28.1129 145.65 28.8138C146.248 28.7869 146.873 28.8751 147.453 28.6888C148.216 28.4143 148.255 27.2133 147.534 26.8653C146.941 26.6153 146.275 26.7477 145.652 26.7133ZM150.613 21.88H152.267C152.267 23.005 152.265 24.1276 152.27 25.2526C153.27 25.2501 154.27 25.2501 155.27 25.2501C155.27 24.1251 155.267 23.0026 155.272 21.88H156.924V30.3972H155.27C155.27 29.2133 155.267 28.0295 155.272 26.8457C154.27 26.8432 153.267 26.8432 152.265 26.8457C152.267 28.0295 152.267 29.2133 152.267 30.3972H150.613V21.88ZM158.395 21.8825C158.944 21.88 159.495 21.88 160.049 21.88V25.1227C161.093 25.1398 162.272 24.9879 163.162 25.6643C164.615 26.7746 164.348 29.4584 162.593 30.1349C161.255 30.6202 159.797 30.3114 158.407 30.4045C158.377 27.5638 158.402 24.7232 158.395 21.8825ZM160.049 26.7133C160.047 27.4119 160.049 28.1129 160.049 28.8138C160.65 28.7893 161.275 28.8702 161.863 28.6962C162.701 28.3874 162.62 26.9805 161.743 26.782C161.184 26.6839 160.613 26.7207 160.049 26.7133ZM164.89 21.88H166.483V30.3972H164.89V21.88ZM168.015 21.88H169.608C169.61 23.8383 169.603 25.7967 169.613 27.755C170.846 25.7942 172.098 23.8457 173.333 21.8873C173.887 21.8824 174.444 21.88 175 21.8775V30.3947C174.449 30.3971 173.897 30.3971 173.348 30.3996C173.341 28.4511 173.348 26.5025 173.343 24.554C172.1 26.4976 170.863 28.4437 169.632 30.3971H168.015V21.88ZM67.2182 35.2378H72.2428V36.831H68.8727C68.8727 37.38 68.8727 37.929 68.8751 38.478C69.9584 38.5075 71.1888 38.3604 72.1031 39.0687C72.9903 39.7722 73.1717 41.0663 72.8482 42.0957C72.5369 43.0467 71.5859 43.6741 70.6104 43.7354C69.4805 43.7942 68.3482 43.7403 67.2158 43.7526C67.2182 40.9143 67.2182 38.0761 67.2182 35.2378ZM68.8727 40.0687V42.1643C69.782 42.1766 71.4168 42.4094 71.3849 41.0516C71.2084 39.8408 69.7526 40.0957 68.8727 40.0687ZM76.9241 35.2354C77.3531 35.2354 77.7795 35.2329 78.2084 35.2305C79.4094 38.0638 80.5859 40.9094 81.7648 43.7525C81.1594 43.755 80.554 43.755 79.9486 43.7525C79.6717 43.0369 79.3898 42.3236 79.1055 41.6079C78.081 41.6104 77.054 41.6079 76.0295 41.6128C75.755 42.331 75.4707 43.0418 75.1888 43.755C74.5835 43.755 73.9756 43.755 73.3702 43.7525C74.5491 40.9119 75.7256 38.0687 76.9241 35.2354ZM76.6594 40.0172C77.2673 40.0172 77.8727 40.0172 78.4805 40.0197C78.179 39.2403 77.8727 38.4633 77.5785 37.6815C77.2648 38.456 76.956 39.2354 76.6594 40.0172ZM82.5393 35.2354C83.0883 35.2378 83.6398 35.2378 84.1913 35.2378V38.6692C85.1937 38.6692 86.1937 38.6692 87.1937 38.6668V35.2378H88.8481V43.755H87.1937C87.1937 42.5712 87.1913 41.3898 87.1986 40.2084C86.1962 40.1986 85.1937 40.1986 84.1913 40.2011C84.1913 41.3824 84.1888 42.5638 84.1986 43.7452C83.6447 43.7501 83.0908 43.755 82.5368 43.7599C82.5368 40.9168 82.5368 38.0761 82.5393 35.2354ZM94.4976 35.2526C95.1667 35.2378 95.8334 35.2378 96.5025 35.2378C95.4364 36.6423 94.3653 38.0393 93.2917 39.4339C94.3457 40.8825 95.4216 42.3163 96.4903 43.755C95.7256 43.6276 94.5981 44.1276 94.1496 43.2697C93.4241 42.2378 92.706 41.2035 91.9658 40.1864C91.9756 41.3751 91.9731 42.5663 91.9731 43.755H90.3187V35.2378H91.9731C91.9731 36.4192 91.9731 37.6006 91.9707 38.782C92.8334 37.6202 93.6741 36.4413 94.4976 35.2526Z" fill="#93130A"/>
</svg>
