<svg width="200" height="51" viewBox="0 0 200 51" fill="none" xmlns="http://www.w3.org/2000/svg">
<path d="M12.326 33.198C8.101 33.198 4.659 29.808 4.659 25.646C4.659 21.484 8.1 18.093 12.324 18.093H12.804V13.5H12.325C5.532 13.5 0 18.951 0 25.645C0 32.383 5.532 37.834 12.326 37.834H12.805V33.2H12.326V33.198Z" fill="#FF4B5F"/>
<path fill-rule="evenodd" clip-rule="evenodd" d="M14.8081 20.0684V13.7598C20.4709 14.875 24.6951 19.7676 24.6951 25.6465C24.6951 31.5703 20.469 36.4609 14.8081 37.5352V31.2266H12.325C9.18994 31.2266 6.66406 28.7363 6.66406 25.6484C6.66406 22.5586 9.18994 20.0684 12.3262 20.0684H14.8081ZM38.5891 31.1387C39.873 31.1426 41.1179 30.7031 42.116 29.8945L44.0759 31.8281C42.6389 33.1133 40.7229 33.8867 38.5891 33.8867C33.9719 33.8867 30.27 30.1523 30.27 25.6465C30.27 21.1406 33.9719 17.4492 38.5891 17.4492C40.6631 17.4434 42.665 18.209 44.207 19.5957L42.2471 21.5254C41.2361 20.6367 39.9351 20.1484 38.5891 20.1543C35.4951 20.1543 33.0139 22.5996 33.0139 25.6465C33.0139 28.6934 35.4961 31.1387 38.5891 31.1387ZM124.609 25.3887L130.75 18.0938H133.189V33.1992H130.75V22.2988L124.609 29.4219L118.381 22.127V33.2012H115.898V18.0938H118.381V18.1797L118.424 18.0938L124.609 25.3887ZM54.355 33.8438C58.928 33.8438 62.6741 30.1953 62.6741 25.6465C62.6741 21.1406 58.928 17.4492 54.355 17.4492C49.782 17.4492 46.0371 21.1406 46.0371 25.6465C46.0371 30.1523 49.739 33.8438 54.355 33.8438ZM54.312 20.1543C57.405 20.1543 59.887 22.5996 59.887 25.6465C59.887 28.6934 57.405 31.1387 54.312 31.1387C51.219 31.1387 48.7371 28.6934 48.7371 25.6465C48.7371 22.5996 51.219 20.1543 54.312 20.1543ZM105.053 33.8438C109.626 33.8438 113.372 30.1953 113.372 25.6465C113.372 21.1406 109.669 17.4492 105.053 17.4492C100.48 17.4492 96.7341 21.1406 96.7341 25.6465C96.7341 30.1523 100.436 33.8438 105.053 33.8438ZM105.053 20.1543C108.146 20.1543 110.628 22.5996 110.628 25.6465C110.628 28.6934 108.101 31.1387 105.053 31.1387C101.96 31.1387 99.478 28.6934 99.478 25.6465C99.478 22.5996 101.96 20.1543 105.053 20.1543ZM93.3359 18.0938H96.6909L89.1121 25.6895L96.603 33.2012H93.293L86.9771 26.8906H84.4519V33.2012H82.0129V18.0938H84.4519V24.4453H87.022L93.3359 18.0938ZM196.692 18.0938H200L192.465 25.6895L199.913 33.2012H196.603L190.332 26.8906H187.762V33.2012H185.323V18.0938H187.762V24.4453H190.332L196.692 18.0938ZM166.639 33.1992H163.937L162.458 29.9395H154.53L153.05 33.2012H150.35L157.1 18.0938H159.887L166.639 33.1992ZM158.494 21.1836L155.62 27.5352H161.369L158.494 21.1836ZM77.4829 25.6465C78.3711 26.4629 78.877 27.6152 78.877 28.8223C78.877 31.2246 76.917 33.2012 74.4771 33.2441H65.5061V18.0938H74.4771C76.8999 18.0898 78.8689 20.0488 78.877 22.4707C78.877 23.7148 78.3101 24.832 77.4829 25.6465ZM74.4341 20.541H67.988V24.4004H74.4341C75.5229 24.4004 76.3931 23.543 76.3931 22.4707C76.3931 21.3965 75.5229 20.541 74.4341 20.541ZM67.988 30.7969H74.4341C75.5239 30.7969 76.394 29.8945 76.437 28.8242C76.437 28.3145 76.2236 27.8359 75.876 27.4824C75.5212 27.123 75.0269 26.8926 74.4771 26.8926H67.988V30.7969ZM179.792 24.4453V18.1367H182.275V33.1562H179.792V26.8887H170.864V33.1562H168.382V18.1367H170.864V24.4453H179.792ZM145.035 24.4453C147.474 24.4453 149.478 26.418 149.478 28.8223C149.478 31.2246 147.475 33.2012 145.034 33.2422H136.106V18.0938H147.997V20.5391H138.589V24.4453H145.035ZM138.59 30.7969H145.036C146.125 30.7969 146.996 29.8945 146.996 28.8242C146.996 27.793 146.125 26.8926 145.036 26.8926H138.59V30.7969Z" fill="#003791"/>
</svg>
