<svg width="201" height="50" viewBox="0 0 201 50" fill="none" xmlns="http://www.w3.org/2000/svg">
<path d="M88.2452 20.5254C86.1625 20.5254 84.6046 21.2962 83.8339 22.571H83.6673V20.9171H79.8599V38.4359H83.6673V32.8824H83.8339C84.6003 34.1572 86.1625 34.928 88.2452 34.928C92.1527 34.928 95.2518 31.7366 95.2518 27.7246C95.2518 23.7168 92.1527 20.5254 88.2452 20.5254ZM87.4747 31.4617C85.3502 31.4617 83.6673 29.8077 83.6673 27.7246C83.6673 25.6206 85.3502 23.9875 87.4747 23.9875C89.6617 23.9875 91.3237 25.6206 91.3237 27.7246C91.3237 29.8285 89.6407 31.4617 87.4747 31.4617Z" fill="#3B175C"/>
<path d="M173.404 21.5531C171.225 21.5531 169.521 22.3781 168.484 23.8113H168.313C168.596 21.2199 170.063 19.9617 173.22 19.5118L178.748 18.7118V15.208L172.854 16.0455C167.41 16.8037 164.798 19.6867 164.798 24.882C164.798 28.6398 165.039 29.8273 165.709 31.2479C166.764 33.5269 169.376 34.9267 172.534 34.9267C176.786 34.9267 180.068 31.9104 180.068 27.9608C180.065 24.1612 177.352 21.5531 173.404 21.5531ZM172.491 31.4438C170.326 31.4438 168.726 29.9648 168.726 27.9608C168.726 25.936 170.304 24.457 172.491 24.457C174.636 24.457 176.219 25.936 176.219 27.9608C176.219 29.9648 174.616 31.4438 172.491 31.4438Z" fill="#3B175C"/>
<path d="M75.868 16.8029L71.5817 25.4437L65.7414 16.8029H61.1885L69.6655 29.3099L69.4322 29.7849C69.0656 30.5431 68.5824 30.9513 67.466 30.9513H64.4668V34.551H67.8909C70.5027 34.551 71.5566 33.8885 72.6481 31.7097L80.142 16.7988H75.868V16.8029Z" fill="#3B175C"/>
<path d="M117.246 20.9316L116.596 29.3974C116.496 30.7223 116.05 31.2055 114.996 31.2055H114.063V34.651H116.334C118.887 34.651 120.02 33.4845 120.204 31.0514L120.703 24.4729H125.386V34.5344H129.235V20.9316H117.246Z" fill="#3B175C"/>
<path d="M139.158 24.0269C140.716 24.0269 141.953 24.9018 142.541 26.0725L145.944 24.7893C144.994 22.2021 142.299 20.5273 139.079 20.5273C134.763 20.5273 131.506 23.6394 131.506 27.7306C131.506 31.8177 134.768 34.9341 139.079 34.9341C142.299 34.9341 144.994 33.2592 145.944 30.6719L142.541 29.3888C141.953 30.5554 140.716 31.4344 139.158 31.4344C136.992 31.4344 135.43 29.897 135.43 27.7349C135.43 25.5642 136.992 24.0269 139.158 24.0269Z" fill="#3B175C"/>
<path d="M157.966 20.9121L152.055 29.5611V20.9121H148.248V34.5356H152.459L158.333 25.9491V34.5356H162.14V20.9121H157.966Z" fill="#3B175C"/>
<path d="M108.329 22.5661H108.162C107.396 21.2913 105.833 20.5205 103.751 20.5205C99.8433 20.5205 96.7441 23.7119 96.7441 27.7239C96.7441 31.7317 99.8433 34.9272 103.751 34.9272C105.833 34.9272 107.391 34.1565 108.162 32.8816H108.329V34.5356H112.136V20.9122H108.329V22.5661ZM104.526 31.461C102.359 31.461 100.676 29.8279 100.676 27.7239C100.676 25.62 102.339 23.9868 104.526 23.9868C106.65 23.9868 108.333 25.62 108.333 27.7239C108.329 29.8069 106.65 31.461 104.526 31.461Z" fill="#3B175C"/>
<path fill-rule="evenodd" clip-rule="evenodd" d="M36.6721 10.0154C36.866 10.0248 37.0675 10.0378 37.2779 10.0544V12.9327C37.2779 25.6148 37.7614 31.0971 39.6361 39.5511C37.2407 40.1504 34.6999 40.1504 32.3086 39.5464C34.1958 31.0309 34.6828 25.5486 34.6828 12.9327V10.0544C34.9351 10.0343 35.1733 10.0201 35.4014 10.0118C35.603 10.0035 35.7956 10 35.983 10C36.204 10 36.4322 10.0047 36.6721 10.0154ZM50.4565 26.0734C50.4565 21.1408 47.7698 16.8038 43.7331 14.3334L43.7875 17.6821C46.187 19.7448 47.7071 22.7448 47.7071 26.0734C47.7071 26.6278 47.664 27.1727 47.5812 27.7058C47.437 28.6349 47.174 29.5274 46.8117 30.369C45.0747 28.7189 43.8371 26.7779 43.067 24.486C42.1379 21.7117 41.921 18.6738 41.8879 14.9622L41.892 13.3665C41.642 13.2589 41.3885 13.1584 41.132 13.0639C40.5339 12.8452 39.9204 12.6643 39.2969 12.5248L39.301 14.9575C39.3885 27.7732 41.6089 33.0558 44.9122 37.0263C48.2905 34.4766 50.4565 30.5191 50.4565 26.0734ZM32.6597 14.9599L32.6638 12.5272C32.1863 12.6348 31.7146 12.766 31.2519 12.9197C30.8506 13.052 30.4558 13.2022 30.0686 13.3688L30.0728 14.9646C30.0355 18.6727 29.8228 21.7141 28.8937 24.4883C28.1277 26.7803 26.886 28.7177 25.149 30.3714C24.925 29.8501 24.7388 29.3099 24.5952 28.7543C24.3736 27.8962 24.2536 26.999 24.2536 26.0758C24.2536 22.7424 25.7695 19.7471 28.1732 17.6845L28.2276 14.3357C24.1868 16.8015 21.5 21.1384 21.5 26.0758C21.5 30.5215 23.6702 34.479 27.0444 37.0286C30.3559 33.0629 32.5722 27.7756 32.6597 14.9599Z" fill="#3B175C"/>
</svg>
