<svg xmlns:mydata="http://www.w3.org/2000/svg" mydata:contrastcolor="C1C6C8" mydata:template="Contrast" mydata:presentation="2.5" mydata:layouttype="undefined" mydata:specialfontid="undefined" mydata:id1="934" mydata:id2="151" mydata:companyname="NATIVE" mydata:companytagline="Housing made with love" version="1.1" xmlns="http://www.w3.org/2000/svg" xmlns:xlink="http://www.w3.org/1999/xlink" viewBox="100 110 350 270"><g fill="#101820" fill-rule="nonzero" stroke="none" stroke-width="1" stroke-linecap="butt" stroke-linejoin="miter" stroke-miterlimit="10" stroke-dasharray="" stroke-dashoffset="0" font-family="none" font-weight="none" font-size="none" text-anchor="none" style="mix-blend-mode: normal"><g data-paper-data="{&quot;isGlobalGroup&quot;:true,&quot;bounds&quot;:{&quot;x&quot;:114.91032419364026,&quot;y&quot;:115.00000000000001,&quot;width&quot;:320.1793516127194,&quot;height&quot;:240}}"><g data-paper-data="{&quot;textHeightFactor&quot;:0.4766977363515312,&quot;isSecondaryText&quot;:true}"><path d="M123.02363,354.85694v-6.31489h-5.90616v6.31489h-2.20715v-14.30558h2.20715v5.78354h5.90616v-5.78354h2.20715v14.30558z" data-paper-data="{&quot;glyphName&quot;:&quot;H&quot;,&quot;glyphIndex&quot;:0,&quot;firstGlyphOfWord&quot;:true,&quot;word&quot;:1}"></path><path d="M141.46421,347.64284c0,-0.66759 -0.09196,-1.30794 -0.27589,-1.92104c-0.18393,-0.6131 -0.46323,-1.15466 -0.8379,-1.62471c-0.37467,-0.47004 -0.8413,-0.8413 -1.3999,-1.11379c-0.5586,-0.27249 -1.21257,-0.40873 -1.96191,-0.40873c-0.73572,0 -1.38287,0.13624 -1.94147,0.40873c-0.5586,0.27249 -1.02183,0.64035 -1.38969,1.10357c-0.36786,0.46323 -0.64716,1.00139 -0.8379,1.61449c-0.19074,0.6131 -0.28611,1.26025 -0.28611,1.94147c0,0.68122 0.09537,1.32838 0.28611,1.94147c0.19074,0.6131 0.47004,1.15466 0.8379,1.62471c0.36786,0.47004 0.83109,0.84471 1.38969,1.12401c0.5586,0.2793 1.20576,0.41895 1.94147,0.41895c0.74934,0 1.40331,-0.13624 1.96191,-0.40873c0.5586,-0.27249 1.02523,-0.64375 1.3999,-1.11379c0.37467,-0.47004 0.65397,-1.01161 0.8379,-1.62471c0.18393,-0.6131 0.27589,-1.26707 0.27589,-1.96191zM143.69179,347.62241c0,0.95371 -0.13965,1.87335 -0.41895,2.75893c-0.2793,0.88558 -0.70165,1.66558 -1.26707,2.33998c-0.56541,0.67441 -1.26707,1.21597 -2.10496,1.62471c-0.8379,0.40873 -1.80863,0.6131 -2.91221,0.6131c-1.10357,0 -2.0709,-0.20437 -2.90199,-0.6131c-0.83109,-0.40873 -1.52933,-0.9503 -2.09475,-1.62471c-0.56541,-0.67441 -0.98777,-1.4544 -1.26707,-2.33998c-0.2793,-0.88558 -0.41895,-1.80523 -0.41895,-2.75893c0,-0.94008 0.13965,-1.84951 0.41895,-2.72828c0.2793,-0.87877 0.70165,-1.65195 1.26707,-2.31955c0.56541,-0.66759 1.26366,-1.20235 2.09475,-1.60427c0.83109,-0.40192 1.79842,-0.60288 2.90199,-0.60288c1.10357,0 2.07431,0.20096 2.91221,0.60288c0.8379,0.40192 1.53955,0.93667 2.10496,1.60427c0.56541,0.66759 0.98777,1.44078 1.26707,2.31955c0.2793,0.87877 0.41895,1.7882 0.41895,2.72828z" data-paper-data="{&quot;glyphName&quot;:&quot;O&quot;,&quot;glyphIndex&quot;:1,&quot;word&quot;:1}"></path><path d="M154.55041,355c-0.35423,0 -0.68122,-0.02044 -0.98095,-0.06131c-0.66759,-0.09537 -1.2875,-0.27249 -1.85973,-0.53135c-0.57222,-0.25886 -1.07292,-0.59607 -1.50209,-1.01161c-0.42917,-0.41554 -0.76978,-0.90602 -1.02183,-1.47143c-0.25205,-0.56541 -0.3917,-1.19554 -0.41895,-1.89038v-9.48256h2.20715v9.25775c0,0.49048 0.08515,0.91283 0.25546,1.26707c0.1703,0.35423 0.39851,0.65056 0.68462,0.88899c0.28611,0.23843 0.61991,0.42236 1.00139,0.55179c0.38148,0.12943 0.79021,0.21458 1.22619,0.25546c0.06812,0.01362 0.11921,0.02044 0.15327,0.02044c0.03406,0 0.07153,0 0.1124,0h0.30655c0.04087,0 0.07834,0 0.1124,0c0.03406,0 0.08515,-0.00681 0.15327,-0.02044c0.43598,-0.04087 0.84812,-0.12603 1.23641,-0.25546c0.38829,-0.12943 0.7255,-0.31336 1.01161,-0.55179c0.28611,-0.23843 0.51432,-0.53476 0.68462,-0.88899c0.1703,-0.35423 0.25546,-0.77659 0.25546,-1.26707v-9.25775h2.20715v9.48256c-0.02725,0.69484 -0.1669,1.32497 -0.41895,1.89038c-0.25205,0.56541 -0.59266,1.05929 -1.02183,1.48165c-0.42917,0.42236 -0.93327,0.76296 -1.5123,1.02183c-0.57904,0.25886 -1.20916,0.42917 -1.89038,0.51091l-0.71528,0.06131z" data-paper-data="{&quot;glyphName&quot;:&quot;U&quot;,&quot;glyphIndex&quot;:2,&quot;word&quot;:1}"></path><path d="M173.93107,344.00514c-0.38148,-0.46323 -0.80043,-0.79703 -1.25685,-1.00139c-0.45642,-0.20437 -0.99117,-0.30655 -1.60427,-0.30655c-0.79021,0 -1.40672,0.15327 -1.84951,0.45982c-0.44279,0.30655 -0.66419,0.67781 -0.66419,1.11379c0,0.27249 0.09878,0.51432 0.29633,0.7255c0.19755,0.21118 0.45301,0.40192 0.76637,0.57222c0.31336,0.1703 0.65397,0.33039 1.02183,0.48026c0.36786,0.14987 0.7289,0.28611 1.08314,0.40873h-0.02044c0.39511,0.13624 0.8413,0.31336 1.33859,0.53135c0.49729,0.21799 0.96733,0.49729 1.41012,0.8379c0.44279,0.34061 0.81746,0.74934 1.12401,1.22619c0.30655,0.47685 0.45982,1.04226 0.45982,1.69623c0,0.68122 -0.12943,1.2841 -0.38829,1.80863c-0.25886,0.52454 -0.61991,0.96392 -1.08314,1.31816c-0.46323,0.35423 -1.0048,0.62331 -1.62471,0.80724c-0.61991,0.18393 -1.29091,0.27589 -2.013,0.27589c-1.02183,0 -1.97553,-0.21799 -2.86112,-0.65397c-0.88558,-0.43598 -1.75754,-1.13082 -2.61588,-2.08453l1.79842,-1.47143c0.49048,0.68122 1.04567,1.17851 1.66558,1.49187c0.61991,0.31336 1.29772,0.47004 2.03344,0.47004c0.42236,0 0.80724,-0.04087 1.15466,-0.12262c0.34742,-0.08175 0.64716,-0.19755 0.89921,-0.34742c0.25205,-0.14987 0.4496,-0.32698 0.59266,-0.53135c0.14306,-0.20437 0.21458,-0.42917 0.21458,-0.67441c0,-0.34061 -0.10218,-0.64035 -0.30655,-0.89921c-0.20437,-0.25886 -0.46323,-0.48707 -0.77659,-0.68462c-0.31336,-0.19755 -0.66759,-0.36786 -1.0627,-0.51091c-0.39511,-0.14306 -0.77659,-0.27589 -1.14445,-0.39851l-0.49048,-0.18393c-0.46323,-0.16349 -0.91624,-0.3372 -1.35903,-0.52113c-0.44279,-0.18393 -0.8413,-0.42236 -1.19554,-0.71528c-0.35423,-0.29292 -0.64035,-0.65738 -0.85833,-1.09336c-0.21799,-0.43598 -0.32698,-0.97414 -0.32698,-1.61449c0,-0.5041 0.08856,-0.99458 0.26568,-1.47143c0.17712,-0.47685 0.45642,-0.8958 0.8379,-1.25685c0.38148,-0.36105 0.87196,-0.65056 1.47143,-0.86855c0.59947,-0.21799 1.32156,-0.32698 2.16627,-0.32698c0.49048,0 0.96052,0.04087 1.41012,0.12262c0.4496,0.08175 0.88558,0.2214 1.30794,0.41895c0.42236,0.19755 0.83449,0.45642 1.23641,0.77659c0.40192,0.32017 0.80043,0.71869 1.19554,1.19554l-1.9006,1.5123z" data-paper-data="{&quot;glyphName&quot;:&quot;S&quot;,&quot;glyphIndex&quot;:3,&quot;word&quot;:1}"></path><path d="M181.25416,354.85694v-14.30558h2.20715v14.30558z" data-paper-data="{&quot;glyphName&quot;:&quot;I&quot;,&quot;glyphIndex&quot;:4,&quot;word&quot;:1}"></path><path d="M198.3868,354.85694l-7.68414,-10.19784v10.19784h-2.16627v-14.30558h1.73711l7.74545,10.1774v-10.1774h2.16627v14.30558z" data-paper-data="{&quot;glyphName&quot;:&quot;N&quot;,&quot;glyphIndex&quot;:5,&quot;word&quot;:1}"></path><path d="M217.11349,352.58849c-0.6131,0.70847 -1.32156,1.27728 -2.1254,1.70645c-0.80384,0.42917 -1.78479,0.64375 -2.94286,0.64375c-1.08995,0 -2.05728,-0.20777 -2.90199,-0.62331c-0.84471,-0.41554 -1.55318,-0.96392 -2.1254,-1.64514c-0.57222,-0.68122 -1.0082,-1.46121 -1.30794,-2.33998c-0.29974,-0.87877 -0.4496,-1.78139 -0.4496,-2.70784c0,-0.94008 0.12603,-1.8461 0.37808,-2.71806c0.25205,-0.87196 0.64035,-1.64514 1.16488,-2.31955c0.52454,-0.67441 1.18873,-1.21257 1.99256,-1.61449c0.80384,-0.40192 1.75073,-0.60288 2.84068,-0.60288c1.15807,0 2.16287,0.23161 3.01439,0.69484c0.85152,0.46323 1.61789,1.09676 2.29911,1.9006l-1.61449,1.43056c-0.58585,-0.72209 -1.17851,-1.20576 -1.77798,-1.45099c-0.59947,-0.24524 -1.22619,-0.36786 -1.88016,-0.36786c-0.72209,0 -1.34881,0.13965 -1.88016,0.41895c-0.53135,0.2793 -0.97074,0.65397 -1.31816,1.12401c-0.34742,0.47004 -0.60288,1.01161 -0.76637,1.62471c-0.16349,0.6131 -0.24524,1.24663 -0.24524,1.9006c0,0.65397 0.10559,1.2875 0.31677,1.9006c0.21118,0.6131 0.51432,1.15807 0.90943,1.63492c0.39511,0.47685 0.87877,0.85833 1.45099,1.14445c0.57222,0.28611 1.21938,0.42917 1.94147,0.42917c0.5586,0 1.07973,-0.07153 1.5634,-0.21458c0.48366,-0.14306 0.93667,-0.40532 1.35903,-0.78681v-3.20854h-3.84207v-2.20715h6.04922v6.00834z" data-paper-data="{&quot;glyphName&quot;:&quot;G&quot;,&quot;glyphIndex&quot;:6,&quot;lastGlyphOfWord&quot;:true,&quot;word&quot;:1}"></path><path d="M242.32537,354.85694v-9.7278l-4.20993,6.86668l-4.27124,-6.74406v9.60518h-2.14584v-14.30558h1.69623l4.72084,7.52065l4.72084,-7.52065h1.6758v14.30558z" data-paper-data="{&quot;glyphName&quot;:&quot;M&quot;,&quot;glyphIndex&quot;:7,&quot;firstGlyphOfWord&quot;:true,&quot;word&quot;:2}"></path><path d="M257.98658,350.7492h-4.49604l-1.45099,4.10775h-2.45239l5.10914,-14.30558h2.08453l5.10914,14.30558h-2.45239zM254.26713,348.56249h2.92243c-0.13624,-0.39511 -0.26227,-0.74934 -0.37808,-1.0627c-0.11581,-0.31336 -0.22821,-0.62331 -0.3372,-0.92986c-0.10899,-0.30655 -0.2214,-0.62331 -0.3372,-0.9503c-0.11581,-0.32698 -0.24864,-0.70847 -0.39851,-1.14445z" data-paper-data="{&quot;glyphName&quot;:&quot;A&quot;,&quot;glyphIndex&quot;:8,&quot;word&quot;:2}"></path><path d="M279.14521,347.66328c0,0.99458 -0.14306,1.92785 -0.42917,2.79981c-0.28611,0.87196 -0.71869,1.63492 -1.29772,2.28889c-0.57904,0.65397 -1.29772,1.16829 -2.15606,1.54296c-0.85833,0.37467 -1.85973,0.562 -3.00417,0.562h-5.29307v-14.30558h5.29307c1.18532,0 2.21055,0.19074 3.0757,0.57222c0.86515,0.38148 1.58043,0.8958 2.14584,1.54296c0.56541,0.64716 0.98436,1.3999 1.25685,2.25824c0.27249,0.85833 0.40873,1.77117 0.40873,2.7385zM276.89719,347.68372c0,-1.55318 -0.42236,-2.76234 -1.26707,-3.62749c-0.84471,-0.86515 -1.99597,-1.29772 -3.45378,-1.29772h-3.00417v9.89129h3.00417c0.79021,0 1.47824,-0.11921 2.06409,-0.35764c0.58585,-0.23843 1.07632,-0.57222 1.47143,-1.00139c0.39511,-0.42917 0.69144,-0.9503 0.88899,-1.5634c0.19755,-0.6131 0.29633,-1.29431 0.29633,-2.04365z" data-paper-data="{&quot;glyphName&quot;:&quot;D&quot;,&quot;glyphIndex&quot;:9,&quot;word&quot;:2}"></path><path d="M284.22029,354.85694v-14.30558h8.82859v2.20715h-6.62144v3.5764h6.02878v2.20715h-6.02878v4.10775h6.68275v2.20715z" data-paper-data="{&quot;glyphName&quot;:&quot;E&quot;,&quot;glyphIndex&quot;:10,&quot;lastGlyphOfWord&quot;:true,&quot;word&quot;:2}"></path><path d="M321.2445,354.85694h-2.08453l-2.65675,-9.60518l-2.75893,9.60518h-2.14584l-4.00556,-14.30558h2.39108l2.71806,9.58474l2.67719,-9.58474h2.16627l2.65675,9.58474l2.67719,-9.58474h2.37064z" data-paper-data="{&quot;glyphName&quot;:&quot;W&quot;,&quot;glyphIndex&quot;:11,&quot;firstGlyphOfWord&quot;:true,&quot;word&quot;:3}"></path><path d="M330.32513,354.85694v-14.30558h2.20715v14.30558z" data-paper-data="{&quot;glyphName&quot;:&quot;I&quot;,&quot;glyphIndex&quot;:12,&quot;word&quot;:3}"></path><path d="M343.20697,342.75851v12.09843h-2.20715v-12.09843h-3.39247v-2.20715h8.93077v2.20715z" data-paper-data="{&quot;glyphName&quot;:&quot;T&quot;,&quot;glyphIndex&quot;:13,&quot;word&quot;:3}"></path><path d="M359.72651,354.85694v-6.31489h-5.90616v6.31489h-2.20715v-14.30558h2.20715v5.78354h5.90616v-5.78354h2.20715v14.30558z" data-paper-data="{&quot;glyphName&quot;:&quot;H&quot;,&quot;glyphIndex&quot;:14,&quot;lastGlyphOfWord&quot;:true,&quot;word&quot;:3}"></path><path d="M376.41635,354.85694v-14.30558h2.20715v12.09843h6.66231v2.20715z" data-paper-data="{&quot;glyphName&quot;:&quot;L&quot;,&quot;glyphIndex&quot;:15,&quot;firstGlyphOfWord&quot;:true,&quot;word&quot;:4}"></path><path d="M401.51924,347.64284c0,-0.66759 -0.09196,-1.30794 -0.27589,-1.92104c-0.18393,-0.6131 -0.46323,-1.15466 -0.8379,-1.62471c-0.37467,-0.47004 -0.8413,-0.8413 -1.3999,-1.11379c-0.5586,-0.27249 -1.21257,-0.40873 -1.96191,-0.40873c-0.73572,0 -1.38287,0.13624 -1.94147,0.40873c-0.5586,0.27249 -1.02183,0.64035 -1.38969,1.10357c-0.36786,0.46323 -0.64716,1.00139 -0.8379,1.61449c-0.19074,0.6131 -0.28611,1.26025 -0.28611,1.94147c0,0.68122 0.09537,1.32838 0.28611,1.94147c0.19074,0.6131 0.47004,1.15466 0.8379,1.62471c0.36786,0.47004 0.83109,0.84471 1.38969,1.12401c0.5586,0.2793 1.20576,0.41895 1.94147,0.41895c0.74934,0 1.40331,-0.13624 1.96191,-0.40873c0.5586,-0.27249 1.02523,-0.64375 1.3999,-1.11379c0.37467,-0.47004 0.65397,-1.01161 0.8379,-1.62471c0.18393,-0.6131 0.27589,-1.26707 0.27589,-1.96191zM403.74683,347.62241c0,0.95371 -0.13965,1.87335 -0.41895,2.75893c-0.2793,0.88558 -0.70165,1.66558 -1.26707,2.33998c-0.56541,0.67441 -1.26707,1.21597 -2.10496,1.62471c-0.8379,0.40873 -1.80863,0.6131 -2.91221,0.6131c-1.10357,0 -2.0709,-0.20437 -2.90199,-0.6131c-0.83109,-0.40873 -1.52933,-0.9503 -2.09475,-1.62471c-0.56541,-0.67441 -0.98777,-1.4544 -1.26707,-2.33998c-0.2793,-0.88558 -0.41895,-1.80523 -0.41895,-2.75893c0,-0.94008 0.13965,-1.84951 0.41895,-2.72828c0.2793,-0.87877 0.70165,-1.65195 1.26707,-2.31955c0.56541,-0.66759 1.26366,-1.20235 2.09475,-1.60427c0.83109,-0.40192 1.79842,-0.60288 2.90199,-0.60288c1.10357,0 2.07431,0.20096 2.91221,0.60288c0.8379,0.40192 1.53955,0.93667 2.10496,1.60427c0.56541,0.66759 0.98777,1.44078 1.26707,2.31955c0.2793,0.87877 0.41895,1.7882 0.41895,2.72828z" data-paper-data="{&quot;glyphName&quot;:&quot;O&quot;,&quot;glyphIndex&quot;:16,&quot;word&quot;:4}"></path><path d="M414.9733,350.93313c0.6131,-1.74392 1.2296,-3.48102 1.84951,-5.21132c0.61991,-1.73029 1.23641,-3.45378 1.84951,-5.17045h2.45239l-5.10914,14.30558h-2.08453l-5.10914,-14.30558h2.45239z" data-paper-data="{&quot;glyphName&quot;:&quot;V&quot;,&quot;glyphIndex&quot;:17,&quot;word&quot;:4}"></path><path d="M426.19978,354.85694v-14.30558h8.82859v2.20715h-6.62144v3.5764h6.02878v2.20715h-6.02878v4.10775h6.68275v2.20715z" data-paper-data="{&quot;glyphName&quot;:&quot;E&quot;,&quot;glyphIndex&quot;:18,&quot;lastGlyphOfWord&quot;:true,&quot;word&quot;:4}"></path><path d="M114.91032,325.77574v-1.47143h320.17935v1.47143z" data-paper-data="{&quot;isContainerTopLineAboveSecondaryText&quot;:true}"></path></g><g data-paper-data="{&quot;isPrimaryText&quot;:true}"><path d="M117.5254,262.29447c-1.54223,0 -2.61508,1.07285 -2.61508,2.61508v41.70713c0,1.54223 1.07285,2.61508 2.61508,2.61508h5.90069c0.60348,0 1.34107,-0.13411 1.87749,-0.73759c0.60348,-0.60348 0.73759,-1.34107 0.73759,-1.87749v-30.37513l33.99601,31.8503l0.13411,0.13411c0.46937,0.33527 1.07285,1.0058 2.34686,1.0058h7.30881c0.60348,0 1.40812,-0.13411 1.94454,-0.73759c0.60348,-0.53643 0.73759,-1.27401 0.73759,-1.87749v-41.70713c0,-1.54223 -1.13991,-2.61508 -2.68213,-2.61508h-5.90069c-1.54223,0 -2.61508,1.07285 -2.61508,2.61508v30.37513l-33.92895,-31.8503c-0.06705,-0.06705 -0.06705,-0.06705 -0.13411,-0.06705c-0.46937,-0.46937 -1.07285,-1.07285 -2.34686,-1.07285z" data-paper-data="{&quot;glyphName&quot;:&quot;n&quot;,&quot;glyphIndex&quot;:0,&quot;firstGlyphOfWord&quot;:true,&quot;word&quot;:1}"></path><path d="M177.20281,306.81784c0,0.87169 0.33527,1.54223 1.07285,2.07865c0.53643,0.20116 1.0058,0.33527 1.40812,0.33527h6.90649c0.26821,0 0.73759,-0.13411 1.40812,-0.33527c0.73759,-0.46937 1.13991,-1.0058 1.40812,-1.47517l3.68793,-5.63247l6.43711,-10.12504l10.72852,-16.56216c0.20116,-0.20116 0.33527,-0.20116 0.53643,0l17.23269,26.6872l2.27981,3.41972l1.40812,2.21276c0.20116,0.33527 0.60348,1.0058 1.40812,1.47517c0.33527,0.20116 0.80464,0.33527 1.34107,0.33527h6.90649c0.40232,0 0.87169,-0.13411 1.40812,-0.33527c0.73759,-0.53643 1.07285,-1.20696 1.07285,-2.07865c-0.06705,-0.46937 -0.20116,-0.93875 -0.46937,-1.34107l-26.82131,-41.37187c-0.60348,-1.07285 -1.54223,-1.81044 -2.81624,-1.81044h-6.43711c-0.53643,0 -1.0058,0.13411 -1.40812,0.40232c-0.73759,0.46937 -1.13991,1.0058 -1.34107,1.34107l-26.88836,41.37187c-0.20116,0.46937 -0.46937,0.87169 -0.46937,1.40812z" data-paper-data="{&quot;glyphName&quot;:&quot;a&quot;,&quot;glyphIndex&quot;:1,&quot;word&quot;:1}"></path><path d="M233.52755,262.29447c-1.54223,0 -2.61508,1.07285 -2.61508,2.61508v5.029c0,0.60348 0.13411,1.34107 0.73759,1.94454c0.60348,0.53643 1.34107,0.67053 1.87749,0.67053h20.98767v34.06306c0,0.53643 0.13411,1.27401 0.73759,1.87749c0.53643,0.60348 1.27401,0.73759 1.87749,0.73759h5.76658c0.60348,0 1.34107,-0.13411 1.87749,-0.73759c0.60348,-0.60348 0.73759,-1.34107 0.73759,-1.87749v-34.06306h20.92062c1.54223,0 2.68213,-1.0058 2.68213,-2.61508v-5.029c0,-0.60348 -0.26821,-1.27401 -0.73759,-1.87749c-0.60348,-0.53643 -1.34107,-0.73759 -1.94454,-0.73759z" data-paper-data="{&quot;glyphName&quot;:&quot;t&quot;,&quot;glyphIndex&quot;:2,&quot;word&quot;:1}"></path><path d="M296.42352,262.29447c-1.54223,0 -2.61508,1.07285 -2.61508,2.61508v41.70713c0,1.54223 1.07285,2.61508 2.61508,2.61508h5.90069c0.60348,0 1.34107,-0.13411 1.87749,-0.73759c0.60348,-0.60348 0.73759,-1.34107 0.73759,-1.87749v-41.70713c0,-0.53643 -0.13411,-1.27401 -0.73759,-1.87749c-0.53643,-0.60348 -1.27401,-0.73759 -1.87749,-0.73759z" data-paper-data="{&quot;glyphName&quot;:&quot;i&quot;,&quot;glyphIndex&quot;:3,&quot;word&quot;:1}"></path><path d="M309.90123,263.56849c-0.20116,0.33527 -0.26821,0.67053 -0.26821,1.13991c0,0.53643 0.26821,0.93875 0.46937,1.40812l26.88836,41.37187c0.73759,1.07285 1.47517,1.74338 2.74918,1.74338h6.43711c1.27401,0 2.27981,-0.73759 2.81624,-1.81044l13.41065,-20.65241l13.41065,-20.65241c0.20116,-0.46937 0.40232,-0.87169 0.46937,-1.40812c0,-0.46937 -0.06705,-0.80464 -0.26821,-1.13991c-0.20116,-0.40232 -0.46937,-0.67053 -0.80464,-0.87169c-0.46937,-0.26821 -0.93875,-0.40232 -1.40812,-0.40232h-6.90649c-1.34107,0 -2.0116,0.80464 -2.74918,1.87749c0,-0.06705 -5.29721,8.11345 -10.59442,16.29394l-10.59442,16.361l-21.12178,-32.72199c-0.26821,-0.33527 -0.67053,-1.0058 -1.40812,-1.47517c-0.67053,-0.20116 -1.13991,-0.33527 -1.40812,-0.33527h-6.90649c-0.46937,0 -0.93875,0.13411 -1.40812,0.40232c-0.33527,0.20116 -0.60348,0.46937 -0.80464,0.87169z" data-paper-data="{&quot;glyphName&quot;:&quot;v&quot;,&quot;glyphIndex&quot;:4,&quot;word&quot;:1}"></path><path d="M380.97769,306.68374c0,0.53643 0.20116,1.27401 0.73759,1.81044c0.06705,0.20116 0.20116,0.20116 0.26821,0.26821c0.46937,0.33527 1.0058,0.46937 1.60928,0.46937h48.88183c0.53643,0 1.20696,-0.06705 1.74338,-0.53643l0.20116,-0.20116c0.53643,-0.60348 0.67053,-1.34107 0.67053,-1.87749v-5.029c0,-0.40232 0,-0.67053 -0.06705,-0.73759c-0.20116,-1.27401 -1.40812,-1.87749 -2.54802,-1.87749h-48.94889c-0.87169,0 -1.34107,0.26821 -1.94454,0.87169c-0.33527,0.46937 -0.53643,1.0058 -0.53643,1.60928c-0.06705,0.06705 -0.06705,0.33527 -0.06705,0.80464zM381.04474,264.70839c0,0.26821 -0.06705,0.53643 -0.06705,0.80464v4.49257c0,0.53643 0.13411,1.27401 0.73759,1.87749c0.20116,0.06705 0.13411,0.13411 0.33527,0.20116c0.46937,0.46937 1.07285,0.46937 1.54223,0.46937h48.61362c0.53643,0 1.27401,-0.13411 1.87749,-0.67053c0.60348,-0.60348 0.73759,-1.34107 0.73759,-1.94454v-5.029c0,-0.06705 -0.06705,-0.26821 -0.13411,-0.73759c-0.20116,-0.87169 -0.53643,-1.13991 -1.27401,-1.60928c-0.33527,-0.20116 -0.73759,-0.26821 -1.20696,-0.26821h-48.27835c-0.53643,-0.06705 -1.34107,0.06705 -1.94454,0.60348l-0.33527,0.26821c-0.46937,0.46937 -0.53643,1.07285 -0.60348,1.54223zM380.97769,288.71346c0.06705,0.60348 0.33527,1.07285 0.73759,1.40812c0.06705,0.20116 0.20116,0.20116 0.26821,0.26821c0.53643,0.46937 1.13991,0.46937 1.60928,0.46937h0.80464h47.13845c1.60928,0 2.61508,-1.0058 2.61508,-2.61508v-4.96194c0,-0.40232 0,-0.67053 -0.06705,-0.73759c-0.06705,-0.46937 -0.46937,-1.20696 -0.93875,-1.40812c-0.46937,-0.46937 -1.07285,-0.46937 -1.54223,-0.46937h-47.54077c-0.60348,-0.06705 -1.40812,0 -2.0116,0.53643l-0.33527,0.26821c-0.40232,0.46937 -0.60348,1.0058 -0.60348,1.47517l-0.13411,0.80464z" data-paper-data="{&quot;glyphName&quot;:&quot;e&quot;,&quot;glyphIndex&quot;:5,&quot;lastGlyphOfWord&quot;:true,&quot;word&quot;:1}"></path></g><g data-paper-data="{&quot;fillRule&quot;:&quot;nonzero&quot;,&quot;fillRuleOriginal&quot;:&quot;nonzero&quot;,&quot;isIcon&quot;:true,&quot;iconStyle&quot;:&quot;standalone&quot;,&quot;selectedEffects&quot;:{&quot;container&quot;:&quot;&quot;,&quot;transformation&quot;:&quot;&quot;,&quot;pattern&quot;:&quot;&quot;},&quot;bounds&quot;:{&quot;x&quot;:178.50269449664634,&quot;y&quot;:115.00000000000001,&quot;width&quot;:192.9946110067073,&quot;height&quot;:121.94396371261199},&quot;iconType&quot;:&quot;icon&quot;,&quot;rawIconId&quot;:&quot;359ac098-062d-4d58-9072-affc9f48ba87&quot;,&quot;isDetailed&quot;:false,&quot;suitableAsStandaloneIcon&quot;:true}"><path d="M261.40507,146.89351l48.38193,61.97686c13.19507,17.0603 22.52492,23.72448 30.65523,26.39015c15.72746,5.33134 29.45567,-2.79895 31.05507,-13.19507h-0.66642c-2.26582,9.06329 -12.79522,12.39537 -25.72373,6.66418c-7.06403,-3.19881 -15.86074,-10.66268 -27.05656,-25.32387l-2.26582,-2.93223v-44.78328c0,-5.59791 2.53239,-15.46089 9.86298,-15.86074h1.5994v-0.7997h-24.39089v0.7997h1.99925c7.3306,0.39985 9.99627,10.26284 9.99627,15.86074v43.58373c-46.11612,-59.97761 -46.11612,-60.11089 -46.11612,-60.24417h-20.12582v0.7997h2.13253c3.99851,0 9.32985,4.53164 9.7297,7.59717v0.7997l0.93298,0.93298zM229.5503,146.36039l0.93298,1.06627l51.31418,63.57627h0.66642v-18.12657c-0.39985,0 -0.53314,0 -0.93298,0v1.73269l-4.93149,-5.86448l-37.98582,-47.18239c-6.5309,-7.86373 -11.86224,-14.26135 -16.2606,-18.12657c-9.86298,-8.79671 -26.12358,-11.59567 -36.51969,-4.13179c-4.13179,2.93223 -6.79746,6.93075 -7.3306,11.3291h0.66642c0.7997,-3.73194 3.06553,-6.66418 6.39761,-8.53015c9.99627,-5.46462 20.92552,-1.46612 27.85626,5.86448c3.73194,3.99851 9.19657,10.26284 15.19433,17.32686v47.98209c0,5.59791 -2.66567,15.46089 -9.99627,15.86074h-1.99925v0.7997h24.92403v-0.7997h-1.99925c-7.3306,-0.39985 -9.99627,-10.26284 -9.99627,-15.86074z" data-paper-data="{&quot;isPathIcon&quot;:true}"></path></g></g></g></svg>