<svg xmlns:mydata="http://www.w3.org/2000/svg" mydata:contrastcolor="131325" mydata:template="Contrast" mydata:presentation="2.5" mydata:layouttype="undefined" mydata:specialfontid="undefined" mydata:id1="589" mydata:id2="202" mydata:companyname="Эра" mydata:companytagline="Работаем с Любоью" version="1.1" xmlns="http://www.w3.org/2000/svg" xmlns:xlink="http://www.w3.org/1999/xlink" viewBox="30 150 500 170"><g fill="none" fill-rule="none" stroke="none" stroke-width="1" stroke-linecap="butt" stroke-linejoin="miter" stroke-miterlimit="10" stroke-dasharray="" stroke-dashoffset="0" font-family="none" font-weight="none" font-size="none" text-anchor="none" style="mix-blend-mode: normal"><g data-paper-data="{&quot;isGlobalGroup&quot;:true,&quot;bounds&quot;:{&quot;x&quot;:65,&quot;y&quot;:163.64423940905112,&quot;width&quot;:420,&quot;height&quot;:142.71242484808795}}"><g data-paper-data="{&quot;textHeightFactor&quot;:0.3790192850605906,&quot;isSecondaryText&quot;:true}" fill="#ff3c00" fill-rule="nonzero"><path d="M283.20506,296.60248M287.86338,286.81529c1.12033,0 2.00427,0.28792 2.65182,0.86377c0.64755,0.57585 0.97132,1.32983 0.97132,2.26194c0,0.93659 -0.32377,1.68945 -0.97132,2.25858c-0.64755,0.56913 -1.53149,0.85369 -2.65182,0.85369h-1.6536v2.1712l1.04863,0.20166v1.17634h-4.05335v-1.17634l1.0419,-0.20166v-7.02446l-1.0419,-0.20166v-1.18307h1.0419zM286.20978,291.54084h1.6536c0.54672,0 0.96012,-0.149 1.2402,-0.44701c0.28008,-0.29801 0.42012,-0.6778 0.42012,-1.13937c0,-0.47054 -0.14004,-0.85929 -0.42012,-1.16626c-0.28008,-0.30697 -0.69348,-0.46045 -1.2402,-0.46045h-1.6536z" data-paper-data="{&quot;glyphName&quot;:&quot;Р&quot;,&quot;glyphIndex&quot;:0,&quot;firstGlyphOfWord&quot;:true,&quot;word&quot;:1}" fill="#ff3c00"></path><path d="M293.29249,296.60248M293.29249,295.42613l0.69908,-0.10083l2.97783,-8.51001h2.00987l2.95767,8.51001l0.69908,0.10083v1.17634h-3.3341v-1.17634l0.67892,-0.121l-0.43021,-1.34439h-3.17277l-0.43021,1.34439l0.67892,0.121v1.17634h-3.3341zM296.84169,292.51552h2.24514l-1.1024,-3.44837h-0.04033z" data-paper-data="{&quot;glyphName&quot;:&quot;А&quot;,&quot;glyphIndex&quot;:1,&quot;word&quot;:1}" fill="#ff3c00"></path><path d="M306.20315,295.42613l1.0419,-0.20166v-7.02446l-1.0419,-0.20166v-1.18307h7.42105v2.48041h-1.50572l-0.08066,-0.96796h-2.80306v2.1107h1.68049c1.13377,0 2.03003,0.27672 2.68879,0.83016c0.65875,0.55344 0.98813,1.29174 0.98813,2.21489c0,0.93659 -0.33162,1.69057 -0.99485,2.26194c-0.66323,0.57137 -1.55726,0.85705 -2.68206,0.85705h-4.7121zM309.23475,291.95088v3.14588h1.68049c0.5512,0 0.97581,-0.15348 1.27381,-0.46045c0.29801,-0.30697 0.44701,-0.69572 0.44701,-1.16626c0,-0.44813 -0.14788,-0.81336 -0.44365,-1.09568c-0.29577,-0.28232 -0.72149,-0.42348 -1.27717,-0.42348z" data-paper-data="{&quot;glyphName&quot;:&quot;Б&quot;,&quot;glyphIndex&quot;:2,&quot;word&quot;:1}" fill="#ff3c00"></path><path d="M318.287,296.60248M327.16,291.78283c0,1.43402 -0.41004,2.61933 -1.23012,3.55592c-0.82008,0.93659 -1.89335,1.40489 -3.21982,1.40489c-1.32199,0 -2.38966,-0.4683 -3.20302,-1.40489c-0.81336,-0.93659 -1.22004,-2.1219 -1.22004,-3.55592v-0.14788c0,-1.42506 0.40556,-2.60812 1.21668,-3.5492c0.81112,-0.94108 1.87767,-1.41161 3.19966,-1.41161c1.32647,0 2.40086,0.47054 3.22318,1.41161c0.82232,0.94108 1.23348,2.12414 1.23348,3.5492zM325.2039,291.6215c0,-1.01278 -0.21062,-1.8351 -0.63186,-2.46696c-0.42124,-0.63186 -1.04415,-0.9478 -1.86871,-0.9478c-0.82456,0 -1.43962,0.31369 -1.84518,0.94108c-0.40556,0.62738 -0.60834,1.45194 -0.60834,2.47368v0.16133c0,1.0307 0.20502,1.86086 0.61506,2.49049c0.41004,0.62962 1.0251,0.94444 1.84518,0.94444c0.82904,0 1.45194,-0.31481 1.86871,-0.94444c0.41676,-0.62962 0.62514,-1.45979 0.62514,-2.49049z" data-paper-data="{&quot;glyphName&quot;:&quot;О&quot;,&quot;glyphIndex&quot;:3,&quot;word&quot;:1}" fill="#ff3c00"></path><path d="M330.52546,296.60248M339.25057,286.81529v2.60812h-1.50572l-0.08066,-1.09568h-1.80149v6.89674l1.04863,0.20166v1.17634h-4.06007v-1.17634l1.04863,-0.20166v-6.89674h-1.79477l-0.08066,1.09568h-1.499v-2.60812z" data-paper-data="{&quot;glyphName&quot;:&quot;Т&quot;,&quot;glyphIndex&quot;:4,&quot;word&quot;:1}" fill="#ff3c00"></path><path d="M341.44642,296.60248M341.44642,295.42613l0.69908,-0.10083l2.97783,-8.51001h2.00987l2.95767,8.51001l0.69908,0.10083v1.17634h-3.3341v-1.17634l0.67892,-0.121l-0.43021,-1.34439h-3.17277l-0.43021,1.34439l0.67892,0.121v1.17634h-3.3341zM344.99561,292.51552h2.24514l-1.1024,-3.44837h-0.04033z" data-paper-data="{&quot;glyphName&quot;:&quot;А&quot;,&quot;glyphIndex&quot;:5,&quot;word&quot;:1}" fill="#ff3c00"></path><path d="M354.3033,296.60248M360.62195,292.30042h-3.31393v2.79634h3.15932l0.08739,-1.16962h1.49228v2.67534h-7.74371v-1.17634l1.0419,-0.20166v-7.02446l-1.0419,-0.20166v-1.18307h1.0419h6.68836v2.68206h-1.50572l-0.08739,-1.16962h-3.13244v2.46024h3.31393z" data-paper-data="{&quot;glyphName&quot;:&quot;Е&quot;,&quot;glyphIndex&quot;:6,&quot;word&quot;:1}" fill="#ff3c00"></path><path d="M365.96367,296.60248M375.40803,289.36292l-0.04033,-0.00672l-2.62157,7.24628h-1.31751l-2.60812,-7.21939l-0.04033,0.00672l0.18822,4.29534v1.53933l1.04863,0.20166v1.17634h-4.05335v-1.17634l1.0419,-0.20166v-7.02446l-1.0419,-0.20166v-1.18307h1.0419h2.56107l2.49385,7.21267h0.04033l2.51402,-7.21267h3.61642v1.18307l-1.04863,0.20166v7.02446l1.04863,0.20166v1.17634h-4.05335v-1.17634l1.0419,-0.20166v-1.53933z" data-paper-data="{&quot;glyphName&quot;:&quot;М&quot;,&quot;glyphIndex&quot;:7,&quot;lastGlyphOfWord&quot;:true,&quot;word&quot;:1}" fill="#ff3c00"></path><path d="M388.01396,296.60248M396.06015,290.11578h-1.45867l-0.20166,-1.30406c-0.1927,-0.1927 -0.43581,-0.34506 -0.72933,-0.45709c-0.29353,-0.11203 -0.63971,-0.16805 -1.03854,-0.16805c-0.85145,0 -1.50684,0.30921 -1.96618,0.92763c-0.45933,0.61842 -0.689,1.42506 -0.689,2.41991v0.34282c0,0.99485 0.22855,1.80373 0.68564,2.42663c0.45709,0.6229 1.1024,0.93435 1.93593,0.93435c0.38539,0 0.7383,-0.05602 1.05871,-0.16805c0.32041,-0.11203 0.56801,-0.2644 0.74278,-0.45709l0.20166,-1.30406h1.45867v1.93593c-0.39436,0.45709 -0.89738,0.8212 -1.50908,1.09232c-0.6117,0.27112 -1.29622,0.40668 -2.05356,0.40668c-1.31302,0 -2.38854,-0.45485 -3.22654,-1.36456c-0.83801,-0.90971 -1.25701,-2.07709 -1.25701,-3.50214v-0.32938c0,-1.42058 0.41676,-2.58796 1.25029,-3.50214c0.83352,-0.91419 1.91128,-1.37128 3.23327,-1.37128c0.75734,0 1.44074,0.1378 2.0502,0.4134c0.60946,0.2756 1.11361,0.63971 1.51244,1.09232z" data-paper-data="{&quot;glyphName&quot;:&quot;С&quot;,&quot;glyphIndex&quot;:8,&quot;firstGlyphOfWord&quot;:true,&quot;lastGlyphOfWord&quot;:true,&quot;word&quot;:2}" fill="#ff3c00"></path><path d="M409.82898,288.32774l-0.02689,2.94422c-0.02241,1.90008 -0.29913,3.26351 -0.83016,4.09032c-0.53104,0.8268 -1.35448,1.2402 -2.47032,1.2402h-0.48398v-1.50572h0.26216c0.60946,-0.04929 1.01726,-0.33722 1.2234,-0.86377c0.20614,-0.52655 0.31817,-1.51356 0.3361,-2.96103l0.03361,-3.07194l-1.02846,-0.20166v-1.18307h7.69665h1.04863v1.18307l-1.04863,0.20166v7.02446l1.04863,0.20166v1.17634h-4.05335v-1.17634l1.04863,-0.20166v-6.89674z" data-paper-data="{&quot;glyphName&quot;:&quot;Л&quot;,&quot;glyphIndex&quot;:9,&quot;firstGlyphOfWord&quot;:true,&quot;word&quot;:3}" fill="#ff3c00"></path><path d="M418.94845,287.99836v-1.18307h4.05335v1.18307l-1.04863,0.20166v2.95767h0.93435c0.09411,-1.30854 0.54,-2.38182 1.33767,-3.21982c0.79767,-0.83801 1.81717,-1.25701 3.05849,-1.25701c1.32647,0 2.40086,0.47054 3.22318,1.41161c0.82232,0.94108 1.23348,2.12414 1.23348,3.5492v0.14788c0,1.43402 -0.41004,2.61933 -1.23012,3.55592c-0.82008,0.93659 -1.89335,1.40489 -3.21982,1.40489c-1.17858,0 -2.15999,-0.37755 -2.94422,-1.13265c-0.78423,-0.7551 -1.25701,-1.73763 -1.41833,-2.94758h-0.97469v2.55435l1.04863,0.20166v1.17634h-4.05335v-1.17634l1.04863,-0.20166v-7.02446zM429.78426,291.62822c0,-1.01278 -0.21062,-1.8351 -0.63186,-2.46696c-0.42124,-0.63186 -1.04415,-0.9478 -1.86871,-0.9478c-0.82456,0 -1.43962,0.31369 -1.84518,0.94108c-0.40556,0.62738 -0.60834,1.45194 -0.60834,2.47368v0.16133c0,1.0307 0.20502,1.86086 0.61506,2.49049c0.41004,0.62962 1.0251,0.94444 1.84518,0.94444c0.82904,0 1.45194,-0.31481 1.86871,-0.94444c0.41676,-0.62962 0.62514,-1.45979 0.62514,-2.49049z" data-paper-data="{&quot;glyphName&quot;:&quot;Ю&quot;,&quot;glyphIndex&quot;:10,&quot;word&quot;:3}" fill="#ff3c00"></path><path d="M435.42175,295.42613l1.0419,-0.20166v-7.02446l-1.0419,-0.20166v-1.18307h7.42105v2.48041h-1.50572l-0.08066,-0.96796h-2.80306v2.1107h1.68049c1.13377,0 2.03003,0.27672 2.68879,0.83016c0.65875,0.55344 0.98813,1.29174 0.98813,2.21489c0,0.93659 -0.33162,1.69057 -0.99485,2.26194c-0.66323,0.57137 -1.55726,0.85705 -2.68206,0.85705h-4.7121zM438.45336,291.95088v3.14588h1.68049c0.5512,0 0.97581,-0.15348 1.27381,-0.46045c0.29801,-0.30697 0.44701,-0.69572 0.44701,-1.16626c0,-0.44813 -0.14788,-0.81336 -0.44365,-1.09568c-0.29577,-0.28232 -0.72149,-0.42348 -1.27717,-0.42348z" data-paper-data="{&quot;glyphName&quot;:&quot;Б&quot;,&quot;glyphIndex&quot;:11,&quot;word&quot;:3}" fill="#ff3c00"></path><path d="M447.5056,296.60248M456.3786,291.78283c0,1.43402 -0.41004,2.61933 -1.23012,3.55592c-0.82008,0.93659 -1.89335,1.40489 -3.21982,1.40489c-1.32199,0 -2.38966,-0.4683 -3.20302,-1.40489c-0.81336,-0.93659 -1.22004,-2.1219 -1.22004,-3.55592v-0.14788c0,-1.42506 0.40556,-2.60812 1.21668,-3.5492c0.81112,-0.94108 1.87767,-1.41161 3.19966,-1.41161c1.32647,0 2.40086,0.47054 3.22318,1.41161c0.82232,0.94108 1.23348,2.12414 1.23348,3.5492zM454.42251,291.6215c0,-1.01278 -0.21062,-1.8351 -0.63186,-2.46696c-0.42124,-0.63186 -1.04415,-0.9478 -1.86871,-0.9478c-0.82456,0 -1.43962,0.31369 -1.84518,0.94108c-0.40556,0.62738 -0.60834,1.45194 -0.60834,2.47368v0.16133c0,1.0307 0.20502,1.86086 0.61506,2.49049c0.41004,0.62962 1.0251,0.94444 1.84518,0.94444c0.82904,0 1.45194,-0.31481 1.86871,-0.94444c0.41676,-0.62962 0.62514,-1.45979 0.62514,-2.49049z" data-paper-data="{&quot;glyphName&quot;:&quot;О&quot;,&quot;glyphIndex&quot;:12,&quot;word&quot;:3}" fill="#ff3c00"></path><path d="M463.11849,286.81529v3.62314h1.68049c1.13377,0 2.03003,0.27672 2.68879,0.83016c0.65875,0.55344 0.98813,1.29174 0.98813,2.21489c0,0.93659 -0.33162,1.69057 -0.99485,2.26194c-0.66323,0.57137 -1.55726,0.85705 -2.68206,0.85705h-4.69193v-1.17634l1.04863,-0.20166v-7.02446l-1.04863,-0.20166v-1.18307h1.04863zM463.11849,291.95088v3.14588h1.68049c0.5512,0 0.97581,-0.15348 1.27381,-0.46045c0.29801,-0.30697 0.44701,-0.69572 0.44701,-1.16626c0,-0.44813 -0.14788,-0.81336 -0.44365,-1.09568c-0.29577,-0.28232 -0.72149,-0.42348 -1.27717,-0.42348zM464.16712,286.81529v1.18307l-1.04863,0.20166z" data-paper-data="{&quot;glyphName&quot;:&quot;Ь&quot;,&quot;glyphIndex&quot;:13,&quot;word&quot;:3}" fill="#ff3c00"></path><path d="M471.79431,287.99836v-1.18307h4.05335v1.18307l-1.04863,0.20166v2.95767h0.93435c0.09411,-1.30854 0.54,-2.38182 1.33767,-3.21982c0.79767,-0.83801 1.81717,-1.25701 3.05849,-1.25701c1.32647,0 2.40086,0.47054 3.22318,1.41161c0.82232,0.94108 1.23348,2.12414 1.23348,3.5492v0.14788c0,1.43402 -0.41004,2.61933 -1.23012,3.55592c-0.82008,0.93659 -1.89335,1.40489 -3.21982,1.40489c-1.17858,0 -2.15999,-0.37755 -2.94422,-1.13265c-0.78423,-0.7551 -1.25701,-1.73763 -1.41833,-2.94758h-0.97469v2.55435l1.04863,0.20166v1.17634h-4.05335v-1.17634l1.04863,-0.20166v-7.02446zM482.63012,291.62822c0,-1.01278 -0.21062,-1.8351 -0.63186,-2.46696c-0.42124,-0.63186 -1.04415,-0.9478 -1.86871,-0.9478c-0.82456,0 -1.43962,0.31369 -1.84518,0.94108c-0.40556,0.62738 -0.60834,1.45194 -0.60834,2.47368v0.16133c0,1.0307 0.20502,1.86086 0.61506,2.49049c0.41004,0.62962 1.0251,0.94444 1.84518,0.94444c0.82904,0 1.45194,-0.31481 1.86871,-0.94444c0.41676,-0.62962 0.62514,-1.45979 0.62514,-2.49049z" data-paper-data="{&quot;glyphName&quot;:&quot;Ю&quot;,&quot;glyphIndex&quot;:14,&quot;lastGlyphOfWord&quot;:true,&quot;word&quot;:3}" fill="#ff3c00"></path><path d="M272.89002,271.46942v-1.30406h212.10998v1.30406z" data-paper-data="{&quot;isContainerTopLineAboveSecondaryText&quot;:true}" fill="#ff3c00"></path></g><g data-paper-data="{&quot;isPrimaryText&quot;:true}" fill="#ff3c00" fill-rule="nonzero"><path d="M311.5511,173.24964c-19.19904,0 -31.42857,11.44053 -32.61207,21.43455c-0.6575,4.99701 1.578,9.73102 7.49552,9.73102c5.12851,0 8.94202,-3.81351 9.59952,-9.46802c0.9205,-7.49552 6.57501,-17.09504 18.54154,-17.09504c13.15003,0 21.69755,11.30903 19.85655,30.11357c-0.3945,3.68201 -2.104,5.91751 -5.26001,5.91751h-25.77406l-0.6575,5.65451h24.72206c2.36701,0 4.33951,1.315 2.63001,5.12851c-6.83802,15.38554 -20.51405,24.19606 -34.45308,24.19606c-7.89002,0 -14.46503,-3.02451 -19.98805,-10.65152l-2.76151,2.104c2.49851,6.31201 11.30903,18.01554 29.85057,18.01554c25.77406,0 46.81411,-21.17155 46.81411,-48.12911c0,-23.53855 -17.75254,-36.95158 -38.00359,-36.95158z" data-paper-data="{&quot;glyphName&quot;:&quot;Э&quot;,&quot;glyphIndex&quot;:0,&quot;firstGlyphOfWord&quot;:true,&quot;word&quot;:1}" fill="#ff3c00"></path><path d="M354.4202,283.31539c6.18051,-1.578 13.01853,-2.63001 21.82905,-2.63001l0.6575,-3.68201c-6.18051,0 -8.81052,-1.841 -7.75852,-10.38852l0.789,-6.70652c1.315,-11.17753 3.15601,-2.104 14.85953,-2.104c17.09504,0 32.34907,-18.27854 32.34907,-37.74059c0,-15.12253 -9.20502,-23.80155 -20.25105,-23.80155c-15.64854,0 -20.11955,16.30604 -20.25105,8.67902c-0.1315,-4.60251 -3.81351,-8.15302 -8.94202,-8.15302c-2.76151,0 -7.36402,0.9205 -11.30903,4.33951l-0.526,3.55051c4.60251,-2.36701 8.54752,-0.263 7.89002,5.12851zM383.74477,253.72782c-7.62702,0 -11.96653,-6.44351 -10.65152,-18.27854l1.4465,-11.57203c2.104,-15.64854 10.25702,-20.64555 16.17454,-20.64555c7.62702,0 12.49253,8.67902 12.49253,20.25105c0,14.07053 -7.10102,30.24507 -19.46204,30.24507z" data-paper-data="{&quot;glyphName&quot;:&quot;р&quot;,&quot;glyphIndex&quot;:1,&quot;word&quot;:1}" fill="#ff3c00"></path><path d="M445.02391,257.80433c5.52301,0 11.30903,-1.841 16.04304,-6.44351c1.9725,-1.9725 2.76151,-1.7095 3.41901,0.263c1.1835,3.28751 3.55051,6.18051 8.54752,6.18051c2.89301,0 7.36402,-0.789 11.44053,-4.33951l0.526,-3.55051c-4.60251,2.36701 -8.54752,-0.263 -7.89002,-5.65451l5.78601,-46.55111c-11.04603,4.20801 -13.93903,-1.1835 -24.85356,-1.1835c-19.33054,0 -34.19008,17.35804 -34.19008,37.08308c0,16.43754 10.12552,24.19606 21.17155,24.19606zM451.73042,250.17731c-8.02152,0 -13.80753,-7.10102 -13.80753,-19.59354c0,-13.67603 7.10102,-29.85057 19.46204,-29.85057c7.62702,0 11.83503,6.44351 10.25702,19.33054l-1.4465,12.22953c-1.578,12.88703 -7.62702,17.88404 -14.46503,17.88404z" data-paper-data="{&quot;glyphName&quot;:&quot;а&quot;,&quot;glyphIndex&quot;:2,&quot;lastGlyphOfWord&quot;:true,&quot;word&quot;:1}" fill="#ff3c00"></path></g><g data-paper-data="{&quot;fillRule&quot;:&quot;evenodd&quot;,&quot;fillRuleOriginal&quot;:&quot;evenodd&quot;,&quot;isIcon&quot;:true,&quot;iconStyle&quot;:&quot;standalone&quot;,&quot;selectedEffects&quot;:{&quot;container&quot;:&quot;&quot;,&quot;transformation&quot;:&quot;&quot;,&quot;pattern&quot;:&quot;&quot;},&quot;bounds&quot;:{&quot;x&quot;:65,&quot;y&quot;:163.64423940905112,&quot;width&quot;:155.23046211368836,&quot;height&quot;:142.71242484808795},&quot;iconType&quot;:&quot;icon&quot;,&quot;rawIconId&quot;:&quot;9e6f11cb-e78d-4d76-99fd-740bf8ba96c6&quot;,&quot;isSvgStockIcon&quot;:true,&quot;combineTerms&quot;:&quot;building&quot;,&quot;combineTermsExtended&quot;:{&quot;icon&quot;:[&quot;building&quot;]},&quot;isDetailed&quot;:false,&quot;suitableAsStandaloneIcon&quot;:true}" fill-rule="evenodd"><g data-paper-data="{&quot;isPathIcon&quot;:true}"><path d="M193.64538,199.13535l-68.4302,-35.49111l-40.50792,19.20106v22.10407l-19.70726,8.24902v14.55904l6.87442,1.203v56.59017h7.56192l0.0119,10.67003l58.43597,10.11203l0.133,0.024l25.46108,-3.73301l3.35901,-0.472v-0.019l30.43309,-4.45901l0.73,-0.107v-15.37505l22.23007,-0.629v-59.29218l-26.58508,-12.17004zM81.15235,294.78263l-0.0119,-10.93803h-7.56022v-56.31717l-6.87442,-1.203v-11.99204l19.70556,-8.25102v-22.15807l37.93381,-17.97905v26.30008l12.83104,-5.38202v117.61635zM126.05118,165.99825l65.8872,34.1731v9.14803l-53.89316,-24.66907l-11.99404,5.03001zM218.52346,279.90059l-22.22807,0.63v15.56005l-29.45809,4.31901v-17.61105h-7.20402v18.66606l-20.75106,3.04101v-117.59535l79.64124,36.45511zM163.38429,300.91465l-2.04501,0.29v-16.70005h3.79201v16.15605z" fill-opacity="1" fill="#ffffff"></path><path d="M149.09125,203.94636l7.20702,2.40001v20.80406l-7.20702,-2.32501zM150.79726,223.58342l3.79601,1.225v-17.23205l-3.79601,-1.264zM173.26632,212.21538l5.25902,2.41901v8.43203l-5.25902,-1.88501zM126.05318,212.59839l-46.61684,14.06704v13.40604l46.61684,-11.19703zM174.97233,219.98041l1.84701,0.664v-4.91601l-1.84701,-0.85zM124.34518,227.52943l-43.20473,10.37603v-9.97203l43.20473,-13.03904zM181.17135,215.34639l5.60202,2.14201v16.96305l-5.60202,-1.648zM182.87735,231.52744l2.19001,0.645v-13.51004l-2.19001,-0.838zM215.18545,228.56443l-18.89006,-7.93502v16.36505l18.89006,5.29002zM213.47944,240.03447l-15.47905,-4.33301v-12.50504l15.47905,6.50102zM159.63328,232.52744l7.20402,1.653v18.63706l-7.20402,-0.747zM161.33929,250.5315l3.79201,0.393v-15.38505l-3.79201,-0.87zM126.05318,253.70251l-46.61684,5.59902v-14.50604l46.61684,-9.07303zM181.04635,254.25251l-6.00402,-0.64v-17.31405l6.00402,1.44zM124.34718,237.79146l-43.20503,8.41103v11.17703l43.20503,-5.19002zM179.34034,239.08246l-2.59201,-0.623v13.62004l2.59201,0.276zM196.29539,240.06347l18.89006,4.78801v13.69104l-18.89006,-3.02101zM198.0004,254.06451l15.47905,2.47901v-10.36703l-15.47905,-3.92101zM149.09125,256.57752l7.20702,0.9v17.73105l-7.20702,0.073zM154.59427,258.98252l-3.79501,-0.474v15.04704l3.79501,-0.038zM196.29539,258.75952l18.89006,2.26701v14.21104h-18.89006zM126.05318,276.82058l-46.61684,1.80401v-14.68704l46.61684,-4.36001zM198.0004,273.53157h15.47905v-10.99203l-15.47905,-1.85801zM124.34718,261.45053l-43.20503,4.04001v11.36203l43.20503,-1.673z" fill="#ff3c00"></path></g></g></g></g></svg>